<mxfile host="app.diagrams.net" agent="Mozilla/5.0 (X11; Ubuntu; Linux x86_64; rv:142.0) Gecko/20100101 Firefox/142.0" version="28.1.2">
  <diagram name="Page-1" id="oXhh-J_WwIqc-03QIr6M">
    <mxGraphModel dx="1426" dy="792" grid="1" gridSize="10" guides="1" tooltips="1" connect="1" arrows="1" fold="1" page="1" pageScale="1" pageWidth="850" pageHeight="1100" math="0" shadow="0">
      <root>
        <mxCell id="0" />
        <mxCell id="1" parent="0" />
        <mxCell id="ygFGr8_wO-zUAzRDIiU--1" value="" style="rounded=0;whiteSpace=wrap;html=1;dashed=1;strokeColor=light-dark(#2ec27e, #EDEDED);strokeWidth=2;" parent="1" vertex="1">
          <mxGeometry x="180" y="210" width="510" height="340" as="geometry" />
        </mxCell>
        <mxCell id="ygFGr8_wO-zUAzRDIiU--2" value="" style="rounded=0;whiteSpace=wrap;html=1;dashed=1;strokeColor=light-dark(#009900,#EDEDED);strokeWidth=2;" parent="1" vertex="1">
          <mxGeometry x="372.87" y="316" width="307.13" height="100" as="geometry" />
        </mxCell>
        <mxCell id="ygFGr8_wO-zUAzRDIiU--3" value="" style="rounded=0;whiteSpace=wrap;html=1;dashed=1;strokeColor=light-dark(#000000,#EDEDED);strokeWidth=2;" parent="1" vertex="1">
          <mxGeometry x="190.03" y="316" width="159.32" height="100" as="geometry" />
        </mxCell>
        <mxCell id="ygFGr8_wO-zUAzRDIiU--4" style="edgeStyle=orthogonalEdgeStyle;rounded=0;orthogonalLoop=1;jettySize=auto;html=1;exitX=0;exitY=0.5;exitDx=0;exitDy=0;entryX=1;entryY=0.5;entryDx=0;entryDy=0;" parent="1" source="ygFGr8_wO-zUAzRDIiU--5" target="ygFGr8_wO-zUAzRDIiU--36" edge="1">
          <mxGeometry relative="1" as="geometry" />
        </mxCell>
        <mxCell id="ygFGr8_wO-zUAzRDIiU--5" value="" style="shape=image;verticalLabelPosition=bottom;labelBackgroundColor=default;verticalAlign=top;aspect=fixed;imageAspect=0;image=data:image/png,iVBORw0KGgoAAAANSUhEUgAAAK8AAAC5CAIAAADRf/ikAAAACXBIWXMAAA7EAAAOxAGVKw4bAAAgAElEQVR4nO2deVwTV9fHJ8lkIYRACPsuICIia6UIgriggrYVfeqGtlap1SpWpXSxVpHHulJfxbrUR9vax9rWHRVXEETFgoii7KBAwo7sSUjIMu8f0yY0IZMFkgx95vsHn2G4kzkJv9y599xzz8FBEARgYAAAAAB4QxuAgSIwNWDIwNSAIQNTA4YM0NAG6A+xWCwUCkUikUQikUgkAADgcDgcDgeCIAiCRCIRh8MZ2kYD8w9XAwRBbDa7qqqqpaWlsbGxtbW1p6enr6+Px+NBEASCIJVKNTY2NjU1tbOzs7KycnR09PDwYDAYhjbcMPwD1dDf39/a2lpfX//o0aPCwkI2m83j8eBeAflCIpFIoVBoNJq7u/vEiRN9fX0dHBzMzMzw+P+V5ynun+RvgCCorKwsLS2toKCAxWLx+fyhvJq5ubm7u/uUKVNmzpxpaWk5XEaimX+IGlpaWvLy8s6dO1dcXKyyD9AUU1PTyMjI6Ohob29vIyOj4X1xVDHi1cDj8Z49e3b8+PGKigoOh6OjuxAIBCaTOWnSpOXLlzs4OBCJRB3dyLCMbDUUFhaePXs2KyuLx+Pp546Ojo4xMTExMTEWFhb6uaM+Galq6Orqunv3bmpqamdnJzxd1A/wjHT8+PHr1q3z9/cHwX/UMHxEqqGpqeno0aO3bt3SW5egiJ2d3dq1a2fMmEGhUAxlw7AzwtQgEolKS0uTkpKqqqoMbQtAIBBiYmLi4+PNzc0NbcvwMJLUIBKJ7t27d+zYsfLyckPb8ickEikyMnLTpk2Wlpb/AFfmiFEDBEHZ2dk7d+5sbm42tC3yTJ06NTEx0cHBwdCGDJWRoQaxWJyfn799+/aGhgZNryUQCKampgwGw9ra2snJydnZmU6nGxsbk0gkDofD5/Obm5tZLBaLxero6Ojo6Ojr69P0MyEQCG+88UZKSoqZmZmm5qGKEaAGCIKeP3+elJRUXV2t0YUgCI4ePTosLCwoKMjBwcHGxoZAIChrzOFwmpubq6qqcnJy8vLy2traNLoXHo+PiYlJSEgwMTHR6EJUMQLU8OrVq8TExMrKSvUvodPp48aNW7FiRWBgoBaeIg6H89tvv928ebOqqkqj6evixYs3bNhApVI1vSNKQLsa2tvb9+/ff+XKFTXbU6lUHx+fefPmTZw4cSj9tlAobG5uvnTpUnp6emtrq5rebgaDkZCQMGfOHIROCM2gXQ3Hjx8/efKkmn4FJyen5cuXR0ZGDuPzu7Ky8uzZs5cuXerv71envb29/cGDB8eMGTNcBugTQlJSkqFtGBwIgqqrq5OTk9VZfQBB0MXFJTk5OSIiYng7aiaTGRQURKFQqqur1RFlb29vW1tbSEjISPRKoXflvqen5/vvv+/u7lancWho6O7du/39/XXRRVMolNjY2MTERFtbW3XaP378OCMjY9jN0APoVcOtW7dycnJUNgNBcPHixTt37hw7dqzujKFQKFFRUQcOHBg/frzKxhwO59SpU01NTbqzR0egVA2dnZ0XL17s6+tDbgZP9FevXk2n03VtEg6H8/Ly2rhxozo9RF1d3blz54RCoa6tGl7QqAaxWHzt2jV1vAtBQUFffvmlPpcJ/Pz81q9fb2pqitxMIpFkZGSw2Wz9WDVcoFENnZ2d6enpAoEAuZmzs3N8fPyoUaP0YxUMkUicOXPmkiVLVAZB1dXV3bp1S5+r7UMHjWooLCysqKhAbkOlUpctW+bt7a3/tSIikbh06dKIiAjkZhKJJDMzs7W1VS9GDQ+oU0Nvb+/Vq1dVenumTZs2Z84cQy0b0un0FStWqHxesNnsx48fo9yjMxDUqaGurk7lgjWTyXzrrbeMjY31Y9KguLu7R0ZGIk9o+/r6cnJy1HRboQHUqaGgoOD169fIbUJCQvz8/PRjjzJAEFy2bJmNjQ1CGwiC8vPzOzo69GbVEEGdGh48eID8mKDT6bGxsWiIZB81atTbb7+N3Kajo6OgoEA/9gwddKmhq6urrKwMuY2vr6+Xl5d+7EEGh8NNnz5dpaujtLRUP/YMHXSpoaSkhMvlIjQgEAgzZ85ET8yZtbX1uHHjkNs8ffpU5bMPJaBLDSrjCaysrDw9PfVmj0pMTEx8fX2RN2q2t7e3tLTozaShgCI1CIXCqqoq5PmYq6urmktH+gGPxwcGBpJIJIQ2PB5Pd5vAhhcUqYHP56tcsXR3d0dbqJmfnx+ya7y3t1eLcE6DgCI1cLlclZ47T09P9AwaYCgUCnK0NARBmBo0RiAQIA8hAQBwcnLSjzEaoXKtRNOYW0OBIjWIxWKVbjtra2v9GKMRKgPvhphJQm+gSA0ikQhZDXg8nkaj6c0e9VEZ9GbA/aIagSI1AACgckyAzj3RKh1QasbzGRx0qUHlcp9YLNaPJRqhcgKpcrUTJaBIDUQiEXn1QSKRoHPirjIwZ6Tst0GRGkAQRHbjAACAThdve3s7cgM9hG0OCyhSA5ygD7nNq1ev9GOMRjQ2NiI3wPoGjTEyMlIZ71pdXY22UKL+/v76+nqEBng83s7OTm/2DAUUqYFKpap0J7x69Qpts7WamhrkRSkajebq6qo3e4YCitRAJBLHjRuHPMmsqalBW9xpWVkZspvEzMxspOR1QJEaAABwdnZGXh1uaWlBT5ofAAB4PF5eXh5ysJaJiclISVyNLjWMHTsW2dvY19d3//59vdmjkra2tuLiYuQ27u7umBq0wcTERGX4a25ubl1dnX7sQUYikeTn57NYLORmQUFB6HShKoIuNeBwuMDAQOTPrqur6+zZsyodPnqgsbHx3LlzyMFaTCZzwoQJejNpiKBLDQAABAUFISftFYvF6enpBg89FYvF586dU7lZ1NfXd6Q8JgAUqsHe3l5lYpT29vbLly8bdqrJYrFu3bqFvAubQqGEhoaqdLCiB9SpwczMbO7cuSoXMzMyMh49eqQfkxQRCoUXL15UGdFkYWERFhY2goqdoNHQCRMmqEzN0dPTc/jw4YqKCv27JoVC4dmzZ9PS0pCb4fH4qKgo5M1YaAONajA2Np42bZrKzH5VVVVHjx5VuWI0vEAQ9PTp0x9//LGzsxO5paWl5bRp09AWxYkMGtUAguBbb72ljjc3MzNz//79vb29erAKpqSkZM+ePSr3R8DbsNzc3PRj1XCBRjUAAGBjY7Nw4UJ1En9mZmb+/PPPPT09ujYJLp/33XffqZP+3tzcPDY2dsSlhUOpGnA43LRp04KDg1W25PF4P/30U0pKik73M4lEosLCwvj4+NzcXJUjFSqVunLlSkdHR93ZoyNQqgYAABgMxvLly9WJDODz+VevXt28eXNpaakuBpVisfj8+fNbtmx5+fKlOq/v5+c3a9asYTdDD6BXDTgcLigoaO7cuerM0EQiUX5+flJS0h9//DG8ZvD5/N9///3QoUPIQQxSKBTKihUrRmjFRLRnFm5vb9+xY4f6yThBEAwLC1uyZImvr+8Qczy0tbXdvn37woUL6tfJodPpmzZtmjt3LpZnWleUlpZu3rz55cuX6l9iZWU1adKk+fPnu7u7axqFBsfiZmdnX758ubi4WGXOSik4HG7BggUJCQloyDSiHSNADXDVmm3btqmc4sthamoaFBQUHh4eEBDg4OCg8onT399fVlZWUFDw8OHDwsJCTaP1/f39d+/erWbQm1AofP36dU9PT3d3d29vb2dnJ5/PJ5PJdDqdTqebmZnR6XQLCwsymayRDUNkBKgBAACxWHz79u29e/dqETNNJpNpNJq9vX1gYKCTk5OjoyOFQgFBkEAgiEQikUjU0dHBYrEqKytLS0vb2tq4XK6mOsDhcN7e3nv37rW3t1fpbqqvr8/Ozk5PT29ubhaLxSKRSCwWC4VCCILg8ooEAgH+yWQyp0+fPmvWLL3lxBwZagAAQCQSXb16NSUlZYiuBQKBQCKRSCQSCIICgUAoFA59cTwoKOjTTz9VJ9F1bW3t119/rX55ZxAEXV1dk5OTVWaQGRZGjBpgbt68mZqaip6MvSAIBgYGfvPNN+psF25oaPjkk09UJkZVxNnZ+dtvv9VDzQv0zjAHZdq0aZs3b/by8kLDwiCFQpk3b15ycrI6UoAg6M6dO9qV8ayrq7t+/boevreG/0w1gkgkhoaG7ty5MzQ01LDhZQwGY+3atQkJCWoOG7lcbnZ2ttZpp+/fv6+HvJMjTA0AAPB4PD6fb9iYdAaDsXLlytjYWPWnrywWaygZXlpbW2tra7W+XE1GRvSmlMLCwitXruTk5Lx+/dpQIx4ajbZ69eqYmBiNqum1tLQMZa1VIBDoofzJyFADn88vLi6+dOnSjRs3DFsCxNzcPC4ubuHChYreRg6HU15eDvfnlpaWrq6u8EZ9iUTy8uXLtLS0QUP3iESira0tjUYjEokikaivr6+xsVExFwyfz//tt9+sra39/f3hRySXy3316lVra6tYLLawsHB3dx/63l+0zykgCGpsbISrU7a0tBjWWiaT+dFHH8XExMgtVff39z958uTEiRPV1dVwTgE6nW5raztx4sTJkyc/ePDg+vXryqL+x4wZs3XrVktLSxAExWIxj8fbs2dPbm7uoI0tLS0jIiLmzp1bWFiYk5PDYrG6u7slEomJiYmzs/OiRYumTJkylGV0VKuBw+FkZWX99ttvz58/N7QtAAiC8fHxsbGxiv7B//znPz/99JN2jpCoqKhdu3ZJexoIglJTU0+cOKHFS9FotJiYmMTERK0DrlD6pBCLxTU1NT/88ENGRob6KwW6AwTB0NDQpUuXygVAwxWLfvzxR63HBF5eXgMfOjgcbvTo0dq9FIfD+fXXX0ePHv3WW29pN+FCoxrEYvGDBw8OHz5cXl6Okq7L1dX1448/VoyFr6qq+uGHH4YyPFSMlhuKH1okEv3www8uLi7+/v5aXI46NXA4nAsXLhw+fHjoXQKJRLKzs7OxsTE3N7exsXFxcWEwGHQ6nUwmS5cZhUIhh8Pp7e1tbm5uaWlpaGhoampqampqa2uT+gaIROLq1asVE9+3tbWlpqaWlJRobaG5ubmih9HFxcXS0lLrFJO1tbUHDx7ctWuXFimY0aWGzs7OXbt2ZWdnay0FMplsamrq5uYWEBAQEBBgZWXFYDCoVKqas0GRSNTV1dXR0dHQ0PDs2bPc3Ny2traIiIjw8HC5lhKJ5PLly1oH15DJZAsLixkzZigmCCOTyYsXL75+/XpjY6N2O4iKiopOnTq1YcMGTUeUKBpFlpeXf/fdd/fu3dPiWjweb2tr6+fnFxQUNGnSJEtLy2EJXRcKhWw229TUlMlkyv2psrLy/fff1yIrGZy2PioqKjQ0VPFlpfB4vPz8/CtXrjx58kQLLySJRDp69GhQUJBGV6FCDRKJpKysLDk5uby8XFPfrYmJyahRo2bPnj158mQmk0kmk/WwhUEkEu3bt+/MmTMaXUUkEn18fNasWePt7a1mUa6+vj4Wi3XkyJE//vhD035i6tSpe/bs0ah7QIUaHj9+vHPnTjVjUKXg8fjg4OB33nknODhYnwVSAQCorq5ev369sqXUiIgIKyurjIyMgd9pGo22bNmyhQsXIvQHyuBwOLdu3Tp8+PDAwYSJiUl4eDiVSj137tygVzEYjJSUFI26B8OrIScnZ+fOnRr58CkUyvjx4xctWhQZGWmQzUw7d+789ddfB/2Ts7PzqVOnmExmf39/YWFhZmZmQUEBiUTasmWLshrcEomkp6eHw+GQSCQGg6FsiMNms3fv3s1ms/39/cPCwkJCQqhUqlgsjouLU1Y6KzQ09NixY+q/L0OqQSKRlJSUbNmypaamRk0zCASCnZ3dggULZs2aZagtjvX19UuXLh10xx+VSv38889jYmKkGhWJRE1NTXg83t7eXq4xn89vaWm5fv3606dPu7u7+Xw+kUik0WhOTk4xMTFubm6KnuaOjg4Oh2NraztQMQ8fPtyyZcugUWFEIvH06dPqlwEz5JyipKRk79696qeAJBKJUVFRS5Ys0U8gkDJyc3OV5Y0ODw+Pjo4e2F2BIDjoNpuysrLff/89IyND8aWePHly7dq1wMDAZcuWhYSEDPQjmZubKz4Tg4ODZ82adfr0acW7CIXC3NzcEaCGmpqagwcPqu9ytrS0XLJkyeLFiw1bFFUikbx69UpZHBuNRuNyucgDN6FQmJWVdfjw4draWmVDZqFQmJeXV1lZCQ81kMv19PT0IDSoqKgQCARqRtsaRg19fX0nT54sKChQcwbh5ua2atWqyMhIjRaRdYFEIkF4qKWlpXG53Pj4eIRtd/fu3UtJSVG5PA1BUEdHx/fffy8QCNauXausWWtra2pq6q1bt5Q1IJPJ6seJGUANfD7/woULV65cUWesQCQSfX19k5OTUbKtEQRBDw8PIpE46MK6UCi8ceNGdXV1QkJCSEiI4gi3tLT04MGD6kcq8Pn8H3/80cXFZcaMGYrfhOfPn6empubl5SG8gouLi/pfIQPEPj18+PC///2vmlKIioraunUrSqQAM2nSJOQKA9XV1UlJSdnZ2XLn+/r6zp49qzKHnBwCgeCnn35SnHNVVFRs27bt8ePHCNeSSKSZM2eqfy99q6G7u/vAgQMq03QDAACC4OzZsxMSEvS2m0BNrK2tY2NjEfJaQhDU0tKiWPS3oqIiIyNDi9DI6urqhw8fKr4am81GeDUqlbp06VKNvkh6VQOPxzt06JA68X0kEikqKiohIUHPbiU1iY2NjYuLQxjPEggExX/D7du3tYuBEIlEmZmZcl5wFxcXhLEhhUKZP3/+hx9+qNGN9DpuuH///o0bN1Q2IxAIU6ZMWb9+PWrTMxsZGb333nsUCuXkyZODLjbicDi58nx8Pr+oqEhr7w6cYHtgh8RgMJTt/TU3N1++fPmiRYs03RGqv76htbVVzQChsLCwzz//HOX5s4hEYmxsbHx8/KB/xePxclLu6OgYSnWr/v5+uXQlFhYWykJaFixY8MEHH2ixOVhPaoBT6qmzt2Ts2LFr1qwZKfkPlD0scDicnA9AIBAMpSiXQCCQ64RIJJKyu2u9SVxPaqivr1cnHTAIgp999pk6GxpRDgRBcmUK8Hj8UJZUiESiXGcDQZCyz1PrjWj6UAOfz//ll19UBvMYGRmtXLnSz89vpGTVKykpuXjx4qB/giBI7rnAYDCGkteBRCLJJVzu6OhQVhfj7t27hYWFWkxe9KGGly9fqhPD4u3tvWzZspGSrr26ujo5OVlZqDsEQc3NzQPP0Gi0oXhNSCSSlZXVwDO9vb3KHj1Pnz5NSkp68uSJpnfRhxpOnz4t99EoYmtru3HjxpFSN/Lx48cff/wxQtIxsVgsN5HG4/HR0dFaZ+eYPXu2XN9QU1OD8OStqalJTEy8c+eORnfRuRpqamoePHiA3IZIJMbExOhhR/qw0N/ff+zYMWTvMolE4vF4clrx9/f39PTU4o6WlpZTpkyROykWi5Fdzu3t7ZqmVtWtGiQSyY0bN7q6upCbOTk5vfvuuyMlV3tubm5RURFCA2Nj47i4uGXLlskNgCwsLGJjY5EXJBXB4XBz5sxR3GQRHh6+fv165HIH9fX1169fV/9eulVDU1NTVlYWchsqlfree+8h16RADxAEFRcXKxu+4fF4Nze3HTt2fPDBB4quaxwOFxkZuWjRIo10P2nSpJUrVypuBjcyMpo/f/7u3bs9PDwQUtCVlpaqP7PVrRpevHhRU1OD3MbDwyM0NFSnZgwjYrG4vb1d2XDB1dV127ZtU6dOVfb/BkFw6dKl7777rpqD5ZCQkDVr1igbToEgGBISsn37doTyT52dncgl+QaiQzWIRKKMjAyVPoalS5eqkxsFJYAg6OzsrOy7OHv2bB8fH+Tpvrm5+WeffZaUlIScVp1Op8fFxe3bt09ZNKUULy+v+fPnK/urnZ2d+mHTOpzOtba2vnjxArkNvJFZdzboAi8vLxKJNOj+n0uXLr355pty/z+xWAxB0MDOAI/Hz5kzZ+zYsdnZ2dnZ2SwWSygUCoVCOEOZmZkZvJ/Hx8dHzkUhkUgUB48NDQ2//PKLMmvHjx+vvv9Gh2rIz89XmdBvzpw5I6XiuJSAgIBx48YNGqbMYrFOnjy5Z88eeCbJ4/GKiooePXpEoVDkcmYTCAQPDw8PD48lS5bAaRg6OzuNjIysra0dHR0HXaOBvfuvXr0KCQnx8/ODHx8QBJ05c0ZZjVB7e3vFyQgCulJDX1/fgwcPkJ9Y1tbWGtmKEuBnf1lZGZfLVfzrvXv3Ll265O7ufvfu3dzc3JaWFi6XSyAQSktL16xZM3bsWLnnCI1G8/HxUXlTFot14sSJmzdv9vX1Xb58mclkBgcHw5/e+fPnBx0nwutqGqXS1ZUa+Hy+ylzA48ePd3d315EBOsXPz8/X13dQR6RIJDpw4AAEQQO3RolEonv37tXV1b3//vtz5szRaP8TBEE3b9785ZdfpNNaHo/H4/HYbHZaWhqVSlVMBAPj6emp6ZdNV2qoqalROZuIjIwcoSmZmUzmihUr8vLyBv1SDtpnAABQW1u7ffv2ixcvxsTETJkyReWkuqen59GjR+np6dnZ2YPOYvr7+xF63/nz5zs4OCDfQg5dqaG4uBh5mmtpaalytIxmfH19J06c+PDhQ00DWF68eFFeXn7+/Png4OAZM2YoPjsAAGCxWBkZGVlZWVVVVcq0hYy3t/fkyZM1vUonapBIJIWFhchtpEmyRigUCiU+Pr61tbWyslLTa4VCYWlpaWlpaXp6+vnz5+WWqkUi0YYNG7TLMwrj4OCwYcMGLRx6OvE3tLS0ICf/JRAIPj4+mtYKQBuenp5xcXFDKYXb1tamGELd1tam/v4zRWDf7htvvKHFtTpRQ3d3N3JiAxKJ5OnpOVIWr5WBx+MjIiLmzZun9RuBd27JnWSxWEOJkoqOjo6OjtauXIqu+gbkGEAymax1ritUYWRktHz58unTp2sdbqSYKEjr1EE4HG7ChAnr1q3T+hGsk29nTU0NcuoJOp0uF7sxcjEzM9u4caORkdGdO3e4XK50UEmlUi0sLPz9/YuLi2Fv46CXV1dXwxspYY+hUChEmIvBRSsCAgLKy8vb2toGLppTqdTg4OD4+Hgt8kNI0YkaGhoakEfadnZ2ht1cO7zY2dlt3bp11qxZeXl5DQ0NOBzO3t7e39/f39+fTqd3dHRcvXpVWcjPy5cvU1JS4ABoOJFDfn7+oHdhMBgxMTHz5s1zdnbmcrlPnz4tKiqqr6/v7++3srIKDg4ODg4eYq0bneRv2LRpE3LUzZIlS7788sthv6/BEYvF/f39OByORCINfHZIJJK0tLRdu3Zpnd2MRCJt3Lhx0aJFA8cocKAsvAgyLPuVddI3qIy3GSnRDJpCIBAG9afh8XhnZ2djY+Oh5Lpzc3OTG67icLjhLcerk1Gkyhxm/1Q1IGBrazuUuSidTtfUsagFOlGDyr5B02iwfwCWlpaBgYFaX+7j46OHzWc6UYOydZQ/b4nH/w+qAQTBt99+W7tO0dzcPDo6Wg+ZTHSihoCAADqdbqIEHx8fLZLe/gPw9PRcvXq1poKAg6DUKTA/dHQyp2hqakJIamRlZeXq6jpCawsPETjs48iRI9XV1eq0t7W1XbVqVXR0tH68+IbPF/k/CARBRUVFRUVFXV1d7e3tPB6Py+Xy+XwSiUSj0chksqWlpampqZeXV2BgoD5TXWFqMDxCoZDP5wuFQhAEKRQKkUg01E5UTA0YMkZeBUQM3YGpAUMGpgYMGZgaMGRgasCQgakBQwamBgwZmBowZGBqwJCBqQFDBqYGDBmYGjBkYGrAkIGpAUMGpgYMGZgaMGRgasCQgakBQwamBgwZmBowZGBqwJCBqQFDBqYGDBmYGjBkYGrAkIGpAUMGpgYMGZgaMGRgasCQgakBQwamBgwZmBowZOgke2juH4+7e3rg44iwUCMj+QyXHR2deQV/FrCwtbH28/HWhRlDgcVuKCkbvHTYoETNmKZLY+pLyirg4zf8fS0tdZVtUydq+OnnMxVVf2a58vcdr6gGFrt+974D8PHUiDAUquFp0fP9B4+o316naigofHbwu+/h413/3qo7NWBPCgwZI7teiO6gkMkMxt8KDHG5PGlJMRMaDST+Az+6f+BbGhZmRk6dGTl14Jnt3+y9m30fPt6RtNnPdwSXaFMGGtUAQRC7vrGhsZHH6yORiBZMpusoFzJZaV16Pp9fXlHV1d1NM6a5jnI2N5dP7g1BkLRYCEgk4nG4VzW19Q2NNtbWHqPddPEWGhqb2PUNXC6PQCCYmZm6jnKmK0mmzOXxXr6s6ezqlkgkxsZUZ0cHa2t167hIJBKRSCT9deipBVGnhlt37v7485mm5paBJ8lk0szIqetWfyinCS6Pd+KH/167cVvah+NwOD/f8etWr3R3k9Usr6yqXrV2E3x8MGVnds7DS1fS4V/DJ4X8e9twVsrI/ePx0eM/sNj1A0/icbiwSRPXr/3IgmkuPdne0fHd0RM5Dx4N/I8CADDKxTl+TVxggB/yjfgCwYZPN5eV/1lxLyR4wo6kr4aYoRddo8hzF9N27v0/OSkAACAQ9F+5dvOLLduFAz64np7e+I2fX0y7NrBCKARBT589//iTxPzHTwa9xcW0a1IpAAAwvH1DzoPczVv/LScFAAAkEHTvfu7GxM3SfOw9vb3rNnx+N/u+nBQAAKiprfv8q+1/5A9Sp1v2ghJJ8jf7pFLw8x2//esvhp6sGUV9Qy+Hc/zkz/Cxx2i3WTOmmTMYnV1dV67drKmtAwCg8NnzjMzsqJnT4Ta7Uw6+fFULH7s4OwZNCOzq7L57775IJBII+v+969ufTx6RGwkCAHDv/t/KHU+fqnEJUWUIBP37U4/C2ViJIDglIszG2qq9oyM7JxeucMpiNzx8lD9tSjgAAGd+v9DY1Ay3nPv27NHurgQCoaSs4giaF14AAAeuSURBVPKVdIlEIhSJDhw6dubUcWXF0w4e/v7hozz42HPM6F3JX5NISp+k6oMiNZSVV0q/5V98usHN1QU+nhk59YNV8QwzU3c3Vzr9z6dveUWV9OMI9Pfd8802OB/z7OgZGz/dLIGgnt7eC5evxn2wTPFG06dO/mTtRwAA5BcU2tpYD5f9LHa9BdMcnnokbFwn9UBMnRye8MXX8DEsawAAip4XwwfBb05YtyZOapgF0/zylXR3N9fR7q69vRxTU7rijc78fv7ylevw8SgXp327tlOpw1OA2vBqkA588DjZ9yBpx565b0W/GRToYG9nTKWePX1S7qqse/elxx+ueE+amtvPx3ticBAslLvZ9xXVQKFQEj5ZC398w9gxAAAw2t31xNGDEomEXd/g6CirMzNqlJP0mMv9sxSg9Ev/8FHe3v2pEWGhPj7eFDI5dtG/Yhf9C+Eud7NzMu7eg4/tbG2+3fNvZeNTLdCJGnB4DUa2UjV4jR1DpRrxeH0AALDY9alHjgNHAHNzhr/v+AlvBISFBNNosjJ55RWywsJ9fH7pX45bAADoJjT4oLGpmcvjGf89l7/3OM/h+iYNCh6Pd3Zy5PJ4JaXlFZXVxSVlz/7qBgAAkJY9fSPAr7ikDAAAiUSSfuNO+o07IAh6uLsF+PuGhQZ7jlFaLPROZrb02GvsGKa5ubKWWqATNRAHFOOSDFb2dWAtWOnYh0o1+nTDum/27B/4146OzsysnMysnANk8ry5b614fwncDXR2yaqvbkz8alAzIAhqbX09ysVp4EkrS0tt3pJ6SCDo+s076Tdul5dXSgZL5y79nixeOP+P/IKBmhaJRKXlFaXlFad/Pesx2m1j/BqvsWOQb5eZlTPvnTnjvDyHy36dzCmMBnwd+/gCxQYDTw6s2jZtSvjRQykR4ZMUx0R8geDM7+f3fnsI/lVZKRQ5BAL5u9OMdVX2QywWf7Fl+779h0rLKmAp2FhbTZ86ef3aVdI20qchhUw+tH/3mlUrnBztFV+qsurlhsTN0kGGHGQyCf5KQBCUeuT4MFYR0EnfYD5gJM9i10vHg1LaXr+WHpvS//bYGzPaffvXn/P5/CdPiwqfPn9eXFL9skb6v7+dmfVR3PsWFkxTUzq7vgEAADwen3b+NBEcvKQHmSJfLVR3xT9u3M7My/9zWhsRPumjuPftbG0AAOjlcFIPH4fPD3yGkkikRe/GLHo3po7Fzi8oLHpe8qK4tOuvitMCQf/5S1cTN66Ttx8EdyR9Vfi06NezFwEAKK+ounnn7nCtmelEDY4OMr2fu5g2KTT4b88OieR2Rpb0V3u7P2tc8Xh9LHY9i13f2NT83tJFoRPfDJ34JgAAXd3dyd/se/K0CG7W2NRsYcH0cHeTPnfr6xsHdqr3Hz4yohi5uDgNdPVI0brgtUr+yPvTQ0AgEDZ/tlHqKOvu7pFrKYGglpZWFqu+jl3vNso5MMDP2cnx3XnvQBD08FH+V9t2wM0aG5sU77JuzYdBbwSMGzvm+q0M+JWPnzw1eVLIsAyGdPLRhARPkB6XlJZ/+sXWJ0+Lurt7OBxuSWn55q07pIM+PA4X9EYAfLzn24Mfrdv0zZ79P/58JmPAWMnM1NRhgLyYTHMAACaHh0rPHPn+pNSrw65v2L5jb8IXX89f9P7HnyTq4t0pg/dX5VOxWNze3i49//v5S9JjkVAEAEBdHXvRsrjPvko6fOzEoaMnBAKZI3Xc2DHSYTVzMDVbWVkCAGBsbPzBe0vgMx0dnT+f+X1Y3oJO+gbXUS5TJk/KuvcA/vVZ0YtnRS8GbRk9K1K6rLBk4fycB4/gh8Leb1OfPX/h6eEhEouKS8qy/lou8ho7Bu5L/Hy8A/194Q7jRUnZBx+tDw8NxuFwN29nSv2V/4p5WxfvThke7q5PCp/Bx599tX3xgvl4PO7O3XvSkwAA9PT2AgAwysUpdOKb8DS4prZu1doNM6ZPNTM1bXv9+ubtTOk4YMb0KQi3e3v2rIuXr8F+z/MX0t6OnmlnN9RKgrryNyRuim/v6Hz+ogShjb+fz9rVcdJfx3iM3hC/+kDqUQkECUUieN41sD2DYbb5s43SX7/enLh+0+csdgMAAI2NTb+duzSw8cJ/xUyNCBueN6Me/4p5O/3GHfj/za5v2Ls/FT5PoxmbmZrWNzQCACB1nn7x6SeffLr5VU0tAAC1dezjJ0/Jvdq7896R9pqDQiAQ1qxa8eXXyQAACEWi746d3Jm8ZYhvQVcPUWMq9cC+b9avXTXoipyDvd0n6z5KUXCivTMnKnX/7gA/H/zf1+LIZFLUjGknjx0cOCJhmJkeO/TtgvnvyLlfrK2tPt2w9uOPVgzrG1KNhQXzQMrOgQsfeBwudOKb/zn8fzHvzIbPsNj1VdWvAACg002Opu5btmSBou98lIvzli8SpA5KBEKCJ0gXtx4+yit48gy5vUr0UeWspbWtqamZw+XhcIAJjWZrY60ylovL5dbWsXt6ewkEgjnDzNnZiQgq7cbEYnFNHauzswuSSGxsrB0d7A1VMw6GXd/Q2NhMJBFdRzmbmZoiN5ZAUENDY2trm6BfSKUaOTrYDa9DSSOwmncYMtC1oo1hWDA1YMjA1IAhA1MDhoz/B5rFynoIZP8IAAAAAElFTkSuQmCC;" parent="1" vertex="1">
          <mxGeometry x="624.14" y="249" width="44.07" height="46.59" as="geometry" />
        </mxCell>
        <mxCell id="ygFGr8_wO-zUAzRDIiU--6" style="edgeStyle=orthogonalEdgeStyle;rounded=0;orthogonalLoop=1;jettySize=auto;html=1;exitX=1;exitY=0.5;exitDx=0;exitDy=0;entryX=0;entryY=0.5;entryDx=0;entryDy=0;" parent="1" source="ygFGr8_wO-zUAzRDIiU--7" target="ygFGr8_wO-zUAzRDIiU--38" edge="1">
          <mxGeometry relative="1" as="geometry" />
        </mxCell>
        <mxCell id="ygFGr8_wO-zUAzRDIiU--7" value="" style="shape=image;verticalLabelPosition=bottom;labelBackgroundColor=default;verticalAlign=top;aspect=fixed;imageAspect=0;image=data:image/png,iVBORw0KGgoAAAANSUhEUgAAAKEAAACmCAIAAAA9NnhZAAAACXBIWXMAAA7EAAAOxAGVKw4bAAATJUlEQVR4nO2dZ1wUxwLAZ/fu4I6FO7qCkaIIlqCAEhAVW+LDaIgmthgTI0ajKWp6Ygt2jbGXqIkFe3yJCWqCsYcgShWjkd6blIPrcHXfh8X1PLjjDl3KvPn/+DDs7ZS9/97uzOzMLEaSJEBADd7RBUAwDnIMP8gx/CDH8IMcww9yDD/sji5A22lsbJTJZMy1/QiCsLGxYSjx9qSrOs7Kyrpy5UpmZiZzWXh4eIwZMyYoKIjFYjGXSzvQJR2LxeLTp0/HxsZqtVpGM6qsrPTy8nJxcWE0F6bpkvdjiURSVlbGtGAAQFVVVX19PdO5ME2XdEySZPt0wep0unbIhWm6pGOERSDH8IMcww9yDD/IMfwgx/CDHMMPcgw/yDH8IMfwgxzDD3IMP8gx/CDH8IMcww9yDD/IMfwgx/CDHMMPcgw/yDH8IMfw0yUdYxiGYVhHl6LL0CUd29jYODg4tINmKysrNrtLTiXRp0s65vP5I0eOdHNzYzQXe3v70NDQ7t27M5pLO4B10TVfFApFUVGRQqFgLgtra2t3d3cnJyfmsmgfuqpjhPl0yWs1wiKQY/hBjuEHOYYf5Bh+kGP4YaoTR61WV1ZWVlRUFBcXM5RFl8bT09Pd3d3NzY3D4TCdFyOO1Wr1lStXYmJisrOz22HVjq4Ii8Xy8/ObP39+eHg4092ljPSBiESiOXPm5OfnP/OUnxIvL6+hQ4cKBAIc75iblE6nk0qlaWlpWVlZAICAgIBdu3YJBAJGM2XkDKqtrS0oKKDCc+bMGTt2bAf27Ofm5m7fvl0oFPJ4vCVLloSFhXXseltarbaoqGjatGkAgHv37kkkki7puKKigr48zJ07l8/nM5GLmajVauoMIwjCycmJy+V2YGEAABwOp3fv3lRYq9VKpVKmc2T2kmVlZdWxggEAarWaOuE6z4NC/fujlZUV09kx67gzfKdarbazPXfRaDR0uB2+ItQ+hh/kGH6QY/hBjuEHOYYf5Bh+kGP4QY7hBzmGH+QYfpBj+EGO4Qc5hh/kGHKSHp5GjiFHS6qRY8gJc5uFHEMPhhzDD3IMP8gx/CDH8IMcww9yDD/IMfww67gzvCO6E67Ipz+jrh3G9zPimJ5Tq1QqmUjfIgQCATUXgcPhdNR0RQO4XK6trS0AAMfxdjgFGTnmbt26UdN4OsMidR4eHiEhITY2NsHBwa6urh1dnCYiIyMJgggPD3d2dmY6L0bmHzc2Np48eTI1NTUyMjIiIuKZp28pcrlcJBI5ODjweLxOculWKBQikYggCKYnpgK0zt7/A53i/oRgFOQYfpBj+EGO4Qc5hh/kGH6QY/hBjuHHskVl6HWQGALHcTPXuSFJUqPRMLpQI4vFYrPZZvaLabVaRguDYZj5hTHAAsf379+PjY0tLS1l6GkSm8329vaeOHFi3759TR+MWq2+c+fOpUuX7t69y0RJKAICAiZMmODv79/qunwlJSW///77gwcPmHsG4+rqGhERERIS0oY1VM11rFard+/enZiYaGkGFpGQkCAUCtesWWP6SEQi0YkTJ7Ra7ZgxYxgqiUKhOH78uFwu9/DwcHR0NLGnVquNi4vbv38/0w9SMzMzt23b5uHhYWlEcx3X1taWlZVZmnobKCoq0mq1ph1LJBKhUBgVFcWcY5lMFhMTU11dLZfLTTvW6XSFhYXt8KRcJBJVVVW1wbG5dS6VStU+D/zNuatptVq1Ws3j8ZgrBvWkmSTJVusfJEm2z2NykiTbpgDVq+EHOYYf5Bh+kGP4QY7hBzmGH+QYfpBj+EGO4Qc5hh/kGH6QY/hBjuEHOYYf5Bh+kGP4QY7hBzmGH+QYfpBj+EGO4Qc5hp8u6ZjFYnE4HIVCwVwW1LpETE+3aR/MHUMvEAhsbGwYLQoFQRCtzurhcrkEQezatevMmTMMFUOtVlOFsba2Nr0nhmFOTk4MFUMfDofTthfbW+B4/PjxUqlULBYzNK2NxWI5ODiMHz++1Wltjo6OISEh58+fz8nJYaIkFL6+vqNGjWp1/Sw2mx0aGpqWllZdXa3/EvpnC0EQw4cP9/HxaUNcC9ZuEolEmZmZIpGIIcc4jjs6Ovr5+ZmzZJVEIikoKBCLxUyUhEIgEPTq1YvP57e6Z0NDQ05OzsOHD5m7sBME4evr6+bm1oa4aH0u+OmSdS6ERSDH8IMcww9yDD/IMfwgx/CDHMMPcgw/yDH8IMfwgxzDD3IMP8gx/CDH8IMcww9yDD+Go2riLl1tvhMGAI7jVlZW9gK+l5eH/ZPjNORyefzN2+ZnGTIkyNHRodXd8vILklPTKyqrxGIJm80S8Pk+Pr2GhgxxarZCaUlp2b+Z2VR4SOAgF5dn9na7xNspYokEAGDF4YwdHf6skm1nDB1v3LzddAQMw4ICBy3+YL6nR09qi7CuvtVY+uz4br1px0XFpVt27Pnn3r/NP2KxWBPGv/T+/Lk8HpfemJqesWP3fiq8Yc3KZ+j4yNGT2bl5AAA+3+5pHKtUqtP//dXby3PEsNBnVTbzsfhaTZJkWnrGwo8+KygsYqA8oLSsfNGnX7UoGACg1WrPXbj4+dJvVCoVE7kzwY34hFlRCw8eOd7Q2NAhBTA6AhLH8ed6NI0Q0+lIjUYjlcnlcjm1Ra5QfLt1175dW0DTeEp7/bgqpUr+aPAzl8vV/80BAEwPu9y6Y69YLGmKa20dPCTI1dVZIVfcf5BVWlZObb93/8GpM2dnz5ph/nF2FFevx69ev7ljy2D06xYI+McO7dPfQpJkStqd5dHrlEoVACAzK6e8orKHu1sPd7ffzhzT3zP2QtzWHXup8Iypk+e8PdPM0lRVVadn/EOFffv03rJxDZ9vR/2rI8k93//486/nqH/P/X7x7Tend5KXoJpApVZ3dBEseZ8EhmEvDAkaFT78z8vXqC01tcIe7m0ZDWqM0rIKOjw8LJQWDADAMWzBvHf++POyQtEAAKitFQqFdc7Opgav63Q6/QHPHA5H/5zQ6XTZOXnVNbVWVpwe7u4ePXu0ocAlpWWlZeU6nc7F2dm3T2+Dd2irVCqtXgG0Gq1KpcIwrPkq+41KZXFxSXVNLYvFduvezdurhcXmdSSpeXTG0MeSm1dQ+fChtZV1X78+AkHLw4Qtey8MAICjd6Xt5upiaXTTcLmPJyVcvHxt3Iuj3bp3e5w1h7Np7TdKlYrL5fK41sYOiaJRqVzy2dLMrKZB9mGhwWujl1Fv/yBJ8mzshaPHfxLpDc/u+VyPeVFvjxwRZmZRU9Lu7Nl3sLComN7Ct7ObPnXyjKmTqZuRWCyJnPKmfpSN3+3Y+N0OZ2enX04doTfWi8SHY05cufaXXG9qj4uL8xvTXpscOUH/pLmZmLQ8eh0V/un4wZKS0m2791dUVFJbcBz/z4ujl3y0gMt94s4ILHWcl19w7a+/qXD/fn76Ap4Jfr4+BEFQd/2KispZcxaEvjB4eFhoUOAg6nwa6D/AnHR0Ot3qdZtpwQGD/Fet+IoWvH7TtktXrxtEKS0rX7l6Q9TsN825zZ+7cHHbzr26J4emS6TSHw4dvXvv3/Wrl3PMe4PRg8zs5dHrhXV1Bttramp37jlwOyl1zTdfN3cGAPjj4uWjJ37SHxuv0+niLl2VSGXrVy832NloUWQy+crVG+h/NRqtsK4uJzefeqUBQRBffLLInMOwCA6H886sGXv2H3yUqSYhMSkhMQkA4O7WPXhI0KjwYYGD/Fu9De/Ys//mrSQq3Nevz4bVK+iZQv89e44WLBDwR40YhuP4jfiEepEYAHAo5kT/fn7BgwNNJJ6Vnbt99z5KMIvFGhU+zMXZKTn1DtXQSE5JO3L01LyotzAc4/Pt1Gp1Q0MjFZHH43I4HL5d0w2oXiReFr2urq6e+tfO1rZ/fz+FouFBZjY13yI5NX3D5u2rVnzVvAwxx0/jOD5i2FCPns/du//g7r371Pabt5KKS0rpZi2FUcdqtfqvv1t+04+Li/O2b9f2fK4tN7BWmTZl0sPq6l9+PW+wvaLyYez5P2LP/+HR87nPPv5gkP/zxlI4+dPPv537gwp7e3ls3rDKxqbp7SJKperYyZ+osIOD/Y97t1N39NmzZry7cHGtsA4AEHPslGnHh4+epBxgGLZ5ffTgoAAAwLwozdcr1yanpAEAfj4bO3PG63w7u/O/nIy7dJXuPPhk8fvjxo6m0/nx0FFa8IhhoUu/+IQqZ2FR8edLo2tqagEAN+JvJqekvRA82KAMOIZtXr9qyOAAAABJkl8uX5WUnEZ9lJWda+C4LX2ZNTW1XyxblZae0Ya45rDo/fnfbVwdYOT3WlJatuTTpddu/N1i3Gs34g8cPEqF3d26b9m0hv7dAADSM+5KJFIqPP31SXSVzcHBfvrU16jwvX8zqe+3ReQKBSUSAPBCcBAlGADAZrPnR71NhRuVysRbyaaPsaGh8eqNeCpsZ2v75WeL6RPR28vzwwXv0nvGXohrHn34sKGUYAAAhmEvjhlJfySRSg12Nvo75lpbv/rKy1SYBKRapZZIpbl5+SWl5QCAiorKL5et+nbDqqCAgaYPpm0EDw4MHhxYVV2TlJyWmn4n45/7dKMZAKAjyY3fbQ8MGOhgbzj77fLVG3S4fz8/g47PrOxcOozh+INHPaAAABbr8emem19grLMsNzefvg3bEoR+ChqNBsOa5o/l5OW/NHaUiQPMzsmlr+EjR4TZ2drqfzoqfJidra1UJgMAZPxzv3l03z699f91cnjcb6hu1loz6phnw3v/vSiDjSRJHjt55uCR4wAAtUaz+/sfDu3fZeJInpJuri6REyMiJ0aQJJmTlx938UrshTiqQqBUquL+vDxz+hQT0a9ej3/t1YkD+velt1A3XYrvDxwyFrGqusbYR/opXL0ef/V6fIu7VRtPoXkW7i21P93d3bJzcgEAMpm8UankPjkNmm/3xDmh3xhrPkfRsms1hmGz3phKN1ryC4qa1wmfhut/JZz5JXbfD4d37DlgkK9fH58lHy34YMFcemNefmGLiVhbW1HHTJLkzr0HDCqf5hSjsdHoO7mePgUK/dniLU4dteI8/vmxcENNrCfr7aYroRa3j3EcJ2xs6CtnrbCu+YOgNvPj4WNl5U3dIJNeGW9QdwAA+Pn2ocOyRx2r+nDY7LXRy9Lv3D115iwAICs79+Lla+PHjaU+FehNJt6wZmXgIP8Wi8HhGO/+00vhjemvz36z5YaW/pW/RZydHn9pFZWVzXegvwd7gaAN79HUx+I6V15B4cOHVfS/rq1Ns7cI/ebvvh8ONz/B4xMeV/VbbJ1/uHDeC0OC3po5jb7YHDgYQ3WNgSdvY4VFxTwel/4rKCxKTc+oq6+35lqb6FH38fGmfzT5+YX6KUik0oTE2+WVlWw2i/6Z4vq/ML2j8endi7783ohPpGuCFEnJafRNISjwaWs8Rh1r1Jq09Az6LyXtzt83b8ccP/3x58voSseA/n0NnkY8JS9HvESHE2+nLF25NjsnV6VSabXasvKKnXsPnPn5N3qH8OEt9Em5uroAAAiCoDvJ6+rqjz5qL4UEB9EPSE6fOVv56GRVKlWbtuxcHr1u5uz5EyfNEBlfnsBeIBg0sKnZlpyaTrXdKQ7HnFi7ccvc9xaNmzjldnIqtVH/dBEK6wAAao0GAMDjcenyy+Xy9d9uk8maLku5eQXfbt1Jx3p90ivGCmMmRk9YqUz2yZcrTEd+d85bT5m9Af4D+o0dHU5XZBJvJyfeTsYwDAPAoFMpKGDg4MBBJpKKnBBx9rcLJaVlAICff4mNfPk/7u5uXC535vQpVJ1RIpXOfW/Ri2NGOjjY/33zVnFJKRXxxTEj7U0uVjF39puLPv2ausasiF4XPmJYL2/PzKycW0kp1A4ePXvQLVp7vZr/wSPHr1yPF9bVUY9w5s19+3ZKKvULvpWUMmXmO/38fBsaG7Ozc+mDjZwY8fyAfuZ9eUZp41gfDMM+en8eEw2nLz5dRDc6KUiSNBDs08t79Tdfm06HxWItnN/ULlBrNLv3NfWdzXpjKt0pLVcoYi/EHTl2Kr+giNoSMPB5OpYxBvoPoKt+OpK8EZ9wKOYELdjZyXHNN8voS3Rfvz50Z6Rao8nLL6ivF1Fd064uzuuil9HDJRoaGtMz/snMyqEPduzo8MUfvGe6MOZglmMcw9hsNpfL5fPtvL08J44fd3DfzimTI58+++Zwra23bFz9+ccf9u7l1fxTT4+eC+dH7d+z1aBB2SJhocH06XLzVlJqWgYAAMfx6BVfffzRQoPbOWFjM33K5E3row2edrfI1Nde3bppTf++fvoVWhaLNXJE2N4dm/UfYRE2Nl99ttjWlqC38HhcqVRGhQf6DzhyYPfrk18xuHJ4evRc9uUnK5d+3uoSR+bQqdd8EYnFRcWlUqkMxzE+n+/WvZt+dfTpKa+orK6uUapUDg72vby9zHyQoE9dXX15RaVMLrcliF7engRBtLibUqmiOj3sHQQtZkRVOGpqhDgLd3fr3r2ba1uOxwid2jHimYDG3sIPcgw/yDH8IMfwgxzDD3IMP8gx/PwPBh4xbtEQBQ8AAAAASUVORK5CYII=;" parent="1" vertex="1">
          <mxGeometry x="205.64" y="344.63" width="48.49" height="50" as="geometry" />
        </mxCell>
        <mxCell id="ygFGr8_wO-zUAzRDIiU--8" style="edgeStyle=orthogonalEdgeStyle;rounded=0;orthogonalLoop=1;jettySize=auto;html=1;exitX=0;exitY=1;exitDx=0;exitDy=0;entryX=0.5;entryY=0;entryDx=0;entryDy=0;strokeColor=light-dark(#009900,#EDEDED);" parent="1" source="ygFGr8_wO-zUAzRDIiU--9" target="ygFGr8_wO-zUAzRDIiU--19" edge="1">
          <mxGeometry relative="1" as="geometry">
            <Array as="points">
              <mxPoint x="311" y="305" />
            </Array>
          </mxGeometry>
        </mxCell>
        <mxCell id="ygFGr8_wO-zUAzRDIiU--9" value="" style="shape=image;verticalLabelPosition=bottom;labelBackgroundColor=default;verticalAlign=top;aspect=fixed;imageAspect=0;image=data:image/png,iVBORw0KGgoAAAANSUhEUgAAAVQAAADWCAIAAAAB/+2FAAAACXBIWXMAAA7EAAAOxAGVKw4bAAAgAElEQVR4nO2dd3xTVRvHz73Zs03Svffei7KhyJYlQxkqoCgOFHCLCq8CigOV4WApG5G9dylQKKN70b33StKkzc77R+Bym6QlTdO00vP99I97zz059+Q2v3vWc54HUavVAAKBDDzQvq4ABALpG6D4IZABChQ/BDJAgeKHQAYoUPwQyAAFih8CGaAQ+7oCkP6CSCRWqVQMBp1AIPR1XSDmAIp/gCKRSBoamgoKihNv3c3Nza+vb5BIpGq1mkQiWlnxPL3chwyJDgkO5Flx2WxWX1cW0isg0MhnoNHW1v4wN//ChWuJiXdLSspUKpXebAiC2NraREaGzpw1JTg4gMVimrmekN4Gin8AoVAo6usbt23bfSPhdl1dg1KpNORT1ta8qOjwpUsXeni4k0iwq/jsAMU/UBCLxJcuX9+z+1Bubr4RH3dxcZo/f9bzU8bzeFyT1w3SJ0DxDwjkcsX27XsO7D/S1NRs3H8cQRAWizk6bvgnn7zP5VqavIYQ8wPF/+xTXV375x9/Hz16WqFQaF2iUCg2NlZ2djaurs5W1jwalVJX11haWl5bW1dX1yAWt+mWNmhQ5MefvBcY6GeWukN6ESj+Zxy5XPHZp/+7du1mW1u71iUrK+68+bOHDh3k7OyIb8xFIlF5eVVOdt7ffx8sLCzW+hSZTAoI8N20eYONjVWv1x7Sm0DxP8vw+YLftu48cOCoVptvYcGeMGHM/AWz3d1dO5vDU6lU9fWNp06d3/33oZYWvtaiwLDhsZ9/vsLd3RVBkF78ApDehLBmzZq+rgOkV5BKpdu27T58+IREIsUSEQTx8fF8593Xl7zxio2NFYHQqYkngiBMJiMyMszZ2bGhobGurgHfTtTW1guFrZGRoTQarXe/BqTXgOJ/NlEoFLdv39v4028ikRhLRFHU2dnx668/GzFiCJlMMrAoV1fnqKiwgoKi2tp6rP1XKpVlZRU0KjU0LLiLNwikPwPF/2xy/37q2rU/1dc14BP9/X2+Wv1xdExEtwx4URS1tLQIDg6oqa4tL6/E2n+FQpGXV2DvYOvl5Y6iUP//PeD/7BlEKGw9fuxMRXkVPtHamvfOO6+Fh4cYV6aHh9v7y5cGBPjgE1taBPv2Hq6vbzS+rpC+A4r/WUOhUO7d88/Zs5fxBnyWHIs1//t0zHMjjTbR00wWfL7qAzc3F3x6enr2n3/81d4u6VGlIX0BFP+zRm5u/unTF+RyOZbCYDJeemnmsGGxPS88ODjglVdetLS0wCdeu3YrJSW954VDzAwU/zOFSCQ6dPBoeccOf0x0+Ny5L1Ao5J6XTyQSXpg5ZfLkcfjE+vqGnTv2VVXV9Lx8iDmB4n+muHXrbkJCIn5N3tqa99bbi21trU11CyqVsmjxPDc3Z3xiRkbO9fhbproFxDxA8T87qFSqY8fONDW1YCkkEnHy8+NNborr5OQwf8FsDudJ518kEp04cY7fIjDtjSC9ChT/s0NKSsbNG3ewpTgEQQIC/ObMmdYbnnmmTJkwcuRQ/ApfZmbOuXOXdbcPQPotUPzPCG1t7QcPHMEb4ZFIpAkTxjg7O/XG7Sws2FOnTaTTO5j3nT9/pbq6tjduB+kNoPifBdRq9Y2ExDt3HuATIyNDp02f1EvuNxAEiYmJGDt2FD4xJyfvRsJt2Pj/V4COWfo7YrG4vr5RLle0tbW1t0kkUimDTiORSUwmk0gkWFhYWFiw5HJFQsLtlhY+9ikURadMndCrG++JROLzU8bHx9/i8wWPq9p29uylqdMmstksgUDI5wsUCqVQKFQqVSKRiEQi0Wk0Ko1CpVI5HEsLCzbcFNS3QPH3I9RqtVDYyucLigpLsrJyS0rLS4rLmpqaFQqFWg1UGtRqFEEQBCEQCAgCUJRAoZAtLS3Ky6vwfX5/f5+oqLDernBgoN/gwdHnz1/BUjIychYvXiYUtIrFbSqVUq1WK5UqAIBSpUIAgqIIiqIoiqAowdKS7erm4u7m4uPjGRTsb2lpweFYQjNhcwK39PYLVCpVfn7R3bvJyQ/SHj4sqKys7syvpoE4OTuMHjUsOCTQy8vd29vTtJ1/tVpdWlpRkF+U+zD/RkJiTk5+D39F1tZWvr6eERGhEZGhUVFhRCJsk8wBFH8fIxKJHzxIi79281bi3Yb6RplMZsLCmUyGhQXb0dE+INAvNDQwIMDXisel0qjdnf9Xq9USibSlhf/wYUF6elZuTn5pablQ2CoUtvbwJYWHQCBwuZYxMZGjRg8bMiQaOgvsbaD4+wyZTFZUVLp/379nzlzEb7nvPTgci6DggNjYqMBAP29vDy6X89RRt1DYWlhYUlBQdDcpOT09q7q61gw/GBRFY2Oj3n7ntcBAPxqN2tu3G7BA8fcZp06e37Vrf35+kQkbT0MgkYhcLtfT023kyCGTJo+ztubpzdbeLomPv3nh/NXsnDyTd0meCoqiDg5206ZPeuutxUQijCDUK0Dx9wFisfjggWM//rilswwUCsXKisvjca2teWw2y9raisVmaY5pVCoAQCqTikRiuVxRVFh86NAJkUhkXE0oFMqgQZHjJ8SFhAQ6OzsSCIT6uvrchwXXrt28djWBzxca+Q0BmDZ9UlRUOI1GodNpNOojcwCFUiEQCMXitvKyyqrqmob6poaGxoaGxi42BU6cOObjT963t7c1uiaQzoAzK+ZGKpXu2L53//4jeq/a2lrHDIocMiTG1cXJ3sHOxsaq6/F5cnL63r3/4lPGjh3l6OiQm5uXm5svFLY+tTI3bty+ffueh4erv7+PhQU7Kys3NzffwC26FArFy8s9IMAXRdEzZy+JcV6DvL08Zs+e2vXHW1r4FRVVZWWVqakZCdcT9W4Nunr1pkKhXL3mEysrOAVgYmDLb1YUCsWB/Ud++GELfsstAIBEInp4uj/33MgXX5zBYjENH+j+tnXnpk3bsFMOx3L9t18OGzpIKpO1t7Xn5uZnZeXevZtcXV3b1NSs68BXCxRFux6DkEgkHo9jZc2LigwLCQkMDglgs1lUKqW6um7lilX4cCCxsVF//b3FwJV8mUzW2iq6eOHambOXsrMeSqUdZkBQFJ08eezqNZ8wmQxDSoMYCGz5zUpycvquXfu1lM9iMWe88PzChXMdHOy6VZparU68fQ+f4uho7+3tQSKTSGQSk8mwtrEaMXLIkjdeLSsrT0nJSE/LSk/PKi7uND5fF8q3t7cNCQkMDQuKjAz19vbUMux1cnLw8nLHi7+goLihvtHGsN2EZDKZx+POmz9r3Pi4f/89eeTfk/hegEqlunbtZnBI4EsvvWC460HIU4HiNx/1dQ3bt+2p6+hXz87OZvnypePGx2nJyRCqqmpKS8rxKb6+XrrDYxKJ6OXl4eXlMXnyuObmltzc/Avnr5w7dwUYRnh48LTpk6Kjw62seGw2S29jTiIRhw4ddPr0RSylvb09LS1z3Pi4bn0jKyvua68tCAsN+uGHzbm5T8wHxOK2v3btj4gIDQqCwUJMBjSoMh+Jt+/dvn0PP86ytuat+uKD6TMmG6F8AEBycppYLManxMUN72KOgMGgEwiEqqqaggLtUBxdUFFRVVpaLpPJmUxGF934ESOHUigU7FQikSYnpxsYCxQPmUwaPCT6p5++CQryx6fX1NTt33+4u6VBugCK30w0N/OPHTuD71dzOJZvvPHqqFHDjCuwra39blKyVPpkBc7GxioqOrzzCrT888/xTz5e88vPf3RL/I2NzXt2//PZp1/v2rW/vLyys2xcrqWfnzd2qlKpiopKW4zd4e/q5vzmmwu1ggLdTrxXUlJmXIEQXaD4zURGelZO9kN8yqDYyBdmTjHa8La5mV9SWo7vR/j5+1hYsHVzNjY2nT93ZdHCZau/+u7+/VSt6TQNbDYrOjp83LjRNjbWus27SqV6+LDgpx+3zn1pya5d+4uL9StwwsQx+NP8/MKKzl8WXYOi6JjnRsydO7PjF2k+efI8nKI2FXDMbyYys3LxrTQAYPr0SQwG3egC62rrykor8CmhIYFaeWQyWVJS8t49/6SkpOuNugkAIJGIMYOiZs2cEh0TQadRMzJyTp06f/ny9dZWPbYDTU3NP2/87dzZyy++NGPs2FFanjw9Pd1pNCq2TNjY2FxUVBoeYaSzcARBpk2ftG3bbqxApVJZVFgiFrfBaX+TAMVvDoTC1vy8QvxGdycnxx66083LK2xufuKxi0qlBAcHYKdyuaK4uOSP3/++dStJr4xRFOVwLCMjQ+fNmxUY5MdiMTXpsYOjwsKDFy6ce+TIqatXb9TV1SsUHcbtcrkiKyu34Jvio0dOL3tvSXh4CDZhYWdn4+jogMX2VKlUDx6kznraan8XODjYjRgx5OLFa1hKRWV1XV09k+ludJkQDCh+c9DU1KLl4iY4xL+He9cKOsbPtXeww7x0NjfzT508d+jQ8dLScn0fBXQ6bfLksePGxcUOjiKRtBfPqFSKj6/Xp58tnz5j8qWL144dO6MblkMqlaalZX6w8ovpMya/9NILGmf+1lY8R0c7fGDfvLzCnnxHAEBYWDBe/HW1dUbPI0C0gOI3BxKJRKvXHRjQ0yUrLV25ODtZWfPa2yUPHxZs3rQtLS1T16QHRVE6nRYeEbJg/uyo6DAGo6vOM4qiAQG+Xl4ecXEj/v33pGYgoDV7z+cL9+/7987tB2+/89rQoTEWlmxXV2cEeWI5VlxcJpPJyGTjvYZ7eLqSyWRsZ4FI1AYDhJgKKH5zIJVKtaRo3bPg9nK5Ij+vCDslEAh+ft5tbe3fb9h840ai3raRSqWMHDl0xguTY2OjqFRDLQjJZFJIaGBwSMDUaRNPn7pw6VI85rcHq0leXsGqz7+JiYlY9t4bfn7eFAoZ26QolUqLCkv9Owb56hZ0Op1Gp+K3FRmxfAjRCxS/OVCr1Vpz1Ap5jxzdNTe34DfzEAhocXHpqs/XPniQptdKz93d9bXXXx45YrCVNc8I51kIgkRHh/v6esXFjfjjj10ZGTladxGJxNeu3ayoqAoODtAqv7CouCfiJxIJZNKTjoNcLtd6+0CMBorfHKAoqhXHuoc7ZFNTMzqWJr98+bpuNhKJaGdn+8ILz7809wUOp6f+/Nhs1qjRQ4cMjb544drvf/xVVVmjtWpYUFCsa0GQn18EeoBCocQ39SQSkf14bhLSQ6D4zQGVQqHTO6zq1dTW9aTAwsKSp+ah0ajjx4+ZMWNSVHS4CV33k8nkKVMnuLm7nD514fTpi3ivoXqprKzuybC/uqoGvzeRzWZrrS9CjAaK3xwwmAwLCxY+pbi41OjSpFJpQZfNKZFICA4JfHHO9HHj42g0am84yQ0ODvDx8YwdHH3o4LF791Ikkk4n4Sorqxsamhwd7Y27UWlZBX6JlMlk0IwyhYboAsVvDhgMhlZ7VVhQIpfLdZfZDEEgaK2vb+jsqpUV77mxI19+eY6Hh1uv+samUChxccNDQwMPHDh6/NiZzsJ1CPjCpqZmo8VfVtbBkInNZkHHXqYCmveaAzab6e3jie97V1VVFxU9veuui1wuz8zM1qs0IpHo7u7y4YfvfPjhu56e7ubxis/jcZcseWX9t19GRIbq3W/b2Nh0/37qU10J6EUuV9y/l4JPcXJ2gF49TAVhzZo1fV2HZx8UReVy+dWrN+SyRzv5VSqVi6tzeHj3TF9lMtmBA0d++fkPXasbOp32/JQJq9d8HBsb1ZN1dSMgEolOTg7Dh8USCMSSkjKtdXi5XJGZkdMqbA0M6rY3zqSk+wcPHsNOSSTSrFlTo6MjTFPvAQ9s+c2Eh4cbFbfjFQBw5/b9boW1bW0V7dyxb+eOfbrKd3Z2XL7irZUr33J1ddb7WTNgY2v9xpuvfvzxMl/c3j4Nra2iQ4eO/bzx95qabkxzymSy+/dS8SlkMtnDw9UEdYUAAKD4zYaTk8OgQZH4lNzc/JTUDEP2qCmVyqrK6vXrNm7atK2hoUnrKpvNWrtu1SuvvNjnju4ZDPr0GZN/+Xmdt7eH1iWJRHr48IkVy1fl5xfJDbNxqKioio+/iU9xcLANCw82WXUHPFD85mPU6KH4fi+fL0i6c9+QBf/U1Mx16zaePn1R75vCxsaqu/6/ehUmi8njcfReysjI/vp/399ISHxqIQqF4vr1xLKyDjuCx40b3bVJMqRbQPGbj6iocLy7C4VCce7c5ZrqrnrCUqk0Iz3788++Seg8+i2V2u0IPL0KlUrhcvX3QVQqVUpKxqpV6y5diu96CrC5qeXqlRv4FUQOx3L06OEmruvABorffFhZcWMGReK9dzQ2Nu8/cKSznr9Kpbp65cZHH60uL6/swqCdyWIYt2TYSxCJxC7226tUKj5f8PX/vt+7958uej1XriSkp2fhU2JjI11cnUxZ0QEPFL/5IJPJY8aMsLG1wSfGX7uVmZGjm1mlUp09e/mnjb9pLXQjCKIVypbNYvUrn7ZEIpHB1HZSorV/ubGxedufe/bu+Uevr4GSkvKjR0/j33ccjuWkyeNY0LDXpEDxm5WQkMAZ0yfhU6qqqg8fPoEPdwEAUCiU8fG3Nv60taqyGp9OJBKHDY91c3fBJ9LpNGJ/6vaTSERrayutGFvTp0/SMnAWi8Vbtuz484+/tfQvlyuuXU3QMoIIDg4YMiTaPJYLAwcofnMzbdokG5sn3uzVavWlS/HJKen4PA/up2747lethTEikThhQtyHH75D6tiKMhgMUn9q+QEAbBZTy9Zg8WvzFy2ep+WkuL1dcvDg0V079+EHPuXlFUeOnMJHLkUQZO68mXCqz+RA8Zsbewfbl1+eg5erUNj63be/avz5K5XKGzfurFixSstPLo1GXbhw7rr1X9jYWGv5AmRbsPrVmB8AwGJrVwlB0HfffX3VqpVamwvF4rYdO/b+9NNWjQ/y9nbJTz9uLcEFI0AQZOzYUTEx0LDH9EDxmxsikTh+QlyAvy8+saKicv++f6VSaXJy+k8/btHaKkejUefNm/Xm0oUUCgUARK3usJeeQCD0t/4wgUBA0A5VkkgkCIJMnTZp+YqlWg655XLFv4dPHjxwTK1WX74Un5T0AH/VxsZ61uxpxsU1gHQN3NjTBzg7O767bMk7b3+ETXfL5Yp//z3JYjH37fu3rq4en5lGo6784J3Zs6dRqRQAgFqtEgo7DJLRfqZ8vWjsmkkk4syZU2xsrD///JuW5icvOIFAuHnzdr5AkHA9UWsJcM6L0wYPhqP9XgG2/H0AgiDDhg2KGzMcPwfe0sLfuPE3LeVzuJYLF81bsGC2RvkAAJVKhV8hI5NJ/dCPta5W29oeuTAkEomjRw/76KNlWo7MNMGLtXyBBAT4Llgwx+jQBpCugeLvGxAEee21BVpmsFoL/nQ6bdGi+a+++hJeSyqVCj8ZhqIomWLWbTyGQCQSUKTDT0vZ0e3X5Mlj33/vTb0hRjAcHOzefff1rvNAegIUf58RFOT/6sK5HI5+vzQsFnPa9EmvvvqiliMAuVzR0eAHAf0vgA2ZTNZyW4b3xgMAoFAos2ZPfXPpws6ci5FIxKnTJg4eEtOLtRzwQPH3GQiCPPfcyDHPjdS9RKVSpkydsHTpIkrHjYAAAK0hMZFIoPcg7I/50PeGmjlzyvz5s/QOW2Jjo1955UXot6NXgeLvSxgM+rBhg3UVTqPRIsJD9LaKWhG+1Gqg6n+urFEU1Rr26zVPZjDosYOj9Hbsg4L8+uFcxjMGFH9fUlRU8vvvu3QjZ/L5gj///Pv27bu6H5FKtDP3w5lwhUKhUnVo6ylU7RccACAjPfvnjX/U1tbrXjp1+kJqSoZuOsSEQPH3GXy+YNeuA3pdcarV6sLCknVrN6alZWmFytNq+eVyeatIj3l834Ii2uuPCNDuCFRV1Xz33a+pqRl6OwXVVbVbtuwwxEkxxGig+PuM06cvXLl8XW+MDQCAWq2uqqrZsOHX+/c7OLFDUJSCm95HUZRI6HcrYW3t7fKOG5AtLDv07XNz89d+82N29sMuvn5GRs6//57sxVoOeKD4+wY+X7Bn9yH8HDiBQHBzc8av/KtUqsyMnG++/rGiogpbBURRBB9sSy6X690Y17foblLGi1wkEm/Zsj0x8a5Wm+/s7Ii35JNKpUePnE5NzezVqg5koPj7gNZW0W9bd1ZUPNmxh6LosGGxf/yxcdq0ifiJLoVCUVxc+sHKL5OT0zRSQRAEv4FXpVIp+t+En1KpVHcc82smL1UqVX5e4erV312PT5Q99mUKACCTyVFRYTt3bZo2fRL+9ScSiTZv2qbrsxBiEqD4+4DU1IyzZy/jU+h0+oKX57i4Oi1f8daUKeO1dr/n5OStWb1BE/cKRVDtMJsGeAE0MwiCaE9DqtUAgIaGxvXf/nz5UrxWfn9/n08/W+Hi4rRw4Vxrax7+UmpqxoXzV2Bwzt4Ait/ciESi/fv+bWpqxlJQFJ3z4rThw2NRFLW25n2+6oOXXpqBX/9TKBSFhSVvLf3gyuUEuUKB3y2rVqtbW0Vak4J9Tnu7RKtKTBYzNzf/3Xc/SbrzAN/mAwD8/X3WrV8VFOQHAHB1dV6+fCl+eb+9XbJjx77OIoJAegIUv7lJS8tOSkrGp/j7+8yePR07JZGI77z7+tSpE7Rs2mtr67/77pf4+Jt0RoctbiKRWC7vIKc+R6xTpdzc/DWrN2Rl5mrl9PX1/vSz5V5eT8ycR44aOnLUUHzHob6+4cTxc71a4YEJFL9ZEQpbd2zfg1/YZ7GY8+fPcnPr4G+fw7H84MN3Jk4aq2X/U1lZveG7X0tx290BAMLW1n4lfrVa3dTUouWf74tV6zIysvETgSQSMTIybMOG1dHR4ficlpYW8+bN0grvdebMxby8gl6t9gAEit+sXI+/lZXVofULCQmMGzNC11DH0tJi5cq3p04dr9X+i8VtWtP7YnFbvxK/XC4XCoVaE/4tLXx8CoIgUVHhX63+yM/fW8slIQAgKMh/9Ohh+JSamrpLF+N1raEgPQGK33zw+cIrVxJEOHd9dDptzpxpncWctrOzWbp00cJF87oOv9XW1t6v5sNkMrlAIOwiA4FAmDlr6iefvu/j46k3A51OmzJ1gr29La5M2Y2bdxobm/XmhxgHFL/5KC4qSenoqy84JHDosNguPuLo5LBy5dtvvb3YtqPPXzytwlaZtB+1/Aq5QtTRHykeS0uLGTMmf/75Cj8/7y4Mk319vcaMGYlf9cjKzE2BBr8mBYrffNzs2HYxmYypU8Y/1UEVgiALF85dvmKpk5Oj3gwSiVSp6kctv1Qm5fP1xyC0tLRYunThRx8ve+q3JpPJw0fEcnGRf9Rq9Y2E26as6IAHit9MyOWKq1dv4FOcnBzCI0J1R7y60GjUGTMm//zL2pCQQN3gPBUVVVs2by8rq+jMVNacNDY2/3Po+MOHeibnHB3tv/zqw4WL5hninwNBkOjoiPCwDpH5bt68o+XqB9IToPjNRH5+ocY/L8agQVEuLvobc70EBfl/9dVHI0cN1UpXq9Vnz17+8ov1Fy5cM0FFe8CtW0lr1/64ffte3VBcEZGhn3++Yty4OMNLo9Npw4Z3GBNJpdL8/EITVBQCAIAOPM1GWlqmVuD64cNjtSz5ugZBkMAgvzVrPuFxOWfPXsILTKVS3b+fmpWVm5dXMG3aJHd3FzPv821sbDp9+uKunfubmpq1OiAoio4cOWTlB+94eroZ0s3BExMTQSKRsLUMmUyenfVw7NjR/SpC0X8X2PKbA7lckfewEL8gRyKRgoL9u1sOgiA2NlZL3njFzc1F65JarW5ra9+5Y9/qr769ezfFkMjfpqKkuGzDhk2bN21raGjUHXpwOJZz58309vborvIBAK6uzoGBftipUqnMyc3jd/RrDjEaKH5zIBAIq6tr8YL09fXqbIXvqdjYWHE7iYGtUCju30/9/LOvN2/eXl/X0KtLgJqQmydPnluxYtXZM5c6i7rL4VjY2dnqvWQIEREh+NO6uoYWKH4TAbv95oDP5zc0dNiaZkSzj0GlUj3cXW/dTOosQ3V17W9bd968cWfBgtkjRgzhcPU7yewJYnHbvXspe/f88+BBqpatvhZ29rb4FfvuYu9ghz9tb5NIoKmPiYDiNweSdokmHBWGlvlqd3FxeXqw6qys3O+/33zvXsprry3w8HTrye20qKqq2bv38MULV2tr6586vvDwcOuJNz5XFycGgy4WP3L7LxaLtaZOIEYDxW8OZHKFVoA9Lkd/v91Awjt2hlEUtbO3FQiE+Gi/arW6qan56NHTN27cfuWVlyZOes7R0b6HE4H8Fv71hNs7tu8tLNSz5EYik+xsbWpq6hQ4Nz6ODnY9uSmLzaTTn4i/tVWkFb8UYjRQ/OYAQQAAppx+d3NzIRAI2JCeQEDHjRvl4eG2ZfOO+voGrcwNDU2bNv2ZmHh36rSJEyaMMS7unVyuuHcv+d/DJ27eTMKkiIdGoy5evIDLtdy48Te8+L06BibpOTQq9OdtGqD4zQGJRKJ0jKvTw604DAbdycmhrKzicWmKpsbm95a9ERERsnPHvuvXE/l8Ab5DLpcrkpIepKVlHj1y6vUlr4SEBPB4XAPvxecLSksr9uw5dCPhjlgs1u3ns1jM0LCgN954NTQ0cOfO/VrRxHx9vXvyTaVSmVzx5FkRCAQaHYrfNEDxmwMikai1Oa+0tLyzzAbi4+uJiR8AUFFR3dzM9/LyWPXFByNHDd2z+1B6erbWbL9EIk1OTi8oWBMaGrho8fyIiBBtp0AdUSqV+flF27fvuXc3pbGxSW8eZ2fHJW+8MnbsKA7HUiQSFeQXyuVPmn0HBzsrK0PfMnqprKgSCp54OqTRqFSdMAcQ44DiNwcsFpPL4+LDzvfcKbWra4el/vr6huaWFidnByaTMW7caF9f7xMnzp04cba+rkGrrRYKW2/eTMrLK4yMCpsyZUJMTCSDQdMalkul0rS0rPPnrty9+6CsrL3DIBcAACAASURBVFKv4TCDQZ86dcL0GZMDAvw0r7amppbKqhp8HryXDuPIzsnD393Kmmdh7BIpRAsofnNga2vj4+OZkpyO6TA5Oa2qqqYnc/7h4cEUCgXb4l5dXZufVxQSEggAQFHU3d3l/fffGDYs5sCBo3eTkpubW7Q+Xl/feP7clatXbgwZEj19xuSwsGAbGysURVua+VlZuVevJpw7d0UrwB4Gi8UMCwue/Py4yZPH4Xs0DQ1NdbgIHCiK+vn3qM/P5wvu3e3gudzOzobbCyuXAxMofnNAJBK8vT3JZDKm1fZ2yenTF5YuXWR0mU6O9o6O9sXFpVhKVlbOrNlTsVMURaOjI7y8PO7fT93998HU1EzdBlwmk12/npiWnuXn6z19xiQHe7v9+4+kpKQ3NjZ3tobn7Oy4aPG8554bZWXF1TLaq6mpa2p68pahUilBQcabMwAAkpPTS0rK8CmODvacni2UQDCg+M3EiBGDd+3cV1n5xF33yRPnoqLCIiPDjFsJs3ew8/HxwIv/3r0UuUxO6mj3zuFYjhs3euzYUefPXTl48GhBQbHuflt+iyAp6UFS0oMubsdg0F1cnCZNHjd//qzO1gvu3L6Hn2Vwd3fVGpsYjlqtrqio+vuvA/gXFpvNiosbrjV7AjEaaN5rJuztbePihuNTKiurt23bY3TIDQaD7uPjhVdCVVVtUbH+qQQEQSZMHPP9D//7fNVK3y69aOjF2pr39juvbfx53aJFcztTvlKpTEzsEFzQzc3F1ta6WzfCkMlk+/cfycjIwSd6errFDo4yrkCILlD8ZoJAIEybPgnvlF4uVyTeurtu7U+G2MnpLTBmUCR+ul4qld5IuNNZfhRF7e1tJ058bsOG1QsWzDb8RkOHDtrw/Zq5c2e6u7t0sQ0xO/shfs8yiUQKDvY3zqZAKGzdsX3vwQNH8U77yGTSrNnTGAwYutdkENasWdPXdRgosNksSbskIyMH6xur1eqiotL8/CJHR3t7e9vuNsgcjuXJk+fxDvOIRGJc3DC9Pv+EwtYHD9LOnb185MipxMR7EomhRrKNjU2FBSWVFVUisZjBoLNYTL3ZDh44+uBBGnbKZDLeePNVO7tOvY91RnFR6ZatOw4dPIa3iUQQZOTIIa+9toBGM+ZtAtELHD6ZDyqVMnferOSUjLu40bVCobh9+15JSdkLLzw/ffokaxtrwzer02jU8IgQ/Gp/WVlFcXGZZs5fLldIpVKpVJqd9TAp6cGdO/cbGpr4fIGiYwjNp9LeLklPz8rIyGazWVZWvJCQgGHDYyMiQhkMOpVKIZFICILw+YK09Cz8p3g8boC/r+F3USqVLS38hOuJf/11sKysHG8sAABwcXFa8sarmphfEFOBmHPjNwQAkJub//FHq/W6o7KxsZ4ydcKgmAg/f28rK54hG+AvnL+6fPnn2CmZTFq27I2IyNDKyuqCgqKsrNy8h4WG7IFFEITH49JolJqaekPeDjQa1dPTLSQkyM/f28XZqbGp6ccfttbWPrG6nztv5urVHz+1HABASwu/sLAkLTXzxIlzxcWluj9IGxvrL7/8cOy4UYaUBjEcKH5zo1Kpku48+PrrH/Qa+SEIwuVyXFwc3dxcIiJCfXw9HRzstcLX4cnPL1q08B38ApuNrTWJRGpqbDa8Y+/j4zlp8tjIyDA6jZqdk3f2zKWUlHSttrczSCQih8shk0g1NXX4qf6NP6+dNGlsZ59qbRVVVdUUFhYnJ6cXFhRXVlbX1zfq9T5gZcVd+cE7U6dO6JbXI4ghQPH3DVVVNatWrc1Iz+7MBwYeJpNhbW1FIpGoVAqdQVcoFKJWkUwmEwpb+XyBEYH6EASxsbG2sbEaNChy4qTnfH298NJSq9U1NXUXLlyNv3azuqaurrbOuFtYWLBZLCaNRmMw6VQqRdIuFYvblEpFczPfkM4IhUJxc3NZ9cXKmJiI7t4dYghQ/H1GVVXNieNn//77oNGrfUaAIIiTk8OQITGTJ491cnbsYpZRE3WrvLzy9u171+Nv5XQ0s+1tiETCtOmTX3l5jq9fj2wEIV0Axd+XyOXy9PTss2cvJVxPrKmp643/BYIgLBbTwoIdEhIQGOQfFOjn7eNJp9MoBm+PkcsVbW1tpaXl2VkPs7JyMzKym5v5AoGwl3yEcTgWsYOjp0yZEBsbZdxKIcRAoPj7HrlcnpKcfunS9dzcvJycPInEBG6qKBSKk5ODu7uLq5tzcJC/t4+nq6tzz4fNmhFBQUFRVmZuQWFxSXF5RUWlISOXp0IiEX19vb29PUaOHDpkaAybzep5mZCugeLvL0gkUoFAkJ2d9+B+anJyenl5pVwuVyqVCqVSIVfo/TehKIqiKIFAIBBQiUSK75bHxkZ99PEyR0d7BoPRG/awSqVSLG5raeFv377n6JHT+OrRaFSVSq1SKZVKld6RAoIgRCKBQCASCAQymcjj8SIjQ8MjgmNiIi0t2HQG3eS1hegFzqD2F6hUCpVqY2trExc3XK1W19U1lJdX1tbWNzU119TUSdolMpkMm4GnUMgkEolOpzGZDJ4Vj8mk79n9T0ZGNlbaw4cF7W3tRjsIfioEAoHNZgkEwqzMXLzyeTzuhx+9q1Qqm5qaW4UisVgskytkUqlKpQYAEIgEKoVCJpOtrXnWNla2ttZOTg5OTg66YYggZgCKvz+CIIidnY2WeZxcrsCG2SQSES8YhUJRX99YUFCEObfk8wUXL16Lig7v1Xpevnwdb7BAIBDGjBkxceIYvNGxSqWSy+Wa9wOBgJJIMN5GfwHa9v9nIJGIVCpF86fVVBKJxLi44Z6e7vjEY8fP3rjRi5Eti4pKD/9zAj/t5+hoP2v2VC3vQCiKUiiPqg2V36+A4n9GcHFxGjduND6lTdx29uzlXlpHVKlUt24mVVfX4hNDQgO1XkCQ/gwU/zMCiqJTp03Ea0+tVt9OvBt/7WZv3C41NeOfw8fxvjq5XM7ixfMZcLruvwMU/7ODnZ3NlKkTaLQnve6GhqY9e/9paNDve9NoxGLxzh37SnB+RIhE4vgJcQEB3djJA+lzoPifKcaNG6XlKjs3J//UqfP4JrqHqNXqq1dvJibewy8+uro5T58+yVS3gJgHKP5nCg8PtxdfmoEPj6VUKvfu+Sc+/pZJDPJUKlVmZs5ff+3Hu9kgkYgTJozx9/fpefkQcwLF/6wxduyooUMH4VPq6xv37D7U80gBAAA+X7B9257CjvuRIyJCX3xxhl4PIpD+DBT/s4bGhY4frh1WqVTJyelbNm/vYZQ7obD199//unz5On63r6Oj/etLXrGxsepJyZA+AYr/GcTb22P69EmMjrFx4+MTt2/breu610BkMtnxY2dOnTyPTyQSiWPGjIiMDDW+rpC+A/rwewYhEAhubq5SiSQ9PRuzvVUoFA8fFggFrWHhwV1H6dJFKpXu2L535679Ar4Qnz5+Qtxbb73G40FH+v9JoPifTahUirePZ0ZGTh0uXJdKpcrLK2hp4Ts7Oxqu2Orq2kOHju/cua9V2MFeyMPD9ZNP3vfyglY9/1Wg+J9Z6HSam5tLVlZuY2MzlqhSqQoLSlKS00PDgthsVtc7ahQKRUN949pvfjx+/IyWUzAej7t8+dKhwwYZF3EE0h+AW3qfcZIfpH388ZqqjvEzAQAWluwpUybMmDHZy8tDK3w4AEClUlVWVl+8cO3w4RMVFVVaV+l02qefLZ8x43kYPOc/DRT/s8/Fi9e+37BJV/8Igri5uwQG+sXFDQ8K8re1tUZRQlNTc0lx2bVrN1JTM/Pzi3Stg+h02uuvv7zkjVeh8v/rQPEPCDIysv+35vv8giK5TG50ISiKurm5rFj51siRQ+Cq/jMAFP9AISMje9/ew5cvX8f2/HcLMpk8KDbytcULIqPCYJv/bADFP1BQq9VtbW3Hj53dtWt/U1ML3j63a0gkIpfLnThxzOtLXuHxOHCG75kBin9goVQqHz4suHL5+tmzlysrq5/qjdvG1nrc2NGTJj0XEhoIw2Y8Y0DxD0QkEmlZafnt2/evXk0oKiqRyuRKhVKlUqrVAEVRIpFAIpHs7GxGjho6evRwHx9PuEv/mQSKf0CjUqnKyytLS8vr6xv5LQK5XM7lcXk8jpOTg7e3JxzbP9tA8UMgAxS4sQcCGaBA8UMgAxQofghkgALFD4EMUKD4IZABChQ/BDJAgeKHQAYoUPwQyAAFih8CGaBA8UMgAxQofghkgALFD4EMUKD4IZABChQ/BDJAgeKHQAYoUPwQyAAFih8CGaBA8UMgAxQofghkgALFD4EMUKD4IZABijG+mSUq+dnaB6mC4hpJS7NcxCBQHGm8SAvPibYRLCLN5FWEQJ5VHvALs4TlmuPp9oMsSQxz3r174m9VtP8v759tpZdaFe26V+kEynLPKV/6zqGiJBNVr79TLWn+LGfftwELHKjcvq7LwOLZePKHqm79VHhScxxl6WVm8Xej218grom8/sFPhSf1Kh8A0KaUrs8/Mu72mjaloXHg/rtIVfL1+Ud8r76zpyJeBWMfmBH45E2FoS1/rZT/XOLq8vYGLIVDYkZzvNhEekV7Y4qgSK5SatJvNuW8k7Htr/Blpq9sf+K9zB3bSi/1dS0GIvDJmwpDxf92+p+Y8plE6s9Bixe5jCEgjzoOZW0Nb2X8cb4uRXO6uzz+A89pQWwXk1e3/yBVGh/oHtITnqUnv9Z//hc+szXHbKK5AyIaJP77/MLjNUmaYxJKuDR4zWCuLz6DK936RMxnw25+dp9fCABQA/XBqpvr2PO1yhErJfdbChtkQksSI5jtakex1L2XRPXoX0tCCJqXS7G4Lqe1QglUgSxnL4Z9Z5V8auFqoJaqFJpjMkJEESRTWFYgrnGj20RYeOBz1ksFmcKyJlkrAMCSxPBlOrrSrbGrKrVaplYo1U/i20pVcolKTgAoCSV09/vqRa5SKoEKAIAChIwSAQBNstYUQXGrot2bYR/Mdu3sgyKFJENYWiNpkauVTALVnWHjz3RGOwbV1ipcrJTEN2QRUUK0pRePzMKyKdWqTGFZWXtDm0JKJZAcqbwQCzet2RyFWqlQd6gnXy6+11IgUkq8GHYhbDd8aUkt+TWSZluKZQzHm9LJrJBSrUrmF1W0N1IJZC+GnS/TEX/VhE/e8B9D158CAKQKikva6llE2iCOt66ApSq5ZmRCRFAiQqiSNN1rKeCRWYM4PhSURERQKoGsydlZ6PPStvoicW2LXGRFZodbeFiQ9Lwjur5LZ1/HoFh9b6b/jnW03vd4/pfg1/Rmu9qQcbTmThjbPdzSI5jtiv+hCBVtq3L27yi7jGkbAcgoq6CNQYvCLNyxbHy5mHNugeb4r/BlQ7h+S9P/iG/MxDIM5wXsDH/Xu+MrwMDCH/ALoxM+0hzHD/3mSPXtrSXnNacv2McejfkEAJDbWrksc/u1hkw16PBYIi09fwt5M4bjDQA4Un179v0fdL/+fKcR+yJXdKtKnbEg+ef9lTcAAKEWbkkjvv84e/e20kvSx0UFs13/DH1L6/0rkLd9kP3X/ooE7I4aHKjc7wJeftl5FJbyfNLas3XJAICRVoGbg5eMu72mVsoHAFBRUsKwdTEcbzVQ/1Bw4ofCE40yIb4oBoG6zGPSGr+XsN/T8sydvxafAQB4Muyy4jatytm3teQ8Vs9BHJ8DkSs9GLZHq++8l7mjWtKsSeeRWRuDFr3iPBpfuBqotxSf+yb/cIP0yU19mA7r/RfMdBisOTXhkzfkx6BLobjG+8rbmuPjMZ/yyKw303/Pba3UpFBQ0jKPyev852vegxqYZ+aKlRIAwGrfF32YDgtTN2kGyA5UbtHYP77I3Y9N+GWO/lWrs3y4KvHHwhOaBlUDESFMto38NuBlf5YTPmfXd+lsAt6gCb8LdanY8SKXMZ1lG2Md8lvIm2+4jYu29MLfr0nWOvzmqi0l5/C/SzVQxzdmDrn56YX6VH2FgTRByaAbH+OVDwC42ZQTl/glfsbRuMK3lJzD/tkAgAhLTwBAsbhu6M3PrjZkaCkfAJDMLxqV+EWmsKyz747HuCrpRaFSTUlat7n4rBRXVKawLC7xy8sN6ViKTKUYd2fNzrIrWsoHAFRLml9J+XVn2RXdwoXy9un3vtUoHwBAQomaPsXyzJ2f5OzRUj4AQKyUfFdw7PXUrbpFSVXy55PWbiw6ha/n3Zb88Xf+tz7/yKz732PKBwA0yVpfTdl0pvYBlqIG6leSf30vcwde+QCAfFH1rPvff513WP/T0cGEP4ancqUhPS7xK0z5AACpSv5j4Ykpd9cp1Erd/CmC4kWpm7GpsQCWcxeLYiq1+vW0rS8++BGvfACAQq08WXsvKuHDk7X39H6wW3d5uvgF8jZstE8nULroc3bG4tQtGcJSrDYrPacucBqp6ae1K2XzkzfWPf794fm1+AxfLh7C9fvU+4W5TsOxvmtle9O+ioQeFn60+g7+dJ7TcADAiqxdLXKRJmWcTdgqn1nvezzvwbDVpLQrZVtKzgEAKCiJR2bhe1McEpNHZmE2DsZVSS/ZreVXGtIpKGmGfewilzHYspZEJV+Q/DNW260l5+61FGiOA1kun3i/8JHX9KFcP6yc7wuP6xaeKiguFtdhpzPsY2kEcoqgeHPxOU2KNYW9zGPy5z6zZjoMxuZ39lUm4JWsobK96WpDhiOVt8Jz6jKPyQwCVZNeKK5ZlbsfAcgUu+iPvWcEsp60bGvyDmHHvxSd3lf56H9qRWYvdRv/jvtEG4qFJmX1w4OX6tNArz15vT+Gp7K15LxCrfRjOr7uOnacTRgCHv0+L9WnbSjQ87RP196XPR4yPPUua/P/xb+vIyw8nreLcqLxNKdtSulL939M5hf18C5PH/Pjn5cVma01gEwRFKfoqwQFJWm6mvf5hacev6XGWIecjf1C88973XVs3O0vVWp1s0y0ufjsWn/tCQIAwJe+c772m6s5DmG7fZazV3N8n1/41uMDowuf5zRiU/DrAICL9anudFupSi5UtFmSGHy5+FXn0X9HvKfJttrvRZdLS0QKCQAgW1gOAJhiF904cc/ClE27K+I1eTJG/4L9Y3pSJb1wycyEoes0HUKRQjIx6etbTbkAgHqpYHvp5Y+9ZwAAStrqHajcakmzH9Px/sgfaI+HkcNufpbY/BAAUCCqkauUWgNjAACLSDse8+kwnn8yv4hOoAAAMgSl3kz7QnENAUFvDfvWh+mgybkqd//6/COa45zWCt3VdR+mQ9KIDRwSEwAQynZ7Pe1JB+GX4Nfe85gMAPjSZ47HlTc1zXu6oFSlVqMI0q6UrXtcsi3FMnnUj45UHgDgS985Edc/0Lxovs77Z5xNWO89ea0fg4H/mrfcJ2wJfkOjiOM1STPvfa/pM24sOrnScyr2X8AIYbsdjv7QmWZ1ti55nHVYZ8WWtTV8nfeP5phOoByL+WS8TTgAQKFWfpaz78fCEwAAiUr+bsa2OyM26H7cwLsAQ1p+/IuEiGrnP1Vzb0nab7p/yzK3azIcrkrEMq/3X4C9tkdaBT5vG605/geXB8OWYvmV7xzsdIHTSOy4Wdbaw8IZBOofoUt5ZBaPzJrnNAIAQEFJ8UO/aZm0r2zctp+DF2M5LYgMZ5qV5ligaNMtSgujq9QZX/m+iA0FmUTq9rB3sEtn6h71nDcFv141fmfTxL2XhqzB/+YCH39QDdRCfZVf7jlljHUIBSUN4fpphsQLXeLyxmxtnXwwa/QmTPkAgCBcoy2Q6ynqQ6/pGuUDAIbzArB0RyrvXfdJWP0jLR51qhVqpWb4dq0xs+nxP3Sl51SN8gEAthTLD72maY4Tmx9Wtjd1+owAACb9MRiCLcXyl6DXsLZwhn3sHMehmuNmmehOS57uR34OXuzLdKQTKLMdhuidt9PwV/lVbFLzY+8ZGuUDAIgIYUPAK9g0alJLfpqgxOi7AENafvznW2Tip+bX4j6/ADsWKSVJLfnYKZf86LdSJK4VKtq0ZkqD2a5E5ElLZUd9MmGLDSyNLnwI17czS2QXmrVMpbjTnPeAX3inJe9aQybW91Go9IzlTPV9O2OSbST+1I/p6MGw1XTX0wWl+EtcMpMDGDmtFfdaCu625Mc3ZuWJqrCregeiEx7/sLSgEyg+TIcqSdOd5rz7/MKbTTnYsKKzokJw40E27jcTYuGK7y3ijdg05dzHlYwiCP6J4X8AqYJirJHXS2/8GLpgjHUIfmIPADDZNvKfqlua43RBSZxVMP4qFSWN5AUaUvL1pizs+HXX5/CXUARZ7DpmeeZOzWlCU7bW/LHhdwGGiN+RyqOiJM0MSotcVCNpsadysKuWJAZ+GaysrUHr4/VSAXY8JvErvbdQA3VFeyN+QAhw/7BHFUUIKIJoLLqw6TijC8cacy2uNmRsKj57uSGtXSnTvYoiT+8oGV2lzrCncLRSHKk8jfiFijasM58vqv6x8MSxmiSsFdWuvL5ent7nIJC3bSw6eaDyZqG4Rn9R+p4D1uwDAIi4DFxSh/8jAXdJ00mulz15Yh9l79Z7RwBAeXtjZ5c0mPzH0DV4FWhwxL2bdP8LDjQuwYDfDwCgvO3RN6WiJN3hFX61u0qnN2T4XYAh4kcRZBDXJ6ExW3N6vj5lMW7Cf7nnlOWeUzTHCrWSdGqW1sfxq7Jd0KYjNhKiPUBFAAI6zsMbXbiFPiPqdflHvsjdj53yyKxYjs9Iq6BtpZc0MkA7W4o1RZU6Az/s0oAtRiAA0VTpakPG80lrsSluKkqK5ngP4/pntZafrr2vSdRbed1uYbWkecjNT7GXOIogwWzXIVw/GkreWHTqUSLQU1RnD4eo83/UwuAn9hSbcdP+GJ6Knv8LbtVcV4EWREPvQiV0tTWGgutu9OQuwEAjn5n2gzHxbyw8tcBppFaHpwusyOx8UA0AICBo/YTdnX1QM9vUXYwunKKTM19U/WXuAc1xMNt1W9jbgzjemilcbHFBb+Npqip1RqG4JobsjU+pan802c4hMwgIqlSrFqdu0SifTaTvDH9nil20ZsT7fuYO7FN6xalrAfJx9m5M+Wv957/lNkHTBTtek/RE/Aa8BA3HiszGjk8PWjXKKkhvti6MVbByTPVjMATdblGV5Ek7jP9S3b2LA5WrWUGUqORV7c1ag518UTV2rNtn6dZ3MaiH8LLzKGyolt1aviTtN71v2UOVt3QTMXsppVqVL65mEqnY3+WGtDsteUJFG5NINe73ZHThuq/MC/WpWIv6U9CiWI4Ptniju+INOnZ98XYBJv++R6pv408LxDUlbXWP7+UJAMhuLcfWYt/1mDTLYQimk8ZOhgAYus/h3GMb7SFcv1U+s7DB11OLMhq8RV1Wazn+iWUKy640pNdKW+gECrZUYfInb3g/Gc/1xiytvv3F+rQnldExFjD8Lvg12j9LL+IvqYF6b8V17DTOOsTouwADxW9JYqz3X4Cd7qmIj0n46HBVYo2kpU0pLRLXbi+7HJ3w0cspv+h+dpbDEOz4w6y/NHZIAIB8UfVLD34ad3uN48XXhtz81PAa91LheMOhctzMxaGqW9iytgxnOoJfNquRtIDH/UCTf99NxWcvPf5ViZWSpWm/Y5dm2A8CALQqJHprXiiuOYUzBdHtpuoFew41khbMVqRNKf295EJ3izKQCbbhTOIju4AfCo9jr7Z2pey1tC0z7n3nfeVtzrkFmP2P2Z5817QrZa+m/IoNRs7UPjhUdVNz7EDlxlh6d/7Rp7DAeRTW8PxUdBL7J8pUiuWZO7GJzLHWoX4dzZ+7i6GdhLfcJyQLijDDgxRB8YsPfuwiP7bAONIqcIx1yNWGDABAYvPD0PgVM+xjEQB2V8Rjv6H3PZ43rvYmLDwcN2u6MuuvBpnQlWZ9rTHz7/JrWHrzY6MaAIAN2QI7nnDna0ca14thfzzmU5N/X6lKPuHO1yOsAuwonITGLMwgz4Vm/arLaABAIMuZhBI0Qt1fecOSxBjOC8hqLd9SfE6Eey80y0S2BmwuCLdw11iVlbTVTbm77lXn0Q0y4daSc/jeZrNM1HkB3YZBoH7i/YJmzNUsE4XFr5znNNyWYnm85i5mPzfPabg15VFH2mxP/qmcrUv2vLx0pFVQnZSf0JiNdUM+9X5B16TCcLwZ9h96Tfuh8AQAoF0pm3b320CWiwOVky4sxSY12UT65pAlPax/N0YI28PedqVZf5N/WN7lipcDlfuN/zz8pOCByJUjbq3SLDsViWs1VgoYH3hNe9FxWDer/QRTFT7BJmIw1/dOcx4AQKhowwyKUASJsvR6wC8EANRLBbVSvmaXyCiroLX5/2rytMhFLXIRCSH2xvedaBtxvi4Fm3PRwCLSDkV9oDGksyQxVnpO21BwDGgs5EvOaSwRAQAxHG9siS5DWKplEK6XNX4vPZ+0TvM7vlifevGxSWwQ26VYXKdp6DArOlPxmffMNEGJxtJOqGj7o2Nfd6RV4A+BC7FTsz35rhnK9csQltVK+djynoY5jkPf9ZjUw8LXByyokwr2PLZlym4tz24tx65yyczjMZ/69qzZB91y5oEA5EvfOdlxm99yn4CZXmKwifSZDoP3R64oGfvn4o72/zYUi7sjvl/hOVVr9c6Vbv1n6Fs/4v6vRmCqwlEEOTPoi1kOQxDcVHaYhfvlIf/bgbOrOVh5Q3MwxjrkY+8Z+CGWXK0wbZU07I1Yvtr3RbzpznBewO3h3+E39qz3X7DKZxZ+Ksueytka8kbi8G+xmacDlTcNud0k28hDUR/g17E0DpruDN8wzuZRb+5ozR2pziaCnkBA0MNRH20NeUPLuo5NpH/gNe1c7JfYuACY8cl3TZSl163h66MsvbAUCxJ9nf/8A5ErEX2rId2CiBB2R7yn6c7gS6MRyK86j04dtXGEwYv5XWDQrj5d1EBdIq4vbqsVKSQcEtOOaunJsHvqoo5CrcwWVtRJ+SqgdqPbY2GmGQAACUJJREFU+DIdev6YTF54nZSfKSxTqlVeDHtPhl3XmRtlwjRBiRoAJyrPj+WodUejq4Tt6gMAtEzaZ0liiBSSFEGRRCnX2l+MR6yUpPCLWxXtDlRuCNutJ3PyCrUyXVBaK+VzSIxwCw9dS9Xeo1BcU9He2K6U2VIsg9munU3a99KTf2rdsF192PbWh6Kq0rZ6CyI9wtLjqUsSRtAoExaJa5tlIh6ZpburuicYKX5Ir6Ir/r6tD0SDXvH/d4GuuyGQAQoUPwQyQIHih0AGKHDM3x9JaskvbavXHM+0H9yTRWOICREpJNg2al+mQ3jn3v7+E0DxQyADFNjth0AGKFD8EMgABYofAhmgQPFDIAMUKH4IZIBijA8TiJmpbG+68jhERyzXt4e7uHtOobgG8+0RwHJ6qifSeqmg+PEufScqr2s/nACA8vaGaw0dgrX4s5wGcXy0sqUKirVcmA7l+Xt3HtANogUU/3+ANEHJotTNmuPNIUv6XPxf5B7A9rHGD/2mM8dbGMdqkt5K/0NzvNr3xTV+L3WdP4VfjH1fDcN4/jeHrdfK9tXDg/iwPwCA7WFvQ/EbDuz2Q/4D3G3JxzsmAQAo1EotHweQ7gLFD/kPIFcpE5o6SP1eSwHe8xrECGC3/z/ABNvwlkn7NMfGuTn+74IARONW6EpD+mRc/JIrDRmaAyyaA6S7QPGbBizoPQCgsyD2AAAKStTyKiFUtKULSuulAqVaZUGi+zGddH11oOBJFHe8BxuZSqECagAAFqC+SdaaIigWytvc6DYRlh6debCQquR3W/LrpAI7iuUgjg8ZJeqNPN8fCLFw1czqXcFFJQYAXH0s/hC2m96oVZCnAsVvGpakbcWiR9ZM+MsO5yrzw6y/NUHsAQAFz/2GRVypkbSsyNp1rOaOlk/EILbLz0GLn7MOxVLO1SVPubtOc7w5ZAkW+i7mxkcaYbzqPHpTyOsfZP29u+IaVpo73XZryBsTbSPwhauB+oeCE+vyj2Ch+6zI7B8CX43l+vpffVeTcjzm0+n2g3r2PEzGaKtgzXfMEpZjDhTblNKkx8HwRlsFQ/EbBxzz9w3NMtGwW5/9U3VL1xtqlrB8ctLac3XJhpfGl4tH3vpiR9llfGklbXVT767Hx9gDACxO3fJJzh580M5GmXBR6uaNhSeN+h69TizHB+tJXal/1PjfaMrROORFADLSygTe7AYmUPx9w4bCY5p4e2SUuNxzyu6I9/ZHrljmMVnTq5epFO9mbDcw/hQA4GTtvTRBiTvddqXn1HfdJ2FBuBRq5U9FT1S9ryIB80SOAGS6/aAvfee8YB+LAGR72WVTfj3TQUFJgx8HscB6/thBMNuVR2L1Tc3++8Buf99w4/Ey1WTbqJ+DHkUEn+c0woHK/a3kfJiFe5iFe4tcpBv1qTOesw49E7tK40ByntMILDrF/ZZCLM+GwmPY8d8Ry15xHq05Plp9Z9b973v2hXqRUVZB8Y2ZAICrjY/G+diAfxRs9nsAFH/fgMWcOlV77/W0rbMchozgBdAJlE+9X/jU+wUjCtwYtAhzHTuY6+vJsCsS1wIAmuWPTPGqJE1Zwke+32M5PpjyAQAzHQZPso3s1kDDnIy2CloNAACgsr3poajKiszCDPtGdwyDDekWsNvfN4x9PJ+nVKt2ll2ZeOdry3PzY298sip3vyZgTrcgoYQgdoew09iMo1T5yMF+pvBJ1Addm7zndKK+9R8GcXww3+FXGtKvNWRqFv8QgJjEff2ABYq/19E7dP/Ye0Y0Lt4DAECuUt5tyV+ffyQm4aPI6x9gIdkMgUNiaq3qYb0AbAW8BRdjS3c0YUfRjjbffyCjxCHYsL8+HRvwh1q4aQXngHQLKH7To+qodrlaT3QzOoFyY/j6HwJf1Rt0KUVQHJf4ZRaure4aLF4VBqKzUI9futeNt2PaCDwmB+uqXG/KuvxY/E/dUwDpGih+04AXm0TZQUgCuVjvR6go6UOv6Q/HbMmJ2/xz0OIZ9rFYLEoAQLtStumxdYBJwEfgymmt0LqaKSwz4b1MDja2F8jbMNemo6H4ewac8DMNeKvbJnmrB3gScy5bR2kqtbqsvf5ha9VDUWUw2/U561B/ltNyzylqoD5Ve3/63W812TQzdqYi3MKDjBI1y+Nn6h40yoRY579FLtpXmWDCe5mcGEtvOoGCxcMGAKAIHPD3FCh+04CPfn2o8iY2nv+z9KJuo5orqgi69r7mOIjtcm/ED5oJLQQgsRwfzJod31b3HBaRNtUu5kj1bQCAQN72fNK6P0Pf8mc5pQqK307/E4v93F2S+UUKfeMaAACKoHE6s/HFbXVahrp4oi29MSMFPCSUMJTrdxn3wTC2O4xi1kOg+E3DCF4Adryx6NRDUZU/yymZX3S9MQsTM0Ygy2WqXcyp2nsAgCxheVTChy87j7ImsyslTbvL47HMLzuPMm0lv/Gfd7buQbtSBgC425Ifdn0FdomKkiRGDfs/zP67s0sEBFVMPaqVuLfi+t6K65195Oaw9cN4/novjbIKwosfDvh7Dhzzm4aRVoH4Xui5uuSfCk9eb8xiEKhf+s7Wzb8r/N1gtqvmOKe14rOcva+nbV3z8FDJY483yz2njLcJN20l/ZiOByJX6oZ5DWK74B1s6E4W9ge0lvThCn/PgeI3DQhATg767CXHYdiuOwQgY61Dk0f9GG3prZufR2bdGfHdKp9Z+PGChiC2y77IFZjZn2mZbj/owagf5zuNsKdyKCjJm2H/pe+cuyO+55GfGMmSddYO+gPRHC8mkao5JiDocFxXC2IcMGKPiamXCnJaK1RA7cd0dKByn5pfpVYXimvK2xskSjmLSPNhOph2qI9HplJ0Fu5+S8m5ZRnbNce3h383mOvbS3WA9B/64zv+P40NxcKGYmF4fhRBfJgOPkyH3qsShveVt6UquSvd2pVm/bb7RPywOZVfjB17MuzMUBlInwPFP4DwYzleqk+rk/LvtRRkCst+ClrkTrdtkYtO1d7HnBFEWnp26+UF+e8Cu/0DiMsN6eNv/09r6QEPApAzsasm4bxlQZ5h4ITfAGKsdejuiPc6c7PPJtJ3hb8LlT9wgC3/gEOoaDtbm5wsKKqWNIsVUhqBbEuxiLL0mmYf89TwG5BnCSh+CGSAArv9EMgABYofAhmg/B8ffEwbjZsFAQAAAABJRU5ErkJggg==;" parent="1" vertex="1">
          <mxGeometry x="397.2199999999999" y="239.99999999999994" width="103.01" height="64.84" as="geometry" />
        </mxCell>
        <mxCell id="ygFGr8_wO-zUAzRDIiU--10" style="edgeStyle=orthogonalEdgeStyle;rounded=0;orthogonalLoop=1;jettySize=auto;html=1;entryX=0;entryY=0.5;entryDx=0;entryDy=0;strokeColor=light-dark(#009900,#EDEDED);" parent="1" source="ygFGr8_wO-zUAzRDIiU--11" target="ygFGr8_wO-zUAzRDIiU--28" edge="1">
          <mxGeometry relative="1" as="geometry" />
        </mxCell>
        <mxCell id="ygFGr8_wO-zUAzRDIiU--11" value="" style="shape=image;verticalLabelPosition=bottom;labelBackgroundColor=default;verticalAlign=top;aspect=fixed;imageAspect=0;image=data:image/png,iVBORw0KGgoAAAANSUhEUgAAAIMAAAC7CAIAAADJ1rrxAAAACXBIWXMAAA7EAAAOxAGVKw4bAAAdBUlEQVR4nO1deVwUR9qunnu4BpkBBlRAIsqhIiAaENS42ayfx09hBAEVImgO1+zqbn672c1v8yW7m2+TmNVovFBRwAiKMRqPaBIQUZEVEeUQAYdL5JKbOWDO/v4oMkGkh+6Z7qF3d56/munq6qKf7nqr3nrfpxAURYEVNABjohtgxTCsTNAFViboAisTdIGVCbrAygRdYGWCLrAyQRdYmaALrEzQBVYm6AIrE3SBlQm6wMoEXWBlgi5gGT+t0Wh6enqKiorKy8sfPXokk8moawqbzfbx8QkMDAwLC5s6dSqbzabiLlqttq+vr6SkpKSk5OHDh5T+RxwOZ/r06fPnzw8ODnZ3d+dyuQiCYBVGjKwUKZXK69ev5+TkVFZWqlQqalo7GiwWy8/PTyKRLF++nM/nk1u5RqMpLi4+ceJEaWnp4OAguZVjgcFgeHp6rlq1as2aNc7OzljFML8JjUZTWFh46NChhoYGalo4NrRabUVFRVtbm0gkWrx4MbmVV1VVHTp06MGDB+RWaxx6vb6hoeHYsWN8Pj82NpbD4YxZDNNOKBSKEydOWJgGA7q6ug4ePNjT00Nutenp6eXl5eTWiRNyuTwrK0sqlWIVwGTi/v37lZWV1LQKF2pqaioqKkisUCqVFhUV6fV6EuskhObm5oKCAqyzmEzU1NRoNBpqmoQLOp3u3r17JFbY2to6NDREYoUm4M6dO1inMJkw8h1ZDK2trSTW1tHRMeGBLPX19VinMJno6+ujpjF4gSDI9OnTSaxQLBYbGURaBka6GUwmJrA/hUAQJDAwkMQKp0+fbmtrS2KFJoDBwHzg9J1jR0ZGzpo1i8QKxWLxsmXLmEwmiXUShZGPkqZMCIXClJQUe3t7EutEECQpKSkoKIjEOonCSO80jrfDwuBwOPb29mFhYfHx8f7+/qTXP3Xq1I8++uj06dP5+fldXV0qlcrCnTCPx8M6RRUTHA7H29tbJBLhv4TNZnt5efn6+oaGhhrxCpgDBEE8PDy2bdsWERFRVlYmlUoVCgX+y5VKZX19vTljGSNOIwqZCA8Pj4uLc3Nzo+gWJoPP54eFhYWFhRG6Si6X5+fnp6ammsPEBHwTcrn822+/RVE0Li7O3d2dortYDDKZLD8/PyMjo6mpiaJbUGixe3p6Ll68ePr06fb2duruYgHAryEzM5PS2S6FTKAo2tXVde7cuRMnTjx79oy6G1EKuVyem5t7/Pjxx48fU2reKR879fb2njt3Tq1Wb9682dXVlerbkQu5XH7lypXMzMzGxkaq72WJ+YRMJrt8+XJGRkZHR4cFbkcWFArFjz/+aBkagMVmdjKZ7OLFi1lZWW1tbZa5o5mQyWR5eXkZGRmWoQFYco7d19d34cKF7Oxs+pMhl8uvXbuWmZlpxHVKOsxigsfjCQQC/OW7u7vPnj177tw5StfxzYROpysqKjp27JhUKsXvRWez2Xw+f1xfr5HFc7OY8Pf337Fjh7e3N063GoqiAwMDR48eTU9P7+rqMufWFEGpVP744487d+6sr6/X6XR4LkEQRCAQbNmyJSwsbNznYIRas5hgMBgRERHvvPNOQECAEX/vKGg0muzs7NTUVLqRoVQqL1++vH//fvz9J4Ig7u7uiYmJMTExePyVNjY2WKfMtRM8Hm/hwoXJycm+vr74r4KjqRMnTtDHZsjlchNMtKurq0QiiYqKIuRhGxMkWGw+n79w4cItW7b4+Pjgv0omk3377bfZ2dnkLpGaBsNIiZAzQygURkdHR0dHk+KvJGfsBL+MLVu2zJgxA/9VBnfIxM4zFApFfn7+iRMnCDkzRCJRdHR0bGysUCgkpRmkzbH5fP6SJUuYTGZaWlp1dTUex4DBHaLRaJKSkiZkBi6Xy+H0rb6+HqczA0EQFxcXiURCIg2AXG8Hn89ftGgRi8VKS0t7+PAhzrFHb2/v+fPnNRrNli1bXFxcSGzPuDDBmQFNtEQiiY6OJpEGQPrMjsfjhYWFbdq0idCKGzTg6enpluymFApFbm4uUWeGm5tbdHT0mjVryKUBUDHHhgb8jTfeIGrAL126lJWVZRkDbpozQygUxsTEREVFUbGkSIm3Ay6KETXgvb29Fy5cOHXqFNVDW9OcGSKRSCKRSCQSilZ2qfI7cbncxYsXb968mRAZ3d3dkAzqJn1KpRIu+xBabxAKhVFRUfHx8ZMmTaKoYRSuT9jY2CxdupTH4x05cqSqqgqPAUdRtLu7OycnR6lUpqSkiMVicpskk8muXr1KaN6AIIibm1tMTIxEIqGOBkC1L5bL5YaFhSUnJxNyh8jl8suXL6elpZH7ZSiVyu+//z4zM5MQDXCktGbNGkppABbwisNJX0pKysS6Q0wz0XDeQIozY1xYYn2Cz+eHh4cTtRkGd4j5ZMhksmvXrhGlgWoTPQoWWini8XgRERFEyYDukFOnTpkTkGCaMwOa6NjYWCcnJ5NvTQiYFtvR0XH8i1ks/HHwfD7/1VdfZbFYe/bsaW5uxu8OOXXqFIfDiY+PN+GhqFSqW7duHTx4sKWlBeeyD4Igtra2sbGx69evJ7QOZmdnN+7TMGV9YtyXl81me3t7Ozg4GC826pLIyMh3333X19cXvwFXKpUnT5788ssviQbfaTSac+fO7du37+nTp/hX31xcXFJSUtatW0eIBgCAWCweN3PZz88P6xTm4wgODjYSOggAYLPZkydPHrd9o8Dj8SIjI5OTk728vPBfBW1GVlZWf38/zkt0Ot3169fT0tII2QYHB4eoqKi1a9ea4MwICQmxs7MzXmbOnDlYp5gffvjhmCdsbGykUunTp0+xupGIiIgNGzYQ+iYgGAzGtGnTBAJBU1MT/uxSvV5fU1PDZDLd3d3HXR2TyWS3bt3au3fv06dP8TdMKBSuXbs2MTERT8/8IpycnBoaGqqrq7EK+Pn5vfXWW1ijYUwmuFyuq6urVCod0ysnEAjef/99QuZ3JGCyuJubW1lZmVwux3mVWq2uq6tDUdTPz8/I96rT6XJzc1NTUxsbGwmFBCQlJa1fv940GgAATCbzpZdeKikp6e7ufvGso6Pj1q1bQ0JCsNa6MZmAXvg5c+bIZLKWlhb4ZTAYDAaDERoa+sEHH8yZMwd/X/8iWCzW5MmTxWJxRUUFfjIGBwelUimDwZgxYwaXy32xgFarLSgoOHDgQGNjI35nBofDgTSYOX0TCAQhISG9vb2GJ4YgCIvF8vb23r59+9KlS8dsM4QxtQgIjUZTW1tbWVnZ2NgoFotnzZrl5+dnZGWcEHQ63bVr1w4cONDQ0IBzPQMAwGazN23aFB8fP2rCNTg4eOPGjc8//xx/TDSCII6OjnFxcRs3biQrhUmr1Uql0rt37zY1NQkEgsDAwHnz5o37xMZngmoMDg4WFhYeP368srIS/1tsb2+/atWqzZs3G6ZdSqXyypUr6enpRJd9oqOjKXJ0EwJm72QxsNlsNzc3Z2fnxsZG/I4mtVrd1NSk1Wq9vLzs7e3hLPr48eNEnRmxsbF0oAHQgQkAAJvNdnd3d3d3Ly0txW8zVCpVU1OTRqPx8fG5ceNGRkYGofUGNpudkpJiGZ8SHkx872SARqPJzc3dtWsXocwXgUAQEBDQ1tbW1NSEv3ODI6WkpCSTR0qkg0ZMAACGhoZu3ryZlpb26NEj/I8VQQj8FwiCwHAxS/qU8IBeTAAAhoaGCgsLjx07hj86BD8MJloikZAeEmAmaJcZz+PxwsPDk5OTjbhoTIZYLKYoMsN80I4JMCK80+Q5/JiAzozo6GgLR1XhBB2ZAD+t9BFdzzACGDwZExNDk5HSi6CXWsRIwOgQBoNx5MiR2tpac+wZXH2Li4ujei3aHNDOYo+CSqW6ffs2/uiQUYCRGWvXrpVIJLQaKb0ImvZOBnC53Jdffjk5Odnf398EnSw3NzcYmUFzGgD9mQAA8Pn8wMDAoKAgotJMCIJMmTJlwYIFdHBmjIt/AyZkMtnt27fv3LlDtHdCUbS+vj4vL48+mUtGQHcmYPAkjMwwwaR1d3fD6JDOzk4qmkciaG2xZTLZDz/8AOOUzGmng4PDypUrN23aRHp4J4mg7zehVCqvXr2anp7e0NBg5usyMDBw8eJF0sM7yQVNmYAKMiSKNcDwzszMTNraDDrO7CiStYKhOgAAeop/0e6boFTWqre3FxpwGop/0ctiK5XKH374ITMzs66ujqL1CQCAk5PTypUrX3/9dVrNM2ixegqh0Wjy8/P37t375MkT/E9WIBAEBwezWKyBgQGcVw0ODlZVVTGZTF9fX+NxjpYEXZhQKBSFhYWEAmQAAK6urlFRUdu3b3d1dW1tbcU/NNLr9RUVFTwez8PDY8IlriFowQSMzEhNTX3y5An+q0QiUXx8fExMjLOz89SpU8VicX19/Zjxd2NCr9fX1tYaokNMajiZmHgmIA0miDVIJJJ169bB9QYYHSIUChsbG/GTMTQ01NzcrFar6UDG+ExoNJrq6ur8/PzLly/X1dXpdDpHR0eyNtbS6XQ3btxITU1taGggFJmxYcOG+Pj4kYugLBZrypQpLi4uhGJtBwcH6+rq4DZVRkIlCUGpVBYXF585c+b06dO3b9/u6OhwdnYeN4zc2KhDq9XW1dWlpaVdv35dpVKhKIogCIIgISEhW7duDQwMZLHMmo6o1epr167t2rWL0GzLwcFh48aNCQkJY4apw7jYPXv2EAq64XA4iYmJiYmJZi4loShaXl6+e/fuBw8e6PV6wxNzdnZOSkpavXq1kdB6zG8CRdHKysqPP/64sLBQq9VCwlAURVG0paUlPz9/1qxZU6ZMMbnRMKJ79+7dhGhwdHRMSEhISEjASjOBUegikUgqleLPfNHpdBUVFQiCBAQEmPNlSKXSd999t7q6euT7jaKoQqEoLS21tbX19/fHen0xmejv7z906FBhYeGYZ1UqVUtLS2hoqAn5EwAAnU5XUFCwc+dOQiMlOzu79evXJyQkGA8Xg/kZQqGwpqYGf+YLHE1xuVwfHx/ThrYqleqzzz4rLS0d86xWq62vr58/fz5WPAMmExUVFfv27dNqtVg37u/vd3Z2NmHbFPg17Nu3r7m5Gf9VMD4cZ34DJMPV1ZWQzdDr9TAPxTQy7t+/n56ebkRzUaFQwMzPMc9idvR37941vtOVWq0mNOg0tKagoIBo0pVIJFqxYgWhFEQmk7lkyZLBwcGMjIza2lqcVw0MDOTk5Gi12nXr1hHVm8Kzb+TDhw+xTpm+d5dWq21sbBwYGDBebCTUanVhYeG+ffukUil+WSs+nx8TE5OSkkI0BZHNZi9btuytt96aOnUq/qSb7u7ukydPnj17lmiCZW9vr5EuBMLIU8X8JvC0Q6fT4XdLGGSt8HdKI2WtTBvVcDicRYsWQSU2/OGdSqXyq6++6u3tJaSFLpfLx30aRoYDFvLFmqbRTYqsFdQOMU38y5Ja6BZSeM/LyyNKg0gkIkvWyrTwTguLf1HOhMmyVlFRUSRqZkDtENqKfwGqmRgZmUFU1iohIYHc4Ekul7to0aLNmzcTksWzgPgXBIWrp6bJWonF4tjYWIpkraD4F5/PP3z4MCHxrzNnzlAk/mUAVd8EjMwwQdZq7dq1lMpaGcI7CYl/QQN+7Ngx6r4MSpiAGt1ETTSJGt3GYbIW+qVLl6jTQiefCZMFQOG8wTJry3A0ZbL4FxWjKZKZMEejOyYmxpJJV+aIf1GhhU6mxYYa3TAvGr+sFRUa3TgBtdBZLNbRo0cJaaF/8803pGuhk8aEORrdE5hmwufzIyMjibpD+vr6SNdCJ6d3gsGTJjszJjbNxBwt9IyMDLKC2EhgwjTlSajRbTETbRx8Pj8iIsIEd8jFixfJMuDmMgFF3tLT04lqZsTFxUkkEvpkgsI88F//+teENi+GWzbk5OTgXBw0siuzWUzo9fqCgoKjR48SCp6Emhnr1q2jWyYol8uNiIjYsWMHoYl0T0/PmTNnsrOz8WwNZ8QOmWWxq6qq6urq8K8Vww3HEhISNmzYMOHxRWOCw+G89tprbDZ7//79+MW/BgYGDh8+zGKxxi1vJGnTLCaGhoaMr7COaoRB1oqeNEAwmcyFCxcCAAiJf2k0Go1GM24xPp+PdcpyUfsGjW46mGjjgDNwolroZsJCTMDgSZqMlPAArmekpKSQqx1iBJZgwqDRTUMFGSOAIsNE1zNMBrXZXVDWitx93ywJ6A5hs9lHjhzB6Q4xGRQyQd2GY5YEnPQhCEKR+JcBFPZOdJa1IgQ46SPqDiEKqpiglTPDfBjcIdTZDKp6p8HBwby8PKxw3THBZrO9vLx8fX1DQ0Mp5U+pVJaUlBQXF7e0tOCfDwEAVCoV/jSZMWHkdlQxoVQqjcSAjgkEQdhsNo/HCwoKSkhICA0NJStfxgCtVnv//v2srKySkhKlUqnRaCycemskBpBGmfEoiqrVarVaXVBQUFlZuWvXruDgYHJv0dzcvGvXrsrKSnKrxQ8jIcy0y4yH6O7u3r9/Px6fGn6gKJqenj6BNBgHTZkAANy7d+/BgwckVtje3p6bm0tiheQCkwlz9pYgBXq9vry8nMQKq6qqFAoFiRWSC8zHTQfB7YaGBhJr6+7unnBpDCOpSphMTJs2jZrG4AWCIOS6QslK8jUHRnaMwmQiPDzczCRfM4EgCLlvQ1BQEFlbyZgMI7udYTLh7e0dEhJCTXtwYebMmUFBQSRW6OHhsXjxYhIrJAp3d/cVK1ZgncVkws7OLikpidCucyRCJBK9/fbbpEffJCYmBgQEkFsnTtjZ2cXHx8+cOROrAGYWMIPBcHFx8fT0bG9vf/bsmcVsHYIgfn5+27ZtW7RoEend46RJk6ZNm9bR0dHa2mpJ6+3u7r5p06bVq1cb0YwYR6NKq9V2dnbeuHGjrKysrq6O0lEgm8328fEJDAwMCwvz8PCgyErpdLre3t6ioqKbN282NDSMm7drDjgcjqenZ2ho6Lx58zw9PY0PGeilefbfDPrOsf/bYGWCLrAyQRdYmaALrEzQBVYm6AIrE3SBlQm6wMoEXWBlgi6wMkEXWJmgC6xM0AVWJugCKxN0gZUJusDKBF1gZYIusDJBF1iZoAusTNAFViboAisTdIHp0V1XOko7VLj2BZhpNznMCTMK8T8AX7felmuHAACTOHarxfNNq8R0Jj6uPVPYU42n5Jtev/rPZuLdh+lNyk4AQIC9h8lMWHsnuoCc2FMRx4GJYJIqYE9w1sK/BchhomjRJ9NtCcjnWfEiLJc1pEV1WnRYCwYBgMt4LutdpdcYIqU5CIuBIDpUr0GH5Up4DDYsU9z7uEPV58ZzWjDJh4Uwx7yRDtVXDDQ1DXYqtSoekz2ZJ5wj8OI9fzs9iqrR4T2FuAwWAhAAwP3++gblMz6DEzppuoiDuTtcnaL9oewJCsBch2meNqRpKViOids91a8U/kX/U2h6bvhHv3AeTjo71XIrvuSf8NiV61j+yhcuXMHxJ3lbHhyAP/Yu/+pUy60PqrM6VcMbVDlzHT7zT3rdY+nIW6AA3fn4/E7p+S71c/tY2TJ573gv/9A3zkD/hfbiqOJP4HHDL1Or5S3byg/XKYaVX5kIY+PUJfvmbLFlPpegWDHQtLU89Vb3I8Mvq8ShhwLfMuu5/ATLWexFwoD3fCSGP98oO6DUqQAA7aq+beWH4Y8IQNKDf+PCHb1H14fVp94uO2SgAQDQqRrYdP/Lv9XkjCy2vSLtj1WZo2gAACh0Q588/mbz/f1jNuz4k7zlRX8z0AAA0KH69CfXEkp2jyx2t08acfPPI2kAAFxsv7vw5p8GNCQkYZDzTUQVfzKqtzHAned0YcGf4fFHvnG5nWXFvY8BAPWKjg+qsz8PeP3NBwe71cNaBL/xXrHMZYzcuj31lwAAi0UBPrbud/sel/U3wt//t/rUEtGsSKE/AKC0v/7L+u/g785ch7jJkfYsfo285XzbHR2qBwB89bTg04BEd97ojLG/1uQwEcZq8QJf+ym3uh/d6B6WG7nQXvxI9tTPfgoAQKPXxZf8c0CrNPxTsZMXshDm1623G5XPTHlkL4AcJioHMLcY7LL5+Q1lIcyTITuCrv8OzoO+qLuoQ/UX2ovh2TkOXp8GJGLVczJkR8KURQAAFKC/r0zfXXcBHv/j8VnIRHl/o4+dm1TRxkQYtyL+McPOHV74/qOT/1f7NTyukjW/yAQDQa6EffBL50BY4Yp//f1Kx7AEz92+x5CJ8+13DB9NgL3HzciPJ7HtAAAf+q575dZf7vYR2FgAC5aeT0y3ddszezM81qH6L+ouwmM+k5M973dYH9YatwWQBgAAApDPAhKn8IfVu3I7y4b0GgDA6x5La36xX7Yiu/KVvQYaAACz7D0Mx/0a5RiVixdAGmDlCZMXGU71qId36rza8bM80s6AJEgDAMCWyTPy9hACOd/Eu9PXCDljS8AKWKMnE8kev7jSUfp16+2RP34e8Lq//VSs+pe7PpePzEKYrznPPfYkDwCg0eseyZqDBN7wlA2TO8POvWWou6in5m6f9GZ3FewMIbToGNpxwY4vjfxTzPtZnEGlH5aAfSgb3g2RgSCvOM8eWT7CyZ/NYGr05qrSkcPEm16vEZpPHJ779rWucsMbN1cwbeu0/zFS3o07Wvd6Mv9nRTuDmenXKHfVfZv19KZUMfYGNoyxpp9O7OfyQUd+l4aBda9muKkOLJtRA2I2gylk27fjc8EZwcSoENzpfWygAQBQ1t+Y31Xximg2VnnD2N+AkYmacHrfOtQTfvM96P8BADAQZLaDZ7iTL5/B2VV3YfhHMIaYNJvx3LwEGauM4ULz330sTIDfqVst21S6d+QvKECTSvf2aTBTjKXy0e94y1CP4RjOwv7wMMNAw9/91ncuy3ywZPeBOW9GCP0MJRnYst7G4fzTwFqhGxr5DgEAhvSazhfGzSZgAph448EBw7dssC7Ng11by1OxLjnbVjTyTx2qz+scFhziMzlwePPdT0Y13Mn3/RlrnTjDfU6XmgS5riDBzwoi33XcG3nqUvtdHUqCjiw5vdPtnmojw2omwjD0PMef5H3T9i94PNvB88KCP8+9vgMOabKf3lzpOs8wRhqJ4t7Hf63J+WBmLAAABej7j04+GRx+/Ve6zoNuD5l2eHrVNtSr0etgn6PUqQ42XDXUo9aPs2syFqLdwvbWX4bHf6zKDHfy9bZ1BQA0Kp/9rvK4aXWOAjlMJD3f24wCl8EeWpUDAGhQdvy2Im34xggzPfg3XjYu/wzYtPnB8Ox3a3lqhNDPgz+GM+d/q7PPtBbOdvAs7296KHtiqORPM4bn7UGCaXBc36DsWHXn46Spr3SqB/Y3fFcr/3nDlFEdC34sFgVECv1vdlcBAFqHembn//Y1l7lMhPH9s/twbmQ+LNc76VF0470vDG/uez7RwQJvAECK56uv/jSc79cok0r36l+QTYAT78qBJ9lPbxpoAADsnp1sGL9+6BtnMLbfP7ufcG/XbyuO1spbZzl42DCHZRrKBxpNbv9XIdsN/j6lTnW+7c7Z1iK5dmiOg1eU28smV2uA5Zj45PFZwxrfbAfPv8yMNZw6MnerHWvY13a9q/Jz6flR177p9auvQ//gxvt5LDvNxvXc/Pe2TVtu+GW5a8ipeb8fWcaGyd3+0qqiyE9fc5kLfznbVmSYIhCFB9+5KPLTte7hBrPPYbBSPF+9EfGxAwtzVwn8oK9ux9GmHw2+2HPz31vjtkCH6kv767tUA5P5TrMdPMccbmpRXVl/Y7uqbxLbNkjgzWdySG/YM1V/xUATE2EECrwmsTG1aYiCRnqx44KJMEIdpxsvw0KYIc/PmUmHC1dg8OeTCOs6Nl1gZYIusDJBF9DXYtcrOor7ht2okUK/ybx/700sxgV9mfhvg7V3ogusTNAFViboAisTdIGVCbrg/wHggeBesk2LHwAAAABJRU5ErkJggg==;" parent="1" vertex="1">
          <mxGeometry x="459.82000000000005" y="347" width="38.52" height="55" as="geometry" />
        </mxCell>
        <mxCell id="ygFGr8_wO-zUAzRDIiU--12" style="edgeStyle=orthogonalEdgeStyle;rounded=0;orthogonalLoop=1;jettySize=auto;html=1;entryX=0;entryY=0.5;entryDx=0;entryDy=0;" parent="1" source="ygFGr8_wO-zUAzRDIiU--14" target="ygFGr8_wO-zUAzRDIiU--11" edge="1">
          <mxGeometry relative="1" as="geometry" />
        </mxCell>
        <mxCell id="ygFGr8_wO-zUAzRDIiU--13" style="edgeStyle=orthogonalEdgeStyle;rounded=0;orthogonalLoop=1;jettySize=auto;html=1;exitX=1;exitY=0.5;exitDx=0;exitDy=0;entryX=0;entryY=0.5;entryDx=0;entryDy=0;strokeColor=light-dark(#009900,#EDEDED);" parent="1" source="ygFGr8_wO-zUAzRDIiU--14" target="ygFGr8_wO-zUAzRDIiU--11" edge="1">
          <mxGeometry relative="1" as="geometry" />
        </mxCell>
        <mxCell id="ygFGr8_wO-zUAzRDIiU--14" value="" style="shape=image;verticalLabelPosition=bottom;labelBackgroundColor=default;verticalAlign=top;aspect=fixed;imageAspect=0;image=data:image/png,iVBORw0KGgoAAAANSUhEUgAAAJYAAACuCAIAAABbSmN1AAAACXBIWXMAAA7EAAAOxAGVKw4bAAAdvUlEQVR4nO2deVxTV9rHz73ZAyEQQpAt7ARIWGTRguJeoVpbWxmZabW78ymurV2nszkznWnHLm8/tXY6Ft9qRSltVV4dK9NxAwVEEJR93wkEwp59u+8f10aKuVcwyU3C5Pvhj8s9N+ee5HfvWZ5zzvNACIIAJ44MbOsCODEXp4QOj1NCh8cpocPjlNDhcUro8DgldHicEjo8TgkdHqeEDg/Z1gV4cJRK5fDw8OTkpFKp1Ol0SqUSPU+lUmk0Go1Gc3V15XK5bm5uti2ntXEMCREEQRDEYDD09fU1NjZ2dHR0dnYODg7K5XKNRqPVahEE0Wq16MWkn6BSqQwGg8fjBQYGBgcHC4XCoKAgMpkMwzAEQbb9RhYEsmczN4Ig4+PjnZ2dlZWVjY2NLS0tPT09D5wbDMNeXl4CgUAkEolEovDwcG9v73mgpZ1KqFQqu7q6bt++XVFRUVNTMzg4aNn82Wy2SCRKS0uLioqKjIxkMpmWzZ9I7EtCBEE0Gk1XV1dubm5VVZVUKlUoFNa7HYPBQLXMysqKjY2l0+kw7Hj9OzuScGJi4vr16+fPny8tLTX2TYiBwWDExsamp6evWLGCy+U6Vu1qFxIqFIqqqqrz58+XlJSMjIzYqhguLi4pKSlr165dtmyZi4uLrYoxV2wsoVar7e3tzcvLu3LlytDQkMFgsGFhAAAwDLu6umZkZDzxxBMRERFUKtW25ZkNtpRQJpOdO3fu1KlTDQ0NtiqDSSAI8vf3X7t27TPPPMPhcGxdnPtgMwllMtknn3zy448/jo2NmZ8bhUIxVn1qtdoiTSmFQklPT3/xxRfDwsLMz8162EBCnU7X0NBw8ODBGzdu6HS6OX2WTqczmUwmkxkREREcHBwUFBQWFsbhcGAYNnYmDQYDgiBTU1MdHR3d3d2tra0dHR1jY2NyuVylUs3p+5JIpJCQkOzs7OXLl9ttpUq0hHq9/uzZs4cOHert7Z39pygUCp/PDwsLi4uLi4qKEggELBZr9h9XqVRdXV23bt1qaGhoa2trbm7WaDSz/ziTyczOzt64caO7u/vsP0UYhEqo1WrPnDlz4MCB2Xc7mUxmbGxsRkZGVFQUn893dXU1pwBqtbq/v7++vr6srKy4uHhiYmKWH2SxWJs2bdq2bZsdWlyJk1AqlR4+fPjcuXOzafzIZDKXy83IyEhPTw8JCbHsoBtBELVa3dPTU1hYWFxc3NHRYbSv4oA2jbt27fL19bVUSSwCQRJKpdLc3Nxjx47Npgbz9/dPTU1NT09PSEggk61oiNfr9d3d3adPn75y5UpfX999G2YYhtetW7djxw4/Pz/7Gf4TIeH4+Pjx48ePHz8+NTWFfyWdTo+Pj9+yZUtCQsKcWjtzUCgUt27dKigouHDhwn1fRzqdvmHDhj179rDZbGKKd1+sLqFMJjt16tQXX3yBrx8MwzweLzMzMysri81mE/yMIwii0+nOnj2bk5MzODiILyQMw5mZma+88gphDxk+pH379ln1BgUFBYcOHRofH8e5BoIgoVD46quvbty4kclkEl9HQRBEIpHCwsKio6MnJia6u7txnmwEQTo6OkgkklAopFAoRJbTJNad8m1tbc3NzcXvf0IQlJKSsmvXrsjISKu2fPeFQqEkJib6+fm5ubkVFBTgqKhUKr/99tvw8PBVq1bZfHLDWm8hgiCNjY3vv/9+Y2MjzmUsFisrK+vtt9/m8/k2/y0AABAEsVis5ORkJpPZ09Mjk8mwrlQoFG1tbSKRyNvbm8gS3ou1fjWVSnXy5MmGhgacZ5nBYGRmZr7wwgv20zVAcXV13bx58/bt2xkMBs5l7e3tX3755ejoKGEFM4lVJEQQpLKy8ty5czi2ShiGH3/88RdeeMHT09MaZTATNpu9fv36HTt24E/ol5WVnTx5cq5mQstilYq0tbV1//79/f39WBcwmczMzMy9e/eaaW2xKmgHh0qltra2Yj2LOp1OIpGEhob6+/vbaqRo+bdQo9FcuHChtbUV85YwnJaWtnXrVjqdbvG7WxZXV9dNmzZt3LgR55q+vr78/HyClxlMx8ISIghy8+bNwsJCHCtMTEzMM8884+fnZ9lbWwkOh/Pss8+mpKRgvWQ6ne7q1atXrlwhtlx3sbCECoWioKCgs7MT6wIul7tt27bY2Fj7MVDdFw6Hs3v37rCwMKw+s0ajOXLkyPDwMMEFQ7GwhG1tbVevXsVKJZFIv/jFL5YsWWLZmxJAeHj4li1bcKYpuru7L126ZJP5c0tKKJfLT506hWVIgyBo8eLFjz76qG3H7w8GjUZbvXr1qlWrsC5QKBQXL14cGBggslQolpSwurq6qKgIKxVtVAICAix4RyJhs9lZWVk4M00NDQ2VlZXEv4gWk1Cj0dy4cQNnEjU5OXnhwoUO1ATei0AgyMzMxKpFJiYmzpw5Q/wY0WISdnV1Xb9+HesLeHt7b9myBd/YYf+QSKSVK1dGRkZiXVBbW4tvULQGlpEQQZCKigqsjiiZTE5LS8P55g6En5/fihUrsJ5FhUJRWlpK8GpYi0lYXl6uUqlMprq7u9vzCrA5wWAwHnnkEZzFpSUlJQSPLiwjoVQqLS0tNZkEQVBcXJxIJHLoVnA6fD5/2bJlWKldXV3V1dVElscyEl67dk2tVptMYjAYS5cutU9b9gOTmpqKZR2Uy+Wtra2zWU9lKSwjYVNTE1YSi8WaT68gikgkCg0NNZmk1Wrb2tomJycJK4wFJJyYmKitrcVKDQ8Pnx8dmemw2ey0tDSs57K1tVUqlRJWGAtI2NbWhjPtmZKSYv4t7A0ymRwWFoZlb5NKpUSaaSwg4cDAgFwuN5nEZDJFIpH5t7A30K1PXC7XZKpSqWxpaSGsMOZKaDAYxGIxloTBwcHBwcFm3sI+8fX1xTEWtre3E1YScyVUq9USiQTLKOPj42MPy/SsgYeHR2BgIIlEMpk6p00/ZmKuhFNTU2KxGCs1ICBgvkoIAPD19cX6dhKJRK/XE1MMcyVUqVRY21xIJJK/v/88ltDf3x/L5DQ0NERYj8ZcCfV6PZZdjUajeXh42MPqUCsRGBiI84AStjjR3N9Xo9FgrZdlsVh2suvASlAoFByTBWGzTuZKqNPpsN5CCoUyP0zbWNBoNJw6hrA1bRaQEGuxGpVKnccNIQAAf+Oqw0gIQRBWZaLX6wnrldkEBoOBU5E6jIQAAKzVIqhHSfPzt1uUSiX+jhFiimGuhKjbT5NJqKdQM/O3Z1QqFc4EvcNISCaTsWbOtFrtnHyDOBwajQZHQsK2G1jgLcQqq0qlwuqszg/wK1LCunLmSkihULBqDKVSOTIyYnPPeNajp6cHp5ohbKGCuRIymUwvLy+TSahz2HncHPb392N9O29v7wULFhBTDHMldHV19fHxwUrF+ZLzABzfGF5eXoT1xs2VkEaj8Xg8rAXOYrF4vko4NjbW2dmJNfDl8/mElcRcCWEY9vPzw/Khi0YjMPMW9olYLO7r68NKJdL/pQWG9gsWLMCSUKlUEr9AnQAQBOnr68Na48RkMh1MwtDQUA8PD6zU0tJSe3D/bVl0Ol17ezvWSkMOh4PTP7A4FpDQw8MjLi4OK7W5uRlnlamDMj4+XlRUhPVoCgQCrF66NbDMfKxAIMBKmpqaqqurm2cvYl1dXUdHh8kkCoWCsz7RGlhGwpSUFCxjhFKpLC0ttbl/Hcty48YNLMMTg8EIDg4mcpbNMhLyeLyHHnrIZBKCILW1tfPpRezr6ysuLsZKDQkJSUhIILI8lpEQdSWDZWmTSqWXL1+eHyZvpVJ59uzZoaEhrAuWLl1KsFc2y0gIQVBSUhLWql+9Xn/16tX50anp6+srKirCqUWXLFlC8Iovi90sICAgMTERy6o0NDT03XffYW1gcxT0en1paSnOYnuBQIDTs7MSFpOQTqcvXrwYJwxAaWlpVVWVQ7eITU1N+fn5WCZDd3f3TZs2Ee+SxZKvfHJy8ooVK7BSUQ/5RK5UtywTExP5+fk45Y+Ojl68eDHxOyktKSGTyVy/fj3W2lEEQaqqqgoLC23r+vHBUKlURUVFOF51mEzm8uXLbeJe1sINb1RUFNboAgCg1WpPnDhx8+ZNy96UALq7u7/++mscD+P+/v5r1qyxydJ1C9/SxcVl8+bNOBvSRkZGPv3005qaGsve16qMjY198MEHLS0tWCsQyGTytm3beDwewQVDsbCEEATFx8evWbMGZx13fX39iRMncGZq7IqRkZETJ06Ul5djdcQoFMqSJUvS0tIILpgRy7/4dDo9IyMjPDwc6wK9Xn/p0qWjR4/a0A3rLJHJZN9//31+fj7ONX5+flu3brVhQGer1N0REREvvfQSzrdSKpX5+flffPEFkZ4h5opOp/vXv/711Vdf4QSZolKpGRkZCQkJNnTpYa0gBz4+PoODg11dXTj9z7a2Nr1eHxoaaocxycfHxy9cuPDxxx/jxDkAAKSlpWVnZ9s2nJq1JCSTyT4+Pq2trYODg1itiEajaWpqUigU0dHRduVhb3JyMi8v78iRI/hBUiIiIt544w2bOxOwloQQBHG53NDQUHwPl1qttq6urq+vLzQ0lM1m28N+UqlUmpOTc+TIEfxK3t3dfefOnSkpKTYvs3VjNqH9bPRVw7kMDdfq4eHh7+9vw19Eq9VWVVXl5OQUFBTg2x8YDMbWrVsfe+wxe3Dyb/WwWyEhITAM19XV4axGRBBkcHCwqqqKTCYHBQVRqVTiI6dptdqioqL9+/dXV1fj60cmk9PT03fu3Gkne5gJil+Yl5d37Nix2cQvjIuLe+qpp5KSkgjrI8jlcmP8wvsa/xgMxmOPPbZ79277iQhr9bcQAECn00NCQpRKZX19Pf4To9Pp+vv7a2trh4aGvLy8OByOtV9HiURy/Pjxr7766vbt27OJIrp8+fLt27dzuVz7cQxIXCzf4eHho0ePnjlzZjaxfCkUipeX16pVq9LT0wUCAZ1Ot+xPplarOzo6CgsLS0pKuru7Z7MDi0KhrFu3bvv27f+lsXxRFApFXl5ebm7u7B0Fenh4LF68+OGHHw4KCvLx8TGz+VEqlYODg+3t7RUVFZcvX569axh3d/f09PTs7Gz8/UoKhUIsFhO5DhgQH9deJpMVFhZ+/vnnc/J+zGKx/Pz8goKCUlNTRSJRcHDwnGZWDQaDRCKpqqq6efNmU1NTd3f3nKxCFAolOzs7MzMTZ8UzAECj0eTm5l67dm3Pnj04C2stDtESAgC0Wm11dfVnn31WU1MzJ38KEATR6XQGg8HhcGJiYlAffXw+H/U8YRyNGAwGg8Gg0+nEYnFXV1dLS0tLSwvqrlGlUs3pjjAM+/v7//rXv87IyKDRaDhXTk5Ofvfdd7m5uaOjozExMbt27UpOTiZmgGQDCVGkUun+/fvLysrww/zeFwqFwmQyKRSKMY4eurtYqVSauVTH1dU1NTX1+eefFwqF+C0xgiB5eXlffvmlsYEQCAS/+c1vEhMTzSnALLGZhAAAqVR68eLF06dP19fX26oMJoEgiM/nP/roo08++eR9ZwGVSmVJScmHH344I15jYmLi3r17hUKhtTca2lJC8NMo4ptvvrl06dLg4KDNd3WTSCQWi/XII4888cQTYWFh912UPTk5efbs2a+//vped5AwDAuFwj179li7RrWxhChKpfLWrVsnT568du0alndaAqDRaIsWLdqwYcOyZcuwtttNZ3Jy8uTJk8eOHcPpmkVHR7/zzjtCodB6K9uIGNrfFwqFgi5DDQsLgyBoYGCA4CVSTCYzKSlp69atTz/9dFxcHH7PxYhYLM7Pz8df4iyVSvv6+kJCQng8npWsAXbxFhpBEESn09XU1Bw/frypqWl0dNSqL6WLiwubzQ4MDMzKykpJScF3yGWytJWVlQcOHKitrcV55iAIio6O3rt3L85SaXOwLwmNqFQqNOxKcXFxe3s7zqTjAwBBEIfDiYiISE1NjY+PFwgEDzxbqdPpysvLc3Jyqqqq8BvymJiYt956SyQSWVxFO5UQRa/Xj4yMDAwMVFZWNjY2oqPyB84NhmEejycQCOLi4mJiYoKCgjw9Pc3fRabVaisrKz/66KPm5mb8uycnJ+/Zs0coFFq2d2PXEs5Ap9PV19c3NjZ2dnZ2dXVNTEzI5XK1Wq3T6QwGg3EyC3XfRyaTqVQqk8lks9moZUckEkVFRVkpDHtFRcXBgwfvaysXCARvvvmmZWtUR5JwOjqdbmxsbHh4WCaTKZVKnU5nXA9HpVKpVCqdTndxceFwODwej4ANm1qttry8/PDhwzdv3sT/SePj41977bWYmBhLqeioEtoh6KQ/umgY51eFYTgpKWn37t0xMTEWqVHtYlAxP0AjAgQGBorF4qGhIazeDYIg/f39DQ0NYWFh3t7e5qvolNDCeHt783g8sViMP5MllUp7e3tDQ0O9vLzMVNEpoYUhkUg+Pj58Pr+pqWlsbAynRh0aGurp6QkODjZz1O+U0PKQSCQ/P7+AgID71qhisbipqSkiIsKcd9EpobVYsGCBt7d3b2/v4OAgzmWoBQ6tUR/sXXRKaC1IJJKvry+fz0fjO+LUqBKJpLOzMzAw0Nvb+wFUdEpoRWAY9vX19fPzGxgYwK9RBwYGmpubo6OjPT0951qjOiW0LhAEoTVqd3e3RCLBuRKNPSoUCnEirpvEKaHVQXs3gYGBnZ2dOD6HAAASiUStVsfFxc3J7G77bSj/DZBIpKSkpJ07d+Kvw9BoNOXl5XMN5eyUkCBQB1mvv/46/kri4eFh/C1E9+KUkDgoFEpCQsK+ffvi4+Oxep6enp5znbx0Skgo6Lv48ssvm7RxUyiUiIiIuW64cUpINDAML1q06PXXX7/X+TOHw9m4ceNcPQo7J5tsRktLy4kTJ27cuCGTyWg0mkgkeu6552JjY+c6undKaEumpqY6OjokEombmxtqY3uATJwSOjzOttDhcUro8DgldHicEjo8TgkdHqeEDo9TQofHKaHD45TQ4XFK6PA4JXR4nBI6PE4JHR6nhA6PU0KHxymhw+OU0OFxSujwOCV0eJwSOjxOCR0ep4QOj1NCh8cpocNDdARvAMCEVvHj8K3ro81D6gm5Xu1GZoS4LFjCiVzJjYHtJn7H7NEYdCf6itHjYKb3cq6Q4AIQKqEBQT5sK/hLy7cynYnQHqEuC/4Zl73aK5bIIpmPQq9+vvoAepzlt5R4CQmtSPfU5rzV8LVJ/QAA7fLB9LI//d/gDSKLNA8gTsJrI42fdf5g/DeOHfQ8f/XukPUbFiRT4Dt7l/WI4cXqz8a1NnPP7YgQV5Ee7rlgPP7fhTuf5682/tsqH0gpfmtEMwUAGNFMfScu3Rb4MGEFc3SIk7BFdicMABkiPROwcnpSuIvPa2GPv9OQi/57Y6z1XgnlelXFWNuwZtKd4hLjFriA5o51Iz1iqJ3s7lYOK3RqOoniR/eMZQfR4Z+5JEUAojbc8f1KhcgwBNVOdrfKB4KYvAR2yIwM6yZ7OhUSpV7DpbnFuwVzqPd3Stshl9ROdcMAinELDGJaN949cRK6kO64ndch+vdbT70TsQkCd/ufL/LXxLACXcg0FxLdh/6z0EiTOsVvG47ndP9HZbjj9xcC0Aqu6GPR8/Hsn8XRRQDyQWvBB20FUs3PQjK5kOi7Qtbti/wl7Schb463Jxe9gR5fXvKX78WlBzvPo/8+6fPQyUVvobn9s+vHv7V836u864KCBMGPL1j0seiFQKbpvYAdcsnLt//xn+HbxjNrefFfxm/nMx5k7+BsIG5/4d9bT73dcMz4b4iLd5bv0nTewoc4ETQY02vviGZqVckfaia77k1ikKinFr2dwVtoPLOnNufTjnNYWW3xX34s8RX0uHK8zSjhJt+Uk+Iy42XvRj3924hMBCBbbn5iHC3MwJvmXrbs/WCmNwBgXCv3+GELej7RPbRXKR1Sz4xdHOHqW7PyE5yvaQ7ESTipU0Rf3N2vmhmjmkGiLuFEbViQnOW3xPue6vHx8vfO/NRHjWYFZPAWDqkn8sXXtAY9AIBDdW1YdQD9VNVER9KV1xGAAAC8aG6/9EtjkRnNsv6CgXI9csdzVn/6YV86B/xcwhl0PPxFMNP7w7aCN+qPomeoMHmNV5wP3eOKtK5dfscn3jJPYdHSd8HPJURZwRWlciL7lCN5/cVoOQEAXy3c9Rx/1dx/tvtDXEXqRmYWpvwho+zPM1RU6jUXhm9fGL79Rv2Rl4PS34veyvypyq0YbzPqt9or9txDv0Mf5JcCH15V+nsDgoxqZAc6zr0b9TQAoGaiK9zVp00+QILga0vfi3C9497lt43H/9byPXrcMNWLSjiDp/yXfRrzEgDg30PVwUxvhV79XutJY7EvLvlTknsYAEBj0K0p/ePVkQYAQPFIfdlocwpHMCOrP0X+6g+CzejxCq7wherP0OPrYy1WkpDQcaHIjV+z8pO3w5/kUk345dAYdJ92nFt+7XdKvQY9821/iTH1b1FbjBXRcq7wUe9k9Dj/p2ue469qXn1wan1e3cpPjfoBAEQsvvF4QmvCK48Lif5F3MueVJYnlfWU/zIAwGVp3ahGhqbuCH4E1Q8AQIXJfxRk/co/7b3orT889PtIlt+MrNwpLu9EbDL++9iCRcbje2tXS0G0gY1DdX0veuufI58qGqn7cejWJWlt9USHYVplXjne9rvG4x+JngcAVIy3Gs/L9KrrYy3T80EP2uWDkzqFG5mJ/ssk0SJcfftVI2WjzRXjbVdHGm6M3c1Eh5gIXpjKEbDIP/PWUzneZjxe4hk1PWm1VyyO/SieHUyG7vrn8qDc7buqDZgBxc3EBjZSAAAFJq3xilvjFQcAGNXI/iWp+Hvr6YapXjT1cM+Fv0VvocGU6U/u6pI/mMwKAUivUipk8QEAE1rFx+3/d6LvapvctF9sGDJR6wQwuDPOSNV3O7Rc6hxCz07XDAAAQxAJgtGW2NgeWxyCJGyRiYtH6sWqsQHVaKZv6vQHmUN1fSZg5SbfFMGFnWgzOaFVdCuGI1x9Z/m1FXoNAECsGk29+na34k4QMxiCYtwCUzmRDJj6cfuZOyeBCTM6mzIzSBraJ0Ix9kdmAxW2wStB0C0rx9u23focPR7Vyu6ti1xI9CiWv7Gng9rYuFS3FiAGAJAgeCjjKNYPhHZ/3qw/atTv3ains4My0Mr29MD1uxKamgmh3ZMtb1rHuEc5DMDdulRt0F4arhW6BQQwuJCpB4J4COrOLPWMMn7h0wPXp7dqKP2qkemNFjrkMhpK9IihRS52JdONf/8ZvlU21jypU7iS6agwP0iq0ItTOZG/jcg0NpZSzRR+2Uj31K5J7qHG4/M/ZYtyWVq37vpfAn/8Nfvc09NNvjaEIAn5DK81P715WoN+w/W/ft55fkA1BgAY08oKBspXl/xxUnenu7jUM8qL5gYAyPRNNebwet1Xcv2dKY4WmfiXlR+tLd3n9+8XU6++jZ6c0t0J+DOgGjPWfgq9+h+dhcZMNIZZhUVcyY1BCwAAONFf/J24FD0e08qMVsApnTKRHWr688RCXN39oei5RUVvoh0zqWZyR82hHTWHyBBpRi+RBMF/jvwVerycK1ztFXtxuAYAUDLaFHf51Sd8HoIAONp72SjGnpBH0YOF7OCK8TYAQKdCsqH8r88GrBzWTB7s/MFomwUAGIcK+DBI1N9HbN5dmwMAMCDI5ooPYtwCuVS36okO4yzKaq/YeweFNoG4cWGsW9A3Sa8Zh+0oM/QjQ6R/xL28khtjPHMica/A9c7wq10++GFbwQdtBcae6mthj2f5LUWP90X+0lhX/3uo+qmbH++pzWmRiUVufONNTRrqTLIrZP10U3vtZPdlaa1RvyAm78jC3bPMytoQOrTf6LP49sr/eTZgpQuJPiPJlUzf6LO4asVHM+YoeDR2+bL9r4Y+NmN+IJDp9c+47A+FzxnPrPNO/CbptekmciaJ9krohrK0v6/lxaNnTg6UzX58dih++9GE3dOtBGie2wIfrlj+gT/Dc5b5WBvbuNHTIfqGqd5+5ahCr3ajML2obtGsAPweuQ7R10/2StTjBoAEMXkCV1+THUIdor890TWoHveguCxkhzBIVPNL2yGXdCokaoOWR2PHuAVayVr9wDg9ITo8zkWIDo9TQofHKaHD45TQ4fl/kSfX6nOrovwAAAAASUVORK5CYII=;" parent="1" vertex="1">
          <mxGeometry x="384.53" y="350" width="43.11" height="50" as="geometry" />
        </mxCell>
        <mxCell id="ygFGr8_wO-zUAzRDIiU--15" style="edgeStyle=orthogonalEdgeStyle;rounded=0;orthogonalLoop=1;jettySize=auto;html=1;exitX=0.5;exitY=0;exitDx=0;exitDy=0;entryX=1;entryY=0.5;entryDx=0;entryDy=0;strokeColor=light-dark(#009900,#EDEDED);" parent="1" source="ygFGr8_wO-zUAzRDIiU--17" target="ygFGr8_wO-zUAzRDIiU--24" edge="1">
          <mxGeometry relative="1" as="geometry" />
        </mxCell>
        <mxCell id="ygFGr8_wO-zUAzRDIiU--16" style="edgeStyle=orthogonalEdgeStyle;rounded=0;orthogonalLoop=1;jettySize=auto;html=1;exitX=0.5;exitY=1;exitDx=0;exitDy=0;entryX=1;entryY=0.5;entryDx=0;entryDy=0;strokeColor=light-dark(#009900,#EDEDED);" parent="1" source="ygFGr8_wO-zUAzRDIiU--17" target="ygFGr8_wO-zUAzRDIiU--26" edge="1">
          <mxGeometry relative="1" as="geometry" />
        </mxCell>
        <mxCell id="ygFGr8_wO-zUAzRDIiU--17" value="" style="shape=image;verticalLabelPosition=bottom;labelBackgroundColor=default;verticalAlign=top;aspect=fixed;imageAspect=0;image=data:image/png,iVBORw0KGgoAAAANSUhEUgAAAOEAAAC0CAIAAADtktxpAAAACXBIWXMAAA7EAAAOxAGVKw4bAAAgAElEQVR4nO2dd3gU1frHz8z27GazyaaSvqmkQQqptEBIKIpclQ7SuerVqxf9KRaUq2IDlavovV5ARAkoqNQLGkBKCCQhvfe+6WU32d7m98fAsGySyWaz2cyG/Tw8PLOzZ868mf3OKe855z0QgiDAggUCA0+0ARYsjIBFoxaIjkWjFoiORaMWiI5FoxaIjkWjFogOeaINmGxIJBKFQiEUCjUazeBvORyOra2t6a0yaywaHQUqlUosFkulUplM1tfX13AfmUzW29srl8vFYrFarQYAoP/rYGdn9+abb8bExJjccPPGotGREQgELS0tDQ0NdXV1TU1NLS0t3d3dnZ2dox3+mDdvXnh4+DgZOYmxaHRoVCqVUCgsLS0tLS3NyclpbW0VCARisdjgYTlvb++1a9dSqVTj2vkoYNHoQyiVys7OzpqamqysrOvXrzc3NxslWwaDsXTpUm9vb6Pk9qhh0eg9lEpleXl5RkZGdnZ2dXW1UCg0YuZhYWHJyckUCsWIeT46POoaVavVAoGgtLT0zJkzWVlZEolEpVIZ9xZWVlbLli1zd3c34Nr29vbvv/8+MjIyPDycw+GQyY/i7/Uo/s0Yvb29mZmZaWlp2dnZAwMD43SXhISEefPmQRBkwLXp6eknT548ffr0jBkzkpKSEhISHBwcjG4hwXlENdrf35+bm3v+/Pm7d+/29/cP6cs0Cm5ubqtWrbKysjLg2v7+/qtXryqVSqVSmZ6eXlBQcPny5SVLlsTGxtrZ2RndVMLyyGlUIpHU1NQcPXo0PT1dKpWO670oFMqCBQtCQkIMu7ykpKSkpAQ91mg0QqHw5s2bt2/fjoqK2r59e1BQEJPJNJ6xxOXR0mh3d/cvv/xy8eLFhoYGE0zu5vF4jz32mMGF6KVLl0Qikc55lUqVlZXV0tKSkpKyYsWKKVOmGMNSQvOoaFQulxcWFn777be5ublDDgLpAwRBLBaLw+HY2NjY2dkVFBT09/cPlxiG4WXLlvn5+Rl2r+bm5uFMRRCkpaXlyJEj6enpzz77bFxcHIvFMuwuZsEjodHe3t7U1NSzZ892dHQYloOtrW1ERERQUJC7u7uHh4erq2taWlpmZibOJUFBQcnJyYZ1lQAAt27damlpwUmg0Wiqqqr++c9/pqSkbNiwwcPDw7AbEZ9JrlGNRpOZmXnkyJG8vDyFQjGqa6lUqpOTU1hYWGxsbHBwsJOTE5PJJJFIAIDq6upjx47hZOjg4LB161Z7e3vDzO7o6Dh37pw+rRGhUPjrr79WV1dv3Lhx9uzZk9I5NQn/JAyFQpGRkfHJJ5/w+fxRXchgMIKDg+fMmZOYmOju7g7DD81glMvlFy5caGpqwslhxowZMTExOhfqT35+vv5DXGq1Oj8/v66u7tVXX01OTjas+UtkJq1GxWLxyZMnf/rpp9bWVv2v4nA4MTExCxYsCAsLc3JyGiwyBEEKCgquXLmC06h1cHBYs2bNWNqIfn5+S5YsycjI6Ovr0/MSoVC4f/9+Pp+/fv16Nptt8K0JCDT51i4jCNLR0XHgwIHz58/r6fiEIIjL5cbHx2/atInH4+GUfxKJZOfOndeuXRsuAYlEWrdu3auvvmqI6VpoNJrq6urvv/8+MzOzp6dH/58pISHhtdde8/LyMrgUJxqk3bt3T7QNRqasrOzAgQNpaWl69t/ZbPaCBQs2bty4du1aJycn/F7OzZs3Dx8+jCN9f3//559/nsvljtruh4EgyN7ePiEhwdPTE4bhzs5OuVyuz4V8Pr+xsdHDw8PZ2XmMNhCEyVaOtrW17dixo6KiQp9hdzKZHBISsn79+vj4eCaTOWIfvKur65VXXsnPzx8uAZ1Of/nll1etWoV2rYyCRqORSCR5eXnHjx/Py8vTZ9yBRCJ5enru37/fy8vLYMcCcZg85ahara6oqPjkk09yc3NHrOJhGJ4yZcqyZctef/31sLAwKpU64m8pk8lSU1MvX76Mo/4ZM2a8+OKLDAbDkD9gGCAIolKpnp6e8+fPp1AofD5fJBLhlywIgvT19ZWXl/N4PHt7e3Ov9CePRsvKyvbv35+TkzOiQCEIio+Pf+6555YtW8bhcPTMv6Sk5ODBg93d3cMl4HK5L774YkBAwCiMHg0UCiUoKMjLy6urq0ufjmB3d3dTUxOPxzP3Sn+SaLSuru69997TpwRls9lPPfXUO++84+fnp/+ETrVa/c033+A47WEYXrhw4YoVK8Z1pj2FQvHy8kpMTBQKhXw+H7+FqtFoWltbi4qKwsLCuFyu+Vb6k0GjTU1N+/fvv3v37ohta3d39y1btqxfv360jqGcnJxvv/0WRxPu7u5//etfvby8RpWtYdBotMjISDab3dzcPOJcbIFA0NraGhQUZL5Tpcy7pQIAkMvlBw8evHHjBn4vHoZhHx+fnTt3rlixwtraelS36OnpSU1NxRmaBwAsWbLElOvprK2tV6xY8fHHH0dHR+OPLWk0mqysrL179w6enmIumLdGlUrlr7/+eu7cuRF78XFxcXv27Jk1a5YBCzYEAsHAwABOXenu7m7cvrw+UCiUkJCQd955JyEhAT+lSqXKyMg4dOiQWCw2jW3GxYzreqVSeenSpf/+97/4U+hhGI6JiXn77bf9/PwMa5Ox2ezw8HAKhdLZ2SmRSHRaFLa2ttu3b4+MjJyQBh+HwwkICKipqWlvb8dv6jQ1NbFYLH9/f7Mb0zdjjWZnZ+/btw+/hwtBUFJS0ltvveXm5mbwjWAY5nA40dHRUVFRFAqlqakJa5hCEJSQkLBp06YJHCW3s7OLiIhob29vaGjASSaVSquqqhwcHMbP8zBOmKtGW1pavvjii/LycvxkMTExb7zxhqur69jvCMOwo6NjRESEq6urVCrl8/kIgnC53Oeee27q1Kljz38s2NjYBAUFVVdX48+eEYvFfD4/Ojpaf48bETBLjcrl8uPHj1+6dAmnnwTD8PTp03ft2uXp6WnEW1OpVD8/v/nz59va2ra1tc2ePXvNmjVEcJLb2NiEh4fz+Xw+n4/jgOvr65NKpVFRUTQazZTmjQWz1Gh6evp3330nEAhw0gQHB7/00kvBwcFGbyaiAz9hYWExMTFxcXGj9RKMHzY2Nv7+/tXV1TjtHwRBmpub3dzczKjGn/gCYLSgnqC2tjacNG5ublu3bo2IiBi/fgwEQTwez9HRcZzyNwwej7dx40b8RU4ikSg1NdVYIVhMgJlpVKVS/fbbbzk5OTh9WC6Xu3nz5sk6KR0fGIbj4+OfeeYZ/BZnRUXF8ePHzcVjamYaraiouHDhAr67fu7cuQsXLnxkA9dQKJTHH388KSkJpw7RaDQXL168c+eOWcx6MyeNDgwMHD58uL6+frgEEATNmDHj+eefJ04bcUJgs9nbtm2Ljo7G6cz19vaePHlS/3n+E4g5abSoqCg7Oxvn1Xd2dl63bh3R2ogTwpQpUzZs2IAfZKqwsBB/aStBMBuNqlSqCxcu4Ayak8nkhQsXxsXFmdIqIhMbG7ty5UqcyaxSqfSnn37q7e01pVUGYB4aRZcgZ2Vl4aSZNm3aunXrjDu/2KyhUChPPPFEaGgoTpqqqqo//vhDqVSazCoDMA+NCoXC8+fP47zxLBbr6aefttTyOrDZ7KVLl+KEhZJIJNeuXSN4UWoeGq2srMSZfQdBUHR09KxZs0xslVkwf/78xMTE4fr4CIJkZmZeuXLFxFaNCvPQ6KVLl3Dmldnb2z/55JOTbFG5sWCxWIsWLcJZp4ogyLVr18Y7hOBYMAONdnV13bx5EyfBrFmz4uLizHctxHgTExOTmJiIk6CsrKysrMxk9owWM9Do77//jrMigkwmr1mzxrJfBw40Gm3dunU4I08SieT69euE7TkRXaNdXV0ZGRk4jy82NtbX19eUJpkj3t7eM2fOHO5btVqdm5uLPwViAiG0RhEEKSkpqaioGC6Bg4OD6RdpmCMQBD322GM4sfTr6+v1WfY9IRBaoyqV6u7duzjjdb6+vkFBQaY0yXwJCAjACdgrEonQ2PumNElPCK1RqVR6+/bt4V5uBoOxYMECg2N8PmpwudzZs2fjTG0uLS3t6ekxpUl6QmiNVlRU4KzRsbGxmT59uqU7rycQBEVGRuLs+tzT04NtEUEoCD3DsqSkBGcaXmhoKBF2N1Sr1RqNpq+vr7CwkM/nd3V1oaURh8NxcHBwdXUNCwtzcHCAYXjC280+Pj7h4eGXLl0aLkFZWVlycrIpTdIH4mpUJpPl5ubiJJg1a9bEzmKWSqV1dXWXL18uLi4uLi4ezg3OYDBCQ0NDQ0MXLFjA4/EmcEYBhUJJTk6+cuXKcO3OnJyc7u5uojWfiKvRzs5OnE0L7OzsDN73yCjU1tampaVduXKlpqYGvzsslUqzs7NzcnLS09Pnz5+fkpLi4+NjMjt1CAkJ4fF4lZWVQ37b0dFRX19v0ai+lJSUdHV1Dfft9OnTJ2oGiVQqzc/P//DDD1tbW/XvCKPbgNTX1587d+61116Li4ubkALV2to6ICBgOI329/c3NDRERUURqpVP0D4TugvycAtuyGSyv7//hIRdEAqFqampu3btamxsNMBTo1Qq+Xz+nj17UlNTjbu1s55YWVmFhYUN17uXSCQlJSVEG7snqEYlEklzc/NwU+5ZLFZAQIDpVywpFIqff/758OHDnZ2dY8mns7Pz8OHDhw8flslkxrJNTyAI8vT0tLGxGS5Be3u7RaN6IZPJcHx1bDbbxcXFlPYAAKRS6Q8//HDkyBGjLKcUiUSnTp06duyY6QXh6emJ44FqaWmRSCSmtGdEiKtRnD3pOByOcaOP6MP169dPnDhhxPW+IpHoxIkT169fN1aGesLlcnEGRbu6uogWXo+gGm1pacHpMAUFBZl4h8za2tqDBw+OsYofTGdn58GDB2tra42bLT5UKhVnAFkqlTY2NprSnhEhqEY7OjpwQoqa2DkilUrT0tLwo9IZTENDwx9//GHiGh8/kI5Fo3qBL4ixBGo0gIaGhsuXL4/TfAulUnnlypW6urrxyHw48IPt4O+la3oIqlH8WtWUm7ZrNJpbt27V1NSM3y2qq6v//PNPU86Lc3d3xxmYtZSjeoG/Y4Ypy1G1Wp2ZmTneMWcKCgr03JXPKFAoFJxp+Rbfk17g+LfZbLYpQ+XU1tYWFxeP912Ki4tN2XMik8k4XXvTe23xIahGccpRffakMyLl5eUmKFekUumIMamNCARBOIvuRSKRKQv1ESGoRnHi31pbW5tSozhuWjO9EQrOlDEEQQhV3RNRo1KpFGeog06nm9IYnM0XzfRGKDgraTUajUWjI4A/EG/iashk0Q9NHGYRZ9GIRaMjA8MwTm1OqGlj5gu+p4JQD5mIGtVoNDjBXU38+HCmX5jpjVBwSkoYhidwu6nBEFGjZDIZ5xmZuBoy2biriQd4cVr8MAwTKkQmETUKAMDR6ODdEMcVk40XmFKjCILgOEHpdLqJO6b4EFSjOF56gUBgymFDPz8/ExQqDAYjMDBwvO+iDc70A5VKRYRd0TAIup5JZ+odiURiMBhWVlYMBoNOp5uya8/j8UJDQ7Ozs8f1LqGhoUbc1EulUmk0GhzvEoIgOG4Eou3USFCNBgYGymQyOzs7BwcHDofD4XCsra2ZTCaLxUJlajJLSCTSjBkzxlujwcHBxiq6xGLxr7/+KpPJtm7dOlyeEokEZ7SZUBU9IKxGN2zYsG7dOhiGKRQKDMMTWPXAMDxnzpy0tLTq6upxuoWfn19ycvLYI0SgMQbPnDlTXFxMo9GmTZsWExMzZMqqqiqcumjCt+jVgaAaJdSr7OXllZSU1NDQMB5TSCkUSlJS0hhX3EskktLS0qNHj+bn56NbrygUilOnTvn6+g4ZwRk/jCP+jjmmh0BNY8LCYDBSUlK8vLzGI3MvL6+UlBSDu2Vqtbqnp+c///nPrl27bt68qb03UEZGxq1bt4b0geCPaZl+PSM+Fo3qhY+Pz9atW40edcLR0XHbtm0GF6Jisfj48eNbtmw5cuQIn8/XkaNIJDp27NjgHe3VajXObEMbGxvTr2fEx6JRfUlMTFy9erUR1/qxWKzVq1fPnTvX4Bzkcnlubi7OOpPKysqrV6/qnOzo6MCZac/lcgnlwAcWjeoPg8FYt27d8uXLjSJTFou1ZMmSVatWjUUQtra2a9ascXJyGi4BgiAnTpzIz8/XPtnQ0IBT1zs7O1s0asbQ6fQtW7Zs2bJljJW+o6Pjli1bXnzxxTHKHYKgiIiI2bNn46Rpb28/c+bMwMAA+lGtVtfX12MfB2fo4uJCqA4rsGh0tNjY2Kxdu3bnzp3Ozs4GBPOhUCj29vYvvfTS2rVrcQLa6A+ZTN6wYQPOO6NWq69du1ZQUIB+VCgUdXV1ww2EUqnUiQqkhQNp9+7dE22DmUGhUHx8fBISEmxsbPr7+/v6+vSZPwDDsK+v79NPP71jx464uDgjBqtiMploN2g415hMJuvq6kpMTKTRaG1tbYcPHx6urkc3rsZpPEwIFo0aCBoANTw8nMPhyGQy/Fn0fn5+S5cu3bZt27x584zuHIBh2NbWtqSkBMfr2d3d7efn5+vre+fOndOnTw834SEgIGD58uVEa48S1IdvFjAYjKCgoICAgGeffbapqSk3NxcNAdTb24sgCBZrPCIiwsfHh0QijV+scS8vry1btuAsD5TL5YcOHfL19c3JycEZifDx8THxNFZ9sGh0rKDi8/X1ncCtzCAIio+Pj46OvnHjxnBp6urqTp48eevWLZx8IiMjx8G6sWLpM00SyGTypk2bHBwchlunoFQqz5w5g9MesLKysmjUwvgSGBi4ZMkSnN6YVCodriUKQVBSUhIBK3pg0ehkgslkLlq0yLAZIWw2e86cORO7T8twWDQ6qQgKClq9ejXOuuTh8PPzCw4OJtRyUAyLRicbs2fPDg0NHdUlZDI5NjZ2ovZpGREilu06tLa2lpWVjes6OzabPW3aNKKNARqGs7PzmjVr6urqent79byERqPFx8ebfg8MPTEDjfb09Lz77rvaMyONTnBw8P79+52dncfvFiYDgqCEhIQ5c+acPn1az0vQin5crRoLZlDXBwcHJyUlTbQV5oSVldWGDRv0HC4ikUgrVqwg1EJQHYhrGQYMw5s2bZpAD7k54uPjs2HDBn366QkJCfHx8SYwyWDMQKMAADc3t6VLlxJtHJngLF682N/fHz8Ni8UirFsUwzw0SiaTly5dirNji4XBeHp6rlixAn+iXWBg4Pz584lc0QNz0SgAgMvlbt68mbB9TwICw3BKSsr06dNxEqxevZrNZpvSKgMwG40CACIjI/HnnFvQgcVibdy4cbg2UlhY2HAL8AmFOWmUyWRu2rRpnNYQT1amT5/+xBNPDJ4WyOFw1q9fT/xCFJiXRgEAQUFBTz31FP5ETAiCaDQaMYf1TA+DwVi6dKmrq6vO+ejo6NjYWLN4Smbgw9eGQqGsXr36zp07t2/fxklmZWU1d+7c0NBQPacVc7lcU+6nY2KCg4OXL1/+2WefYWdsbGy2b99uFoUoMDuNAgBoNBo67324LQPRoHDV1dWrV6+OiIgwi6JiXIFh+Mknnzx9+jS2En/p0qVGDNM33pjleiZ7e3u1Wl1QUICz761QKKyqqgoJCcHZLOvRgUajMRiMzMxMlUoVGBj4wgsvDBkHipiYpUZJJFJgYGBNTQ1OiA4EQbq6uoqLi6Ojo4kWUHNCcHJyamlpaW9v37Jly8yZM82oejFLjQIAKBSKm5vb9evXceK6AwB6enra2tpCQ0PNpe01fjAYDDab3dXVtW3bNvMasYNMGVveuKjV6t9//33v3r09PT04ySAICgoKeuWVV0JDQyfH7DuDQVvqdnZ2E23I6DDXchQAAMOwl5cXnU6/ffs2/pvW1dWVmZkpk8l4PB7RgnCYEgiCzKsERTFjjQIASCRSQECAWCwuLy/H38hBLBYXFxcXFhZ6enpyudzxW+puweiYt0YBAGQyOTg4uL+/v6qqCl+marW6tbX1xo0bYrGYx+PhbDxsgVCYvUYBAAwGIyAgoLKycjiPqTZSqbSoqKimpsbZ2dnZ2dmMurcYarUaDYU3ZcoUc7R/tJhxn0mH1tbWN998Mz8/X8/dmxgMxsqVK9euXevk5GQuv7RKpaqsrDx06NCff/7p5ub29ddfPwqzFyZDOYrCYrF8fX2rq6v13AhepVKVlJRUVVXZ2NiYxS8tl8vPnj37xRdf5OXlIQgiFAr7+/ujo6MNWKlsXkwejUIQ5OjoGBsbW15e3t3drU9pqtFo+Hx+RkaGTCbz8PBgMpnELFDlcnlRUdFnn332yy+/aL+BLS0tVCo1JCSEmLEbjMXk0SgAAIIgNpsdGxsrFApra2v1rPTlcnl+fn5RUZGtra2bmxuhuvxqtbq6uvqnn3769NNPKysrFQqF9rcqlaq6uprH4/F4vImy0ARMKo2isFissLAwkUhUXl6uZ2sbQZD29vbc3NyBgQHTbBCqDz09PT/++OM333yTnp4+XORlmUxWV1c3Z84cI24mQTQmT59JB5lM9vPPP3/33Xf6h0JA8fb23rFjR3BwsL29/YRU/WKxuL6+/ty5c5cuXRIIBCOmhyBo3rx5b7/9tol3FzcZk7AcRSGTyQEBAfb29rm5uXK5XP8LBQJBRkZGSUlJX1+fvb29tbW1yZTa399/7dq1H3744ccff7x9+zbO9t06tLe3M5nMadOmEXz1nGFM2nIURaVS5eXlHTp0KDc3V6cxNyI0Gs3W1jYyMjIxMdHf39/Ozo7FYhm9tSqRSPr7+9va2q5evZqent7R0SEWi0eVAwzDfn5+zz777Pz584nZ5xsjk1yjKAKBIDU19fTp03q6pQbD5XJDQ0PRHbx5PJ69vf1Y2qwqlaq7u7ulpaWhoaGsrCw/P7+xsdGwzUitrKzmzZu3fft2b29vg+0hOI+ERgEAcrk8Ly/v3//+d2FhoZ79/cGQSCQOh2NnZ8dkMr28vLy8vHx8fHx9fe3s7NDyFYIgrCSDIAhBEPTxqtXqgYGBlpYWTJc9PT1CobCvr0//Cl0HCIKcnJy2bt2akpIyuSfIPioaRZFIJEePHj1z5kxra6sRs6VQKNbW1kwm08rKis1mW1tbwzAsFouVSqVUKpVKpe3t7fjzXEcLl8tNSEjYvn070fb2HA8eLY0CABQKRUFBwffff5+ZmTkee32PNzAMh4eHb9q0KSoq6hGZFvPIaRRFLBaXlJQcP368oKBAIBAYXPubEjqdzuPxVq5cmZiYSPAITcblEdUoilKpvHPnzpUrVy5fviwSiSbanGEhkUgzZsyYM2fOggULiLYJnQl4pDWKIhKJioqKTp48mZ2dLZFI1Gr1RFt0DxiG6XQ6uvdcTEzMIzs126LReyAIUlRUdOPGjeLi4srKSpzds00AlUr18/MLCQlJTk6OiIiY3FNGRsSi0YdAEKSnp6e8vDw/P//atWu1tbUmfj4sFis2NnbWrFkRERGurq6WOIHAotHhUKlUcrm8qqrq6tWrWVlZAoFAIBAY7MvEgUqlcjgcDoczbdq0hISE6dOnW1tbUyiUSTliZBgWjY5Mb29vfX19TU1NbW1tfX09n8/v6OgY7ciqNhQKxcHBgcfjeXp6enh48Hg8X1/fyTojZOxYNDoKZDKZWCwWi8VSqbSxsbGhoaG9vb2jo6O7u7urqwt1YCEIgh7AMAzdx9bW1snJydXV1cXFxdnZ2c3NjcPhsFgsFotFpVIn+s8iOhaNGgeVSiUWixEEUSgUEokEhmErKysKhcJkMh/xHs/YsWjUAtGZhNMNLUwyLBq1QHQsGrVAdCwatUB0LBq1QHQsGrVAdCwatUB0LBq1QHQsGrVAdCwatUB0LBq1QHQsGrVAdCwatUB0LBq1QHQsGrVAdIaefvt905+DT0IQBAOIQaLaU9nB1h4ONNPtblgh4mf2VqLHSQ7T3Bhmsx/rpCFHUFPS34QeL3OJ4VBMFyJlaI1uyv8K/zIIQPMdwr4M3TrV2m0crNLlSlfhi0UH0ePzMW9ZNDquyDTKfTVnQqw9lrnEYCd/4t/6rOYsehzF8TWlRg2s6xGAXOkqjL35enF/o3ENsjCxnGq9HXj1b7vKj4tUxl8EaxgjLLUhQbAv0wU91iAaJaLuU4qEynsh4PpVkq0FX2fN/nR8bbRgKk60pK/J/XyirdBlBI3aU9kV8w9on0EAktZZ8Jfsj6VqBQAgu6+6RtyG6diCWSPXDBtI8IOpa9/2X44es8km3Rd41EsWIQClOIYvn5LwQ/M19Axf2qujUTWiKe5vbJR2SVRyOoniSueG2XjR4WFDbig0qjxhXausF0EQVwZ3uo03TmKdGymRB+GZaDAZApBSo1YDDQAABhAVJgMAehQDecK6AZXUj+kSytYN2KmdCR2maBAkvadMoBKHWnvymLoBwLoV/ZWi1jZZrzWZEWTt7s4YYlH8aA3AEKlkRf0NbbI+JaJmkejeTMepLHd4mGAQco0yq6+qQy50pnFibP2pMBkBiFyjQr+lQmSdC0fMXKZRaj9MJaKSaZQQADSYAgAgQzCddG+Z9XDhKRoknbXi9j6lyJ7KDrfh2VCGkLJCo9IABABAAjAFJmEPp18p8bJyjODwIKCbu4HLatFHj+Jh9eB3QgCyt/rM3poz3Yp+7fRMEv1F3uLdgatoD4tvQCV9r/Lkfxp+1279WJMZ272S3w9cwyDhrT2XqOWJGbuy+6rRj485R52O3kmGSJvyv0xtuQkAmGbjlTn709dKj/63IQ0rIULZnt9Oey7OLgDL54vac/9XehQ9FixOXZz5/u3eCgAABKAvQje/xHsM/SpXUPte5cmLHbkqrR8ykuPzwdS1Cx3DtQ0brQEAAKFS8krpkdTmG7KHS7IpdLuPg9avd5+rfRJ9yHuqfulX3Wt02VPZe4M3xDc9pMMAAA5OSURBVNoFTL36AnrmdPROrMejT+bdin6HSxu0v92cf2Bz/gFXOrcl5RAAYGfZj1ifqTjxXyFsD+3EJ/kZ+2rO3BXUYGfIEGmJU+RHQet1etXRN/+vUNgAANjgnvhl2NZXSr4/2vynUnPvkXpbOX0dtn2RU4T2JYb0mQqE9T/zb6HHsbb+3lYPCpuXiw+/XvaDjkABAGK17OPq37bmf619slvRPzP9zX01Z3Sa5wMq6Wc1Z5Pv7FbcLxUGo0Y0q3M+xwQ61z7k1IzXyNBDYeVUGs3jmXu+qvufdhVW3N84L2PX5a7CIbPdUnAAFSgAAAFIFMcXPf5vQ1p8+s5z7dnaAgUA5ApqF9157+3y1CFz09MAhUaVfGf34cYrskFVbaus95m8fx1uvKJ9cnP+gdfLfsAECgDoVvRvyv/q8/sa0ma0mY8WDYJsLfh6Zc4+bYECAFSI+mx7dtSNV8+2Zw95oUApnnPr7UONlzGBAgDqJR1Lsz7EflaUEcpRgVL89N0HXSKlRt0m680T1qkRDQDAhmJ1KPxv2Ld5wrqv6i6ixw409irXWdZkRqWIf6YtC01/rOXGJ8HPTKHboWk25n1Z1N+AHttT2fMcQqkQ+XzHXbRPdqunfE/VqX8Grh7SsL8XHzp3/4+fwfE9F/Pm4OZB6UBT6UATDaYsdorkUJh/dOa3ynoBADKNcl3uFxXzD9hSdPfd+rX1DnbsaeUQbxcAALjeXfJc0X809wMReFk5hrI9GySdmE9jT9UvLnS7v3kvMsyAr+svYr9KsLXHY85RGkRzu7ci4/7b8mnN6S2eSejxseYbmPcaAtATLtGhbM/S/qbTbVkHGy8PflB6Zg4DmEu1lmuUWHnBItNpMMWOOsLWZB9UndJWeYQNbwrDrkBY3yLtAQBI1PJVd/fdmvVRJMdH50JUu95WTn9xiVFoVD+2XEd/dxWi/qz27M9Rr2IpR9CoXKPU/tm0cWNwr8a/58+agp0pEjb4sVxqxG0kCL418yPsq7fKUz+s+gU9LhtoRjWa2Vf1v45c9GS4De9S3C4nGgcA0Cztjrj+CloS/6vuwhv+Tw8W3yfVv31Tfwk9Drb2+D3uXWvy0Lt82FFZNxL2oBWTSCVblPnerZ5yAECnXHiw4fJrfn8ZfMnnIZue817UIu2uFrVBAEIAsr3gG0yge6au3en3FNqMO9V6e23u52gxsLPsh5WuCfZU3XENfQyol3ROodu1ynoDWa535+zFWjgz099AlVQtalNq1Gjr7ZOa37DMv4948Rn3RPT419Y72qUJhp6Z21FZ3Yt++L7pT8w1/u+wZ9e5zxnyqWI0Srreq/wZPbYi0X6Lfj3FMRwAoELUb5Qd21dzBgAg0yhfKPrvndmfDL48yWHahdi30ObfGrfZ8ek70fN3+x4qkg0fC22R9izOfP+KVp210WNe5fyvB5acKEn8Ulu7IdYP2i6Y30pb+h8HrUcFCgBwZ9i/6f/UVs8FX4VtOx/zFjyoBf0TP/2NsmPoMY/pdDl+N867/k7ASqzlxCLTD05/UOpf6MgZnH4WN+gfPkvpMMWX6YK2im50l1aL29Bv59qHvOn/NNbPWD4lfrtnMnosUsmONd8wzIAvQ7fyUw73LPoxLX63dhM8+P6FCEDQmp0v68EGe2Jt/TGBAgCemhK32ClysAH6Z24AR5quojUkAOA1v7+k3G+XkyHSJ0HPhLG90I+ZfVUFwvrBl38esgnrn8TZBfgwndHjXuWAdrIRylErEu0574XoMYIgco2yVynKE9RVivgAgFpx+5LMDy7FvTPPPlT7En/WFL6s505v5V1BTXpPmXbzAmvP5Wg1XxK4gdo3/YfPUhyT0O4ISqxtgAsdLzK8zs8WyHLlMZ3qxB0AALTlroNO7wcAcL27BDve6rlA59ttnslf3y/Rb/SUvuzzuMEG2FFZtoBZNtCc3Ved1Vd1rbsEfcgo6HMrvi9QAMBc+xCdeyU5hF28XzXpoE/mBnC9R/vhJGl/BUPQZs/5LxcfRj/e6CmdbvPQDlIUmKTT8XKmcWrF7QAAufqhpvMIGrUmM/YFb9Q5iQBkT9Uvu8qPAwAUGtU/ir8rTPwC/UqolHxee/Z4S3rN/bJHBxi6V3Jj/So6TGGS6PhmDMeJlvQXvBfr9JG1caHpKtiVzkUl0q+SYBUoxmBfUpO0GzvGXvQhz/ClPQYbUCVq3Vdz5re2zB7FwOBMAAAwgAEAfYoHQfsHtyucB90LRc/MDaBJcu/h0GEK1s3A0PZIDn44thSWjpsJK1N1IpAZ4nuCAPSG31P/qr2A6gz1urnQbVtlvfHpOxslXWgyGIJC2Z7xdoEMmPp57bl7J++bhYVCUyGj3tODQaJqEESuUSIAean4UNacTwc71VAGewaQ+08AAtBg1+Nglx6d9KA1PDh+m7YrjQQN8UvrY8DVrqLHMj/A+t10mDLD1m+m3dSSgabz7XfRk2hKbYMH+9uH9MDrn7kBaD+cwdC0HJSDHw4F0tXecGGBDXyBSBDMpjzopqDd1ddKj2IC/WDq2q6FPxTM/eKbsL/O5E59cL/7djjSbNADFaJGL8dolnbf7Ckd7qWnwuTT0Tv/zluCfrwrqDnadG04OwcX53zpvXvZUpmDHxxtUP9Mu3hAayJtqsUP9iIb0p8/ogFqRLM5/wCqITbZ6tSM/xMsSb05c8+HQeu8rRyxq9Dnpt2wKRto1sl58NyJUWVuANjDkWmU2N+FUSUa4eHoiYEaLRQ2NEg6sY/oRKSLHXnox3i7wLf8n8a6Mt1DqS1Kyxlx6f6FKF/XX5pz6237S884/b5Rx1UGAPgiZHOKY/hb/suxyu6Nsh8HVNIh7fyl9bb2x2pxW73k3pahETa63hAw1OueYPegrfxt4x863x5tfvB6zHMIM8CA0oGmJum9F/sF3uKnp8Rj78ng5xZuw8NGTy505Gj7ofuUomMtup22UWUOHhYrolvlDsFDD6fhoYeDAOTH5uvYxyEfjp6MoFGFRnWlqxD7l9ZZcKYt6/3Kk/Nvv4O5Y+LsAtBeOSaUNlkf5piVqOX/rv9dO0P0YIVrAnby7fLU0oF7vYGS/ibMr6TQqAaPHHowHAAANhSr3YGr0DPtcsEHVaeGtP/Luv+ldRagx2K17NmCf2Nf/UVr4hkOc+1D0DsCAG71lL9bcQLryaa23Py85l4bhku1Xus22wADBrTGL5ru10IAgBpx2zkt7zf63KzJjKXO0egZoVLyWOaeQmGDQqPK6qtKyni3Uy7UufuoMgcP179tsj4wVFtFm3Xuc7FW1me1Z7E8FRrVy8WHM/uq0I8LHKYFslxx8sFnhPZon1K04PZu/DQfTF2LHoTbeKODDfWSjsez9mxwT+xS9H9df1G7zO+93+qP4vg+6RL7W1smAKBdLph+bUe0rR8A4K6gGtP3K75P4AyH/tUr+UDd/ypEfADA/trz2z2TB/dp5BrlwjvvzbYPcqbZ3uguaZcL0PMeDIcNHom6OQ4FBKBvpv318cw9aLnyXuXJQ41XQtgeDZJO7b/rq9BtQ/poRzQg2NqdApPQPzm15SaHwpzFDSoZaDpQd1F7+K1XIUILgvenrvlfRw46oSerr2r69X9gaegwRWcwabSZYw0wAMCuiuMn+Oltsr72hUeGezh+TJdXfZ/YW3MGACBVK57I+ijY2mMK3bawvwF7Ydhkq6/Cto3wlHEZ01oRCED7Q7dgjqfdgauwt+qPzvw1uZ+/VHyoStQawvawItHQ89jAEgDgcPgLM+4PNqoQ9e3eitu9FZhAFzqG7/R7EufuZIi0977PQaFR7SgZ4lEucopAAHKju/Rn/i1MH9Zkxk9Rr+jvTFjiFPll2Faskm2V9aZ1FmAChSFof+iW1W6zhrx2RAM4FOYOnyfQ8whADtRfXJmz7/3Kk31KEfrSomDPLZDlejxyx+BxjRC2B1axgPv9j9FmPsPWF3ssCo2qQFjfIRfge08/DFqn7aYtHWi63FWICdSOyjof+2bAGApRMCqNwhBEgUlMEp1LtQ5he2z1XFCQ+Dk25QIAsNgp8qeoV7Tb9VYk2ss+j9+Z9Umy43T0zK9td7DuJ4fCvDFzz66AFVyqtfaNnGmcj4LWn4t5S2f8fTCPOUclOUxDj8+1Zw8ehf8x4uV3A1ZqF8azuEG3Z32M464akhe8F2fP3rt8Sry2OGAImmcfemvmR9oPwQADPpy67i3/p7HXGADgQrf9Omx7xqyPsDb38ZZ07NtlLjE5c/etdZvtQrelwRQ/psuugBVZsz/VfozU+7X2qDJnk62+C39Be449i0zvVeDtUkmGSEcj/n46eucc+2Bt7wqDRN3gnpg/9/PZ3GCcy/XB+PHwVYi6UNjQLhfYUpjhNjz8uUsoGgQpGWhslfVBAHgwHAJYrgb3NAEA63K/wPz8fYuPcShMkUqWJ6yVqZUBLFdPKweDcwYAiNWyalFbm6yPRaYHWbvrvF1jMUCsluUJ6gZU0il0uzC213BPQKFRaU860+ZA/UVsRY3Oa6Bn5ihStSJHUCNSyRxpNqFsz+FuN5huRX+tuL1XIeJSrfFnY44K4295QYZIgycQ4ANDUBjbCxs6MzosMn3sbzMKk0SfbuOtM2RiFAOYJPosbtCIWfldeV6uUXpaOXgyHJ73XqQ92pQvqMOOdZrmemaOwiBR9U+sjT2VPXhkYexYtmUxMwKtXdM6Czrkguy+6uL+xs9CNnlbOfUpRefa72KOsEiOj3bvx9yxaNTMeNV32eXOQtTJUCHiL8n8QCcBBKD3hpnQaKZYYkCYGQscph2N+PtwK4rQTs+QE6DMl0m4h1hmXxU2BvaUS5zOrJHJYUC/SvK/9txcYW2rrFeskjNIVCeaTRTH9wmXaBMviDMBk1CjFiYZ/w8JOg1Py75uJQAAAABJRU5ErkJggg==;" parent="1" vertex="1">
          <mxGeometry x="617" y="349.75" width="61.87" height="49.5" as="geometry" />
        </mxCell>
        <mxCell id="ygFGr8_wO-zUAzRDIiU--18" style="edgeStyle=orthogonalEdgeStyle;rounded=0;orthogonalLoop=1;jettySize=auto;html=1;entryX=0;entryY=0.5;entryDx=0;entryDy=0;strokeColor=light-dark(#009900,#EDEDED);" parent="1" source="ygFGr8_wO-zUAzRDIiU--19" target="ygFGr8_wO-zUAzRDIiU--14" edge="1">
          <mxGeometry relative="1" as="geometry" />
        </mxCell>
        <mxCell id="ygFGr8_wO-zUAzRDIiU--19" value="" style="shape=image;verticalLabelPosition=bottom;labelBackgroundColor=default;verticalAlign=top;aspect=fixed;imageAspect=0;image=data:image/png,iVBORw0KGgoAAAANSUhEUgAAAJ0AAADQCAIAAACSgvQzAAAACXBIWXMAAA7EAAAOxAGVKw4bAAAgAElEQVR4nO2deVwT197/Z7IRwhbCEtkUZBVERKpUsIKFCorSCrihAoqP2lZbt6rV+vL2XvXWW/fWal2rdVdqFQFRvK7IJlpEEBBkCUhYwhJCCNnm98c8d37zTBZCMgkhN+8/eIWTM2fOzCdnP9/vASEIAgyU3c+LAADY+sHEoc7IEAAasK7/zRCGOgNGtIJRV8PEqKthYtTVMDHqapgYdTVMjLoaJqShzoC2EIlEPT09fD6/r68PAAA7Ozs6nT7UmdIdw1VXiUTS1dXF4XB6e3s5HM67d+9YLFZDQ0NHR0dvb29PT49IJIJjwhMvGzduXLRoEYHw31I/DTNduVxufX19XV1dVVVVXV1dXV0dh8Ph8XgDzpqRyWQQBHWTSX1gGOgqFot7e3ubmpoePXr06NGj1tZWuHaVSqWqJyKRSCAIAkFQKBS2t7fDgUQiEQRB+C+JRCKTyfBf7TyHTtFrXblcbk1NzfPnzwsKCl6/ft3b26t2UhQKBS6vr169Wrp0KQAARCLR3NzcxMTE1NSURqNZWFiMGDFixIgRzs7O1tbWI0eOdHJyMjExwe1hdIue6ioSiXJzc+/cuVNSUtLW1tbf34/7LSQSSXd3t2w4iUSysLCwt7d3dnb29/efMmXK6NGjh10h1jtdORzOs2fPMjIyCgoKxGKxileBIEihUMzNzWk0mqmpaVdXV2trKzqC6stWYrG4s7Ozs7OzsrLy3//+95EjR0aNGjVlypSQkBBPT09bW9vBPc8QoUe69vX15eXl3bx5s7i4WG5JksXFxcXLy8ve3p7JZNLpdFtbWzqdbmlpefXq1fPnz6Nj9vf3w+3roLIEQZBIJKqurq6pqUlPT/f394+KigoMDHR0dNTzXphe6CoQCEpKSq5cuVJUVNTV1aUoGoFAMDExoVKpHh4eQUFBfn5+np6ecBtJoVCQMYxYLDY1NcVca2JiookSEARxOJyHDx8+f/7c3d195syZU6dOdXBwIBKJaqepVYZe17q6uuvXr2dnZ7PZbCXR7O3tg4ODg4ODPT09PT09B9vgKek8W1paOjo6crnc7u5uPp+vvMbm8XglJSWlpaU3btyYN29edHS0hYXFoHKiG4ZSVwiCioqKDh8+XFFRoaRnZG1tHRUVNWPGDA8PD0tLS/XuJRKJFNXDY8eO3bBhg0Ag4PF4bDa7oqLi3bt3VVVVnZ2dilKTSqUVFRX79u0rKSn57LPPAgMD9a3gDpmuTU1N586dy8rKkvv6QBBkMBheXl4xMTGTJ0+2tbXVcKqISqUqqofJZLKzszONRoP/lUqlEARxudyCgoInT56Ul5c3NzfLHWL19vbeunXr3r17SUlJ8+fP16su1RDoKhKJKioqTpw4kZeXJxAIZCPQaLSgoKD4+Hg/P78RI0ZoOz9EIhFd2uAfkLW1dXR0dFRUVF1d3YsXL548eVJSUoJMaCBAEMTn80+fPt3Q0LBw4cLx48drO7cqomtdhUJhfn7+4cOHq6urJRIJ5lsymWxnZzdv3rzZs2fb2dnh2OcUCoWK6mGpVKqo9QVB0M3NbdSoUZGRkSwW68qVKzk5Ob29vZg2WCgU3rt379WrV1u2bJk8eTKFQsEr22qjU125XG56evqJEyc4HA7mKxAE7ezswsPD58+f7+XlhfutkfkmWUAQVP4DIhAIVlZWVlZWvr6+U6dOvXHjxl9//dXT04OOIxKJGhsbt27dmpqaGh8fb2VlhWfuB4/udO3v7798+fKVK1dkRQUAICAgIDExcfLkybpfTSMSiSSSSu+BQCB8/PHH48aNu3Pnzh9//FFbW4spuFwu9/Tp0xKJZN68eUMrrS50hSCoq6vr8uXLx48fl51CsrKyioiIWL16ta2trfYG+0rqYQiCVF9CIBKJTCZzyZIlERERmZmZZ8+e5XK56Ajd3d0nT55ks9nLly93cHDAIetqoQtdOzs7jx8/npaWJiuqvb19cnLy7Nmzra2ttZoHJfUwBEGD3RxPIBCcnZ2XLVtmaWl59uzZpqYmdAp8Pv/mzZs0Gm358uVDVWq1rmt/f/+JEyfS0tIwXV8CgeDp6ZmcnBwZGSk7PaRLCASCeqNPEokUHx/v4ODwyy+/VFZWoruB/f39V69etbKymjt37pBIq11duVzu5cuXr169KhQK0eEUCmXChAlr16718fEZ8hE9BEESiUTFJhYDmUwOCwuj0+knT558+vQpukLi8/m//fabWCxOSUmhUqn45VcltLgvRCKRPHz48NKlSxhRAQAICgrauHGjn5+fzkSF21dF32rYro8bN2716tVRUVGY8O7u7t9//z03N1eTxNVDW+VVJBLl5eX98MMPmPEAkUicMmXKli1bnJ2dtXTrwSKVSmVH0oMCBEFvb+8dO3YIBIInT56gf8dcLvfAgQNOTk5eXl663F2lrTtVVFQcOXIEIyqBQBg/fvyGDRt0L6qSfhORSMRl2dzU1HTlypWTJk3CVELv378/c+aM7FyVVtGKrk1NTSdOnKisrEQHgiA4bty49evXu7m5aeOmaiORSJDNixri5eW1Zs0aJycndKBIJLp//35aWpqGtcKgwF9XPp9/7ty5vLw8zGOMGTPm22+/HTduHO531BC8yiuclK+v77p16zDT2v39/Wlpaa9fv8blLqqAv67FxcWZmZmYUY21tfXnn38+ZswY3G+nIsr7TfgyZcqUJUuWYIY3ra2t165d6+jo0E0ecNb1zZs3P/30E2bPA4PBWL16dUhIyBDuHVHSvorFYtkeuyZQqdQFCxbMmjULHQhBUE5OTk5Ojm5qYzx1FQgEWVlZtbW1mPDw8PBPPvlEH1Y55KL2vIQSKBTKggULMPOIvb29GRkZuimyeOpaUlKSlZWFqYE9PDwWLVqk7WlCTdCGrgAAuLi4xMTEYHYgl5aW6mY4i5uuXV1dly5dwuxRsrGxWbJkiaenJ153GUYQicS4uLiAgAB0/S8SiW7fvq2DIoubrvn5+UVFRf8naQJh8uTJkZGR+rAlU0m/SSKRqL5ReVA4ODjMmjULM4lYVlb27NkzbdwODT66dnR0ZGVlYVasXF1dV61apfZOM51BIBC0NBNEIpEiIyOnTp2KDuTxeHfv3tV2kcXneXJzc58/f44OIZPJc+bMGTVqFC7paw6+63SqY2FhMWvWLHNzc3Tg27dvm5qatHRHGBx0FYlEGRkZmMLq4+MTERGheeI6QEv9JgRfX1/MwJ3NZmu7KsZB19zc3Pz8fHSImZlZdHS0DrYS4gK8Tqe99BkMRlhYGLKPFQAAsVick5OD1+SlXDTVFZ78xLwXR0fHsLAwvbJBg/eFK/pWqz07EokUGBhoY2ODDqyurq6rq9PeTTXVtaysrLi4GB1CJBIXLFgwcuRIDVPGFyX26iAIansFbfTo0ZiqWCqVvnz5Unt31Oh5JBJJWVkZxiIRLqz6MLZBo6WRjIqYm5sHBwejQ6RSaWlpqTbsemE00rWnp+fx48fozIEgOG3aNDs7O40zhjNKekZisVirTR3M1KlTMbVCVVWVclMzTdBI17KyspKSEnTIiBEjpk2bpoduV5TUHwPuC8cFW1tbzMIzh8Npbm7W0u00EqC4uBhjkOTk5OTo6KhZlrSCkn6T6vvCNQEEQVdXV3SIQCDQxGOGctTXtbu7u6CgAB1CoVBCQkLs7e01zhX+KPfzMyjXMupBIBB8fX3RITwer6GhQUtDLPV1bWhowFQjpqamAQEBOvjt4wtsGKntu4Ag6O7ujm7mJRJJc3Ozlpp29XWtra3l8/nokNGjR/v4+GicJV0zKDsOTbCwsMAYtzc1NemXrkKhsLy8HHY9iDBp0iS9neVXohyO+5uUQ6PRMBPFsDcTbdxLzTqzq6urtrYW87K0Yd+oA16/fv3tt98OqksMgqCpqelgvXZ1dXVhZtG5XK6WBtZq6trZ2clisdAhtra23t7eeGRJKygZerHZ7Dt37gw2QfWGRpjSCXv3UyOdAVG/vGL8QjCZzKE1n9IxuOihvXpYzfa1oaEBM/ZycHDQvXXRcIfH4+nXOIfFYqF/aCAIDmsvkUMFg8HQ0rBQTV3fv3+P/pdKpbq6uurtTlK9hUajaWsLjnqXYdZwTExM6HS6vq3hoBEIBLAfAnd397179w51dv4XOp2OGfnghZq6YrZdUanUIfeAohwSiQT/7GDvbUOdHa2j/jgH/S+ZTNbzzjCBQBCLxfpco+Db0KqTlqxBiz6/L5j79++3tLQMdS4UQiAQVqxYgWMHRR1duVwuZlbTxMTEzMwMpyxphby8vLy8vKHOhUKIRGJqaiqOCarTGRvaPSUD0tLSUlpaOtS5GDT47olRp7zKnmsC+2DHKUsaUVdXd/DgQcy+12EBvqN/dcqrubm5fjaobDb72LFjjx8/HuqMDBoQBPFdU1LTaREmRGdLmIqAIIjFYu3cuVOfG1El0On0oe8PW1hYkMlk9MSmQCDo7u5mMpn4ZWxwtLa2Hj16FLMvBwAAEAQ/+eQT/XELDMPlcv/880/0ZkTcZ53U0ZVEIpmYmKDtl/v7+7W3BWtAGhoadu3aVVBQgKkz6HR6XFxcUlKSvllVV1RUYFYGMdYAmqNm2TczM0MfhdLf38/j8XDK0uCAO0qyZkw0Gi0+Pn7JkiW4vzLN6e3txVj1497rVLP4Y16WUCgckvJaX19/6NAh2Y6ShYVFbGxsUlKSHooKAEBPTw9mVIN7jaKmri4uLuh/+/r6lJx7ow0gCIKrX1nDNAsLi8TExC+++ILBYOgyS6rT09ODKa+Y96k5auo6evRo9L8ikYjD4ejAGgJBSUdpxowZ+uypBPayjSmvuHc51WxfmUwmCILo2Yna2tq+vj7dbOxraGjYvXt3fn4+pqNkZWU1Z86clJQUvRUVAIDe3t6Kigp0zs3Nzd3d3fG9i5rl1cnJCbMVtq6uDrPtVEvU19fv27cvNzcXs4OERqMlJCSkpKToZ5uKIBAIGhsb0SF0Oh33VU41dbWyssK0XrW1tZhNFNqAzWYfPXr0yZMnmHAymRwdHa23HSU0fD4f41zCwsIC9y1EaurKYDAwvmaFQiHGdQjusNns7du3Z2RkYBpyCoWybNmytWvX6m1HCU1VVVVbWxs6ZOTIkbjnXP3yirE2AQDg7du3eGRJPiwW69ChQ4WFhZhwGo0WExOzePFifW5T0VRVVaH/pVAoY8aMwX38qma/iUwm+/r60mg0tOfo8vJyDoejjZpQ0YySlZVVXFxccnKy7k/dUY/u7m6MHz0zMzNfX1/c5xHVT87Hxwft4wQAgM7OzoqKCo2zhKW5ufnAgQPPnj3DdJRAEBwWHSU07969q6+vR4fQaDTcO8OAJro6OTnJzk4UFxfjuz7MYrH27dv36NEjTLiZmdmcOXOSkpKGRZsKA0FQWVkZZkbCz89PGwdRqq+riYlJaGgoOkQkEj1+/BjTideEtra2H3/8MTs7G9NRgp25rVu3bhiJCgBAT0/P8+fPMb/7CRMmaGMLsUYpTpo0CTPwamhoePXqlWZZ+v9J7d+/X7ak0mi0WbNmrVy5cri0qQgVFRWYMw8cHBwwZQMvNNLV1dXV398fHdLX1/fgwQPNJxTr6+t3796dlZUl21GaN2/e2rVrh52oUqk0KysLPXIFQXDSpElactugka40Gm3y5MkYc6vi4uJ3795pkmx9ff2BAwfkzijFxcWlpKQMr+oXpqWl5enTp+iZVzqdHhoaqiVjNY10hT3EYeasuVyuJptR4HGq7NIbPE5NTk4eRr1fNM+ePcN4a2IymT4+Plqyz9E0UR8fn6CgIEzgrVu31HD+B0HQ+/fv//Wvf927dw9Tk8O936+++mqYitre3p6RkYEOgSth7fnx1VRXeGIWU5mwWKz09HS5Z6crgcVi7d+/X25JnTVr1ooVK4ZdmwojEonu3r2LGdnb2NjExsZqz4EZDulOnDgR06mDD+YoLy9XPRG4o5STk4PpKFlaWiYkJHz++efDsU2FaW5uvn37NnpijkgkRkZGavXYAxx0JZFIMTExmPfOYrHS0tJU3BxTX1+/f/9+2Y6SqalpfHz8smXLhmn1C5Odnf3mzRt0iKOjY1RUlFa9DeKT9MSJE2Vb2adPn8ruZ5CltbX12LFjsktvJBIpKipqeE0TytLa2pqRkYG2fAFBMCAgQNs+VvDRlU6nx8fHY4psR0fHhQsXlLvsbG9v/8c//nH79m3ZGaWFCxdu3Lhx+Fa/AADweLxff/0V04W0tbWNi4vD7ErAHdyqgg8++EB26uTVq1e3b99WZAoAzyjJdpRMTU1nzZr1P//zP3puK60cCIIyMzNlDy6LjIwMDAzU9t1x09XExCQxMRGzn00gEJw/f/7Ro0ey3mwaGxv/+c9/ZmZmYlQ3MzObO3fu119/PVzWUxVRXV19/vx5jGF/QEBAUlKSDlxI4tl0e3t7f/bZZ5jFOw6Hc+LEiXfv3qGlbWhoOHz48NOnT2U7SrNnz05NTR3WbSoAAO3t7efPn8cc1Wdpafnpp5/q5jgLPHUlk8nh4eF+fn6Y8IqKilOnTiH2ASwW6+DBgzk5OZhopqamM2bMWLVq1bBuUwEA6O3tvXjxYnZ2NjoQBMHQ0NCwsDDd+HvFuavt5ub21VdfYapQ+FC233//XSQStbe379mzR3ZGiUwmJyQkrF+/friXVAAAHjx4cPHiRcwYj8FgJCUl6cw5M/6/nYCAgMTExOPHj6OVgyDo6tWrdnZ25eXlsh0lEAQNoKME8/r162PHjmFENTExSU5OHjt2rM6yAWrDP19bW9vBgwczMzMxHguoVKpYLMYEWlpawtOEw72kQhBUUFBw4MCBN2/eoN8qjUabN29eamqqLudBtTLlYWdnt2zZMtmj1AUCAUZUU1PTuLg4AxAVAIDy8vI9e/aUl5djisqkSZMSExN1PLmtraksNze3ASd1iUTi9OnTly5dagCiNjY2/vTTT9XV1ZhwGxub5cuXYw5u1gFaqYdhJBJJTk7O3r175U45kUikBQsWrFq1ygDa1LKysr1798pui3d2dt6yZcvUqVN1745Di1PPRCJx2rRpS5culescnkKh+Pn5DXcXqEKhMD8/f/fu3bKiMpnMVatWhYSEDImPFeLf/vY3LaZOJPr4+EgkkqqqKsw+PLFYXFlZ2d/fP2bMGL06oVB1hELhtWvXfvnlF1lDByaTuXz58k8//XSoHk27ugL/kRaCoPLycsyYlcvlvnjxQiKRjB49Ws/dtcnS3d39559//vzzzxhjGwAALCwsli5dGhcXN4SOtrWuK/AfExQQBOECiv5KKpWWl5c3Njba29vDNrXazozmQBBUUlJy9OjRq1evyi4wwyV17ty5mPlUHaPFfhMGkUh069at06dPNzQ0yH47YsSI+fPnx8bG6udxWQg9PT0ZGRnnzp3DHFsB4+Hh8cUXX4SHhw95y6I7XQEAEIlEDx8+3LVrF4fDkf3W1NQ0ODj4888/hwu3znKlOjU1NWfOnHn8+DHGTS+MjY3N999/HxISMuSiAjrWFQAAqVT6+PHjc+fOvXz5UtZ/JgiCDg4OERERsbGx7u7u+vCCgP/4KElLS8vJyWlqapJdTiaRSKGhoSkpKUFBQXryi9S1rjAsFuvUqVPp6ekYP8YILi4uc+fOjYiIGPJzn5ubm/Pz869fv15aWir3XZmYmMTGxqampjo5Oek+e4oYGl0BAOjo6Lhy5cr169cxRwUgUKnUUaNGzZw5c+rUqa6urjo+zlAikTQ0NDx8+PDu3bu1tbWKNuC5uLgsXLgwNjZW32ZXhkxXmFevXh06dKi0tFSJzxELC4vIyMiYmJiRI0cymUytbuODIKilpaWhoeHRo0eZmZnt7e2KYtJotPHjx69Zs0aXqzSqM8S6AgDAZrOzs7MvXbqE8aaBgcFguLu7BwYGBgcHjxs3DvehoVAoLCsrKygoKCoqevv2rdyeEcKoUaMSExOnT5+uDdNVXBh6XQEAEIlE79+/P3ny5JMnT+R2lRFIJJKZmZm9vX1QUNC4ceN8fX0tLCxoNJqJicmgOlkikUgoFAoEAi6XW1ZW9vLly+Li4vb2dj6fr8QYEARBW1vb8PDw1NRUJpOpzyfd6oWuMEKhsKio6MaNG0VFRZjtXoqg0WijR48eNWqUg4ODra2tjY0Ng8Gg0WhUKpVMJiOTz0KhUCgU9vf3w/50W1tb29rampubm5qaqqurMWc8KoLBYHz44YcJCQmBgYH6rCiMHukK093dXVJSkp2d/fjx40H5XCSRSDQajUajkclkCoWCPjVdLBZLJBKxWCwSifr6+np6egZ1RIGtre3HH38cERHh5+enb/0jReidrjAQBFVWVl67du2vv/5qaWnhcrk6zicIglZWViNGjAgICEhISPD29taTgamK6KmuMEKhsKGhoaysLDc3t7i4uK2tTQe5JRAIjo6OQUFBoaGh3t7eI0eO1P9aVxa91hVGIpEIBIKWlpYnT548evSosbGxr6+Pz+crmtMYLCAIUigUuA4fOXJkeHh4aGionZ0dlUrV6phKqwwDXdGIxWI2m11XV1dZWVlRUVFbW8vhcDo7O9U4RZVIJFpbW9va2rq5ufn6+np7e7u5udnZ2WGcyA1ThpmuCFKplMfjcTgcHo/X1dXV0NDAYrHgzi2Px+vt7UUfmUskEs3Nzc3MzMzNzRkMhpubm4uLi4uLC3yco42Njbm5+fAtmnIZrrqqgkgk4nK5lpaWerJ+oEsMWdf/Zgyq8jGCYNTVMDHqapgYdTVMjLoaJkZdDROjroaJUVfDxKirYWLU1TAx6mqYGHU1TIy6GiZGXQ0To66GiVFXw8Soq2Fi1NUwMepqmAy84xmCoLNnz2ICCQQCkUg0MTGxsrIaOXKktr3VGxk00ECoctich4fHH3/8MWBShk1TU1NSUlJTU9NQZwSCIAgfXWGOHDmigxzrIQKBYNeuXfBZ2iwWa6izA0GD1ZVAIDCZTCaTaW9vb2VlhTFFolAob9++1UGm9Y0VK1YgL0FPdB1cv8nBwYHNZrPZ7JaWlq6urp6enqNHjyKm40Kh8NSpU4NK0DDA94hqXNDIUszMzGzVqlXt7e3bt2+HQwoLCzFxeDzeq1evmpubRSKRubm5m5vbmDFjMEYTIpEItrkgEAgUCqW3t/fBgwckEmnixIloF7YSiaS0tLS+vp7P51OpVCcnJ1mHBIjfajgpAAC6uroKCwt5PJ6HhwfaJbJEIsnPz29ubmYymZMmTVLkgVMikRQXF7NYLCqV6uHhgekhSqVSoVCItg6CraeJRCLGyKC3t7eoqKitrY1Op/v7+8ue3gBBEPL7oFAoBAKhtLT07du3rq6uEyZMkJs3ZQxYotH1sJOTk2wE9JHKgYGBSHhXV1dqaqqsIwhHR8dz586hU4iJiYG/CgsLe/XqFfLMVCq1oKAAgiCpVLpnzx5ZZw5mZmZbtmwRCARIUl9//TX8lbu7e19f3/r169GCBQcH19TUQBB0/fp1R0dHJNzGxubs2bOY55JKpYcPH7azs0Pf0cvL6/r160ica9euyX2rixYtQuJ0d3evXr0a/R5AEJw2bdrLly/RtysqKkIiPHjw4Msvv0T+jYuLG1AmDDjoeubMGSRCREQEHNjf3z9p0iS5zwxz8uRJJAVE18DAQPQJPBYWFnw+H4Kgr776SklSixcvRpJCdHV2do6IiJCN7OHhsWvXLrnppKenI+lIpdLFixcruuP3338PRxtQ1/b2dlm/6TCmpqZZWVnIHdG6xsfHo2Pu3LlTdUVhNNW1uroafYjpunXr4PD9+/cjgX5+fps3b/7mm2/QB2J5eXkhiSC6YkhKSoIgqLi4GOmg2dnZrVmzZuvWrfHx8WiDRmR0geiKZHjdunVr1qzB+EsFQXD27NmbNm1CnwoTFBSEZAmdf1tb21WrVn355Zdo343Z2dkQBN26dcvGxgZdJVhbW9vY2KxatQpOJzY2FvnK19d3/fr1ixcvRqpoBoPBZrNldcUAnz6kRV3NzMxWrly5cuXKFStWLF68ODw8HG7DYAgEwl9//QVftWbNGrii8/HxgcscDCItCIJCoVBWVwsLi5ycHIFAkJubC9dUZ86c8fLyIhAIZDK5srISSWrr1q3IVffu3ZPV1cvLq6OjAw4/efIk+k0dOnQIDu/p6UFqWhKJJJFIIAji8/lIu85kMhsbG+HIbDYbqb1DQ0ORnCQnJyMpo/vD6N5GREQE0l48fPgQ6WFs27YNDsTompiY2N7e3t7efuHCBZWU/L/gOX7dvHkz5loOh9PQ0IAOQQ8J2tvb4UC0rtu3b5ebjd7eXrSoEARdvHgRuQpp89C6Hj9+HIlcWVmJhDs5OcH6wURHRyNfdXV1QRB0+/ZtJGTPnj3om6LLMSKhIl03btyIhMMdBQSkHHt4eMAhaF3NzMxglxpqg4/nBCqV+t13323btg0TzmAwrK2ty8vLCwsLCwoKHjx4gH6/cp2yoN8yGhqN5uXl1dTUlJeXV1RU9OTJE3RpkJsUumFD+6IfN24cukOOPikDTgf9igkEQn5+PvIv2tfEy5cvnZ2d5eYWBp0Oj8dDp4OcaFFTUwMb6aIvDAkJ0fDAycHpSqVSo6KiAAAAQZBIJNJoNFtbWx8fn08//ZTJZGIiV1VV7d27948//lDkakuuibiLi4tsYHd39/79+y9evCh74IWSpNDHbqH1wJwSgm6nIQgCAADtsvGbb76Re0cAAOQ6UkaDTkduJw6+I4vFwhz+JvclDIrB6WpjY/Pnn3+qEvP+/fuzZs1CjlinUqkTJ06cMmXK69ev09PT4UC5Ysg6SHr//n1ISEh9fT1ylb+/f0hIiKmpKVIryk1KkWuBAf27qOitgs/naykdzb1EacWDjUQiWbZsGSyqpaXlqVOnZs+eDXca0e2f3PcuOz+wadMmRNSdO3cix/LcuHFDua5qg5cV4wEAAApGSURBVB4op6enh4eHy4024GEitra2VVVVAAAQicTW1lZ0HxONrMd4zY8p0cr6a1lZGVJHrV69OiEhAcmoEg+hMLLuWDIzM+EPISEh27ZtQ2rRAZNSG/T8zuvXr81RlJaW5uTksNls2LEbHAf9q4JQfh2QdOATSdDp3Lt3Ly8vj8vlynVZorlPGq3o2tPTg3xGN0LV1dW3bt1C/lXRAROSGjwZCX/m8/lHjx4dbFIqEh0dDS/OAADw448/Ise49vX1paamzpkzx9PT09raGjmJAz1l2NzcjOQnISEBCd+4cSPixLiqqmrBggXTp093cnIKCQnBMecIWqmH/fz8yGQyrMGFCxfodPpHH330+vXrn3/+mcfjIdE6Ojpke1uyBAYGwh3L2tra2bNnJycnt7W1HTlyBK7ikKRwzL+ZmdnmzZvhSe+Ojo7x48cnJiYymcwbN268efMGjpOYmIgMfNHzFdHR0U5OTh4eHjdu3AgLC4uIiLh//z4AALm5uQEBAXPmzAFB8OzZs8gPETORghsDjoQGnEeUy+bNm+XeDj25ePnyZTgyevwqEokwSWVkZMj1TTh27FikZULmd9CvCb1oiD7lJjk5GZ3+okWLkK9gV30QBInFYsxkHpqwsLCenh4kBdkzipF58paWFiWbSTZs2IAkgh4UIZMVaqOt/U27d+/etm0bukfg4OBw5MiR3NxcpFeCnlhQwsyZMy9fvow+uo9Go61duzYvL2/69OlwSFpaGr6LZUQi8erVq0eOHHFzc0OHW1pabtiwITMzE6moAQCIiIjYtGkTulFECoO9vX1BQcG6deswg6tRo0b9+uuve/fuxTHPaLTrv6m3t/fFixc9PT2Ojo6Y2YDBIhaLS0pK2Gy2tbV1YGCgqakpjvlUTnV1NYvF6uvrYzKZ/v7+irq17e3t8DSqs7Ozj48Ppo4Ri8VlZWUtLS1SqdTV1VXbDlKNfrkME+M+U8PEqKthYtTVMDHqapgYdTVMjLoaJkZdDROjroaJUVfDxKirYTLwOl1WVlZLSws6BN7cRKFQzM3NHR0dfX19FU2ZKuL27dvwqjiVSl2wYMGgrtWEysrKvLw81eOnpKQMKn0Oh4Ps8gkICAgMDBzwEm29igFXfNCbueVibW29c+dO9M7NAQkKCoKvtbGxUXclSh3QS/G4vBwMaqy1aelV4FAPd3Z2fvfdd4mJiZonZQQvBrdfwtbWFl5lFAqFmFMZr1y5EhMTs2TJEpwziCs0Gg2zQ6O7uxvZNGltbT3YBkV/GbBEo+th9A4EsVicnZ2NPtf+ww8/VLGW6Onp6ezs7Ozs7O7uVrOiwYn58+cj+X/w4IGGqelPPaz+/iYikTh9+vQLFy589NFHcEhxcbFEIiESidBAppwUCgXexKtobVkqlb5586a+vl4gEMCnO8qeWTXgXXCnurq6qqqKy+WSSCQ7Ozt/f3/MLgi5D1JUVMRiseh0enBwsBq7+CsqKqqqqiQSibOz84QJE1Tdqjig8orKKwwsJBIBLn8DmnIq+ZEKhcLdu3ejqwEAAMzNzdeuXcvhcNAxcTEYVbG8pqen+/j4YF4dgUCIj49HOwrBlNfMzExXV1ckhEKhrF27tq+vD52ykleRnZ09duxY9B0ZDMbu3bsRezUlaKorsgcTAAAymSyVSiEVTDkVPQybzQ4ODgYUMHr0aLTpFS4Go6rompaWpmTPire3N4/Hk82Son0/U6dORQuj6FUcO3ZM0bah6Ojo/v5+5c+lka5cLnfGjBnIt8gmvAFNOeU+jFQqjYyMRGJSKJTw8PCoqCh03eXh4QGbvKlyF1UYUFc+n490tSgUypIlS7777rvU1FS0qcXFixcVZSkqKmr79u0LFy5EG4/s2LEDSV/uqygsLETik0ikhQsXbty40d/fH0lh69atyp9rcLouXLgQtn9NSUmZOXMmpnU5fPiw3MeTNeWU+zDnz59HLvHy8qqurobDORzOxx9/jHyFWGPiYjA6oK4vXrwIDAyEvQicOXMGCb979y5yoSIb1oMHD6LjI+WPwWAgtbHcVzFz5kw4EARBxLRXKBQixoY0Gk15lxOHeQmY0NBQZOvvgKacch8mLCwMuerhw4fo+LDbDvgra2treA4EF4NRFdtXsVhcXl6Onnt5//49cuHq1atlH9zX1xeTCLqxePz4saJX0d3djfwCZsyYgU7hxYsXSArnz59X8lz4zA8vWLDgzp07cu3UVDTllEgkubm58GcPDw+0xgAAODs7Iz/Vzs7O0tJS9e6iNkQiccyYMTweLzs7e9euXTExMZ6ensi3cq1vp02bpiSkrKxM0b1evHghlUrhz3Q6PR8Fj8dDWnq0xrIMbpwTGRkJO2qAnSMyGAxXV9eZM2f6+voqukRFU86mpibk7bi7u8tG8PDwQEcOCAhQ4y7qIZVKT58+ferUqcLCQuSNo5HbwcE4kgEAAO3bp7OzU9Ht0Fazly5dunTpktxoyq1vB6fr0aNH0e9XFVQ05US7wYHkbWlGmw7KjuE0NxhVhFgsjo2NzcrKQkJcXV1DQkI+/PBDxEuNXF1lTcHQnWolR0jjYn2rFbsrNCqactrZ2SGmWjU1NbIR0FZWsqVTc4NRRfz222+IqHPnzv3hhx9gT0SdnZ3KdZV9iqamJuSzrC8quV9t2rQJ8XmGQbl1ttbXX1WcHwFBcPLkyfDnmpoa2AYNoa2tDbGCHTFixJgxY9S7ixog9yWRSGfPnkXcSw1ofXvv3j208SAAAOhCr2RGbPz48UjJLikpQVvNdnR03Lx5s6amhkwmyzo8Q6NH6+pJSUnI55UrV1ZUVMCf29raEhISEOPRNWvWaNWyBQNifSsWi9F94H379iGf5VrfdnR0LF26FJnpvHDhAqKru7s7ejCKwc7ODuk2Zmdn37x5E/lqx44dixcvHj9+vJmZGfKDk4vW62HVSU5OPn369LNnzwAAqKmpGTt2LOy2sLCwEGlLxo8fv27dOl3mKjAwEDGDnDlz5qZNmwgEwsWLF9G2kYqsb69fv15QUPDRRx81NTWhvQ1u27ZN+U/z73//e1hYGNzPiIuLi4+PHzt2bGFhYUZGBhzB29tbkeOc/2XAEZ7yeUS5DLisoWjyrKmpaeLEiYqyGhAQgLjIUuUuqjDg+LWxsVHu5D6dTkeGOj4+PnKzJLdzlJKSosqrOHDggKL34OjoWFFRofy59KgeBgDA0dHx2bNne/fuxUyy29vb79ixIzc318nJScdZcnJyevDgAbo5JBAIsbGxz58/R1YaKioqXr58ibkwMjIyNzf3gw8+QELodPqPP/54+vRpVe67du3ae/fuBQcHo0s2iUSKj49/9uzZgI739ddOsr6+vr6+vq+vz9HR0c/PD1+PL2pQVVVVU1NjYmLi7+8vOzZVwtu3b9+9e2dlZTVhwgQ11u3ZbHZ1dXV3d7eVlZW/v7+KIzr91dWIJuhXPWwEL4y6GiZGXQ0To66GiVFXw8Soq2Fi1NUwMepqmBh1NUyMuhom/w95SVzzzZd2yAAAAABJRU5ErkJggg==;" parent="1" vertex="1">
          <mxGeometry x="288.13000000000005" y="344.63" width="45.1" height="59.74" as="geometry" />
        </mxCell>
        <mxCell id="ygFGr8_wO-zUAzRDIiU--20" value="" style="shape=image;verticalLabelPosition=bottom;labelBackgroundColor=default;verticalAlign=top;aspect=fixed;imageAspect=0;image=data:image/png,iVBORw0KGgoAAAANSUhEUgAAAMUAAACtCAIAAACP/SyQAAAACXBIWXMAAA7EAAAOxAGVKw4bAAAbFklEQVR4nO2deVQURx7Hq3tmQI7hVA65xIOBgIrCiqC4GLyiYMTbKLIIHklcN093F7Nvja6aXSJu1rx4xDUERaNmjSeiz9so8lBAEDSAERQIhzgCA8MAc/X+UZt6nZlhGIYeumetz1891dXVv6n5Tl39q18TFEUBDIYhSLYNwPxfgfWEYRKsJwyTYD1hmATrCcMkWE8YJsF6wjAJ1hOGSbCeMEyC9YRhEqwnDJNgPWGYBOsJwyR8tg34H21tbQ0NDTU1NY2NjSqVSjsDQRAODg4jR450dnZ2c3PrtUC1Wl1fX//q1SuxWKyzQO4jFApdXV3d3NxsbW3ZtsVQ2NcTRVH379/PzMzMy8tTKpX6/WdIkhw1alR8fHxMTAyPx+spm0QiOXfu3MmTJ+vq6szaIcfGxiYyMjIhISEwMJAgCLbN6R2C9eq+du3azp07m5ubDb9EIBAkJiauX79eZxW3tLRs27bt5s2bzNnIMi4uLtu2bYuMjGTbkN5hefzU3Nz8+eef90lMAAClUnns2LHc3FydZ7/++uu7d+8yYR1XaGpq+vLLLxsbG9k2pHdY1tOVK1fq6+v7ehVFUTKZ7Ny5c11dXRqn6urqsrOzFQoFQwZyhadPn/7www+sdya9wqaeFApFWVmZ0XVUUVEhkUg0Ep8/fy6VSvttGudQqVQPHz5UKpVsG9ILbOpJpVKJxWKj9SSVSrXbodbWVrVa3W/TuIhUKuX+RJXN+Z1ardbZMfH5/LCwsGHDhpEkCQBoamrKzc1tb283pEyVSqUtUIIgwsPDJ06caG1t3X+zTYpara6qqrp8+bJ202sWsL9eoM3s2bP/+te/WllZwY9qtfrEiRO7d+82urUPDg5OS0uzs7NjzkYTolarfXx89uzZ093dzbYtfYZz6+OWlpbR0dFITAAAkiQnTJgwZMgQo8uMjo42FzEBAEiSjIiIcHBwYNsQY+Ccnng8noWFhUYin8/Xs3qpH5Ikze636c/3ZRfO6YmiKJ0DoP6Uyf1h7P8NnNOTQqEQi8Uaic3NzTKZzLgC1Wp1TU1Nv+0aUFpbW+VyOdtWGAPn9KRUKtPT06uqqlBKa2vrgQMH+rqGTic7O/vRo0fcXwyESKXS9PT0/nxfFuHi/K66unrBggWDBg2C3VxXV1c/17sbGxsTEhJcXV3NYr3g5cuXHR0dbBtiJGzqSSAQODs76zylVCp7Xebm8Xja4yo7Ozu4aqWBSqUy4sEOp7C0tNT51TgFm/bx+XwvLy+jL3dxcdFub4YPHy4QCPpnF0cZNmwY978am3oiCEIkEhldR5GRkY6OjhqJXl5evr6+/TaNc1hbW4eEhHDfBYrl9vPtt9+eNWuWEc24v79/YmKidjpJku+//76TkxMT1nEFgUAQFxcXHh7OtiG9w9u2bRuLtycIIigoqLGxsa6uzsDHKXw+39/fPyUlpae+cujQoUKhsKqqqq2tjVFj2cHe3j46OnrdunVCoZBtW3qHff9MAIBMJrt58+aJEyegqmQymcaEjiAIGxsbgUDg6Og4Y8aMBQsW6HchV6lUL168yMrKKi0tbWpq4sJ3NAIbGxt/f/+pU6eGhYXRH0BxGU7oiY5MJtu0aVNOTg490dbW9quvvho7dixbVmEMhOvzT4x5gfWEYRKsJwyTYD1hmATrCcMkWE8YJsF6wjAJ1hOGSbCeMEyC9YRhEqwnDJNgPWGYhIv+49qoVCrTRSVQKpXl5eX37t0rKioyeheNKbC0tBw1atSsWbMCAgK475kJMQ89kSRpItdEsVickZFx8eJFbu4nycvLy8rKiouLS0xM1HZG5SDm0d+ZzqnmwIEDx44d46aYIK2trYcPH96/fz/bhhiEeejJRI3T7du3z549y/34PhRFnTlz5sqVK2wb0jvmoScTUVJSYi6R7ORy+Z07d7hv7ZurJ5lMVlZWxrYVfaC6upr7m9DNQ0+mGD/J5fKXL18yXqzp6Ozs5H7XbB7zO5lMtnr1amZ3x1IUpTNgl6ura0JCwvjx41mJmKNWq4uLizMzM+vq6gb+7v3HPPQEANAO5WsKBALBhx9+GBcXNwD36om33nrLyspqx44d3B8taWMe/d2AYW9vLxKJ2LYCeHt7cz90h06wnn4FSZJcCAxnuvVbU4P19CsUCsXAdKz6MenzJZOC9fQrpFLps2fP2LYCVFdXd3Z2sm2FMZjHeJwgCKFQyOczaS1FUW1tbRqhNRUKxd69e9vb2318fFjpcSiKqq2tPXr0qDkOxoG56MnKymrfvn3BwcEMlimRSFatWvX06VONdLFY/M9//pPBG71RmEd/Z4qmwsLCwsPDw4yGvTY2Njg+HXexsrISiURcCweih5EjR1paWrJtRS+8uXoCAISGhg4aNIhtK3qHIAhra+tp06YxO4I0BeahJxO1ImFhYQsXLuTCgpN+SJJcunRpREQE24b0Dtf1DjHdKGfDhg1OTk7/+c9/OPv2S1dX1xUrVixZsoRtQwzCPPSkVqtN1ERZWVklJSVNmTLl4cOHhYWFMpmMOyN0Pp8fFBQUGRk5atQo7jeiEPPQE4/HM93UhiRJkUgkEomWLVtmolu8OZjH+AljLmA9YZgE6wnDJFhPGCbBesIwCdYThkmwnjBMgvWEYRKsJwyTYD1hmATrCcMk5qEniqLMyPHtTcY8ngebVEwNDQ1Xr149e/Zsc3Mzp1QLd2HExcXFxMTof98fdzAPPZmOioqKTz/9tLS01MC3gw4wLS0t+/bty8nJ2bx5s7+/P9vm9I559Hcm2i+rUqm2b99eVFTETTFBlEplYWHhZ599ZhY7qMxDTybyp7t06dLjx48ZL9YUPHz48Ny5c2xb0TvmoSdToFKpiouLzWVbt1qtzsvLw/HEuEtnZ2dlZSXbVvSBn3/+mft6Mo/xuEqlunPnTnV1NYNldnR0/PzzzzpPCQQCOzs7VjZPqtXq9vZ2nbpRKpWcmn7qxDz01N3dfejQoQG4EUEQwcHBaWlprq6uA3A7nTQ3N2/YsOHRo0dsGdAf3tz+TidWVlaJiYksigkA4OTklJycbGNjw6INRsNFPbG4Y8na2ppdMUHs7e3N5QUbGnBOTxYWFra2tmxbgTESzumJz+ezGMFSLpdz4ZVACoVCIzCVucA5PQEAFi5cOGXKFFZ2xEql0tu3b+uMIz1gKBSKe/fudXR0sGiD0RDcnIJKJJK7d+8WFBSYrrWQy+UPHjxob2/XSBcIBGFhYc7OzmzFp2ttbc3NzdV+uuLn53f48GGhUDjwVhkOR/U0AEgkkjVr1vz4449sG2IoZqEnLvZ3A4OVlZWPjw/bVvQBPz8/7kerenP1ZGFhERAQwJ1oKvohCEIkEnF/EeHN1RMAYM6cOS4uLmxbYRAeHh6zZs1i24reeaP15OLisn79eo6PSAAAQqHwgw8+MAsXzTd3PA5Rq9WFhYWZmZkPHjzgwsqTBtbW1qGhocnJyWPHjuV+cF+A9QRpb29vbGyUSCSvX7/mToUMHjzY3t7excXF3t6ebVsMBesJwyRm0IRizAisJwyTYD1hmATrCcMkWE8YJsF6wjAJ1hOGSbCeMEyC9YRhEqwnDJNgPWGYBOsJwyRYTxgmwXrCMAnWE4ZJsJ4wTIL1hGESrCcMk2A9YZiE03oyiwh/GDqc05NcLv/qq6+mT5/u5ORkYWEhEAi8vb3j4+NzcnL6WTI9gmBNTc3kyZMnT568aNGifhYLAHj33XdhaY2Njf0vTT8pKSnwXrdv3zb1vYyB4hIVFRV6gj/Fx8d3dXUZUeyTJ0+mTZs2adIklFJWVgbL9PHx6b/ZKKTd8+fP+1+afubMmQPvderUKVPfywg4FI+1oaEhKiqqoaEBfvTw8Bg7dqxcLs/Pz5dIJACAo0ePtrS0XLhwoU9BBwoKCsLDw5VK5aRJk0xiN4YGh/q7999/H4rJ0tLym2++qa2tzc7OvnbtWkNDw6ZNm2CeixcvHjx4sE/Ftra2ar9OQyQSdXZ2dnZ2VlRU9N/y6upqWJp5BWwxBVxpn8rLy8+fPw+P9+/fn5iYiE5ZWVnt3r1bLBYfOXIEAJCamrpmzRqSJAsKCvLy8gAA77zzjqur65EjR+7fv8/j8aKjo5ctWwbD2129ejUrKwuW09DQsHfvXkdHx+XLl0skkmPHjgEA7OzsVq5cCQ24fv06AGDq1KkjR47MzMzMyckhCCIqKio+Pp7H4718+TI9Pb20tNTBwWHu3LnvvPMOsvD48eMwnFxCQoJQKPz3v//dU+D5CRMmTJgwAR53dnZ+++23ubm5MpnMx8dn3rx54eHhGvnb2toyMjIKCgpIkpw6deqKFSv6XdMmhu0O93+kpaVBezw9PVUqlXYGekNSXFxMUdSOHTvgx127do0YMYL+pSZOnAh3ji9ZskTj+4pEIkrX+CkjIwOmbNmyJSgoiH7J3Llzc3JynJ2d6YkpKSnINo3xk55Qz1u3boWXlJSUaDdmCQkJcrkcFVtUVOTu7k7PEBYWFhERAY+5OX7iip7ee+89WE3Lly/vKQ8KMJKenk7R9GRhYQEACAoKCgkJQUEjYmNjYbH0MBI8Hi8wMJDSqyeSJAUCQUxMDGpIAAB8Pn/QoEHz5s1DUiMI4tmzZ/Baw/WUmppKUZRYLPbw8IApIpFo/vz5Q4YMgR83btwIy5RKpd7e3jDRzs4uNjY2NDSUXhTWkz5mzJgBq4n+v9cgJCSE/qsgPQEAvv76a5jn/PnzaLReWFhIUdS1a9fgR/3zO6QngiB++OEHmDh16lSkp4KCAoqi5HL5W2+9BROPHz8Os2noSSwWi8Xi169fNzc3//jjj56envBsWFiYTCajKOqTTz6BKXPnzlUoFBRFNTU1QYXx+fzGxkaKotAwcciQIZWVlfBGO3fu5LieuDIe7+zshAd6wvoioWjEKg0PD09KSoLH9JHNlStXjLBk/PjxU6ZMgceTJ0+GB1FRUVDNAoEAyRrOOrVxdnZ2dnZ2cnIiSXLx4sXwLTHDhw/PysqysrICAKA3j/3xj3/k8/kAgCFDhqxevRoAoFQqL126BAC4ceMGzLN+/frhw4fD482bN6OWjJtwZTzu5OQED16+fNlTHnRKYyij0RGEhITAn6SqqsoIS+jDGvjzAwBGjhyJEq2treGB/rcwKhSK+fPnw/frOTk5Xbp0CUkBjQW3b9+OOseamhp48OTJEwDAixcv4McxY8agMnk83ujRo2/evGnE9xoYuKKngIAAOL+7d++ezgy1tbW1tbXwGPU4EEtLS/pHR0dHeGBcGHGkIUBrEZGGDCc5ORn+8JaWlufOnUPrtCqVChkGZ5QatLa2AgDQDFHjbRFwsMhZuKKnGTNmpKamAgDKy8svX75Mn41D9uzZAw+EQmFYWBj9FPorQ1AzNnjwYKbM62vY1k8++SQzMxNeePjw4cjISHSKx+MJhUIY9/zatWtodIWA0cNQG1xfX08/i/5U3IQr46epU6eihv13v/tdQUEB/ew333yD9LR27VqNsMnZ2dlIQ2q1+uLFi/AY9oNICgP2BouMjAw0V/j888+XLl2qkQF10HV1df6/cOfOnQsXLlRVVcEWCOU5ffo0uvDRo0ccD5jOlfYJAHDo0KHIyEi5XN7U1DRx4sSYmJiQkBC5XH79+nW4bgkA8PPz27Jli8aFnZ2d06dP/+yzzxwcHHbv3g3HH3DVEdD6r/Ly8rNnz3Z0dJh0VfD+/ftr1qyBxy4uLsXFxcuWLaN+8ZLw8vJKS0tLTEy8desWAOBPf/rTkCFDoqKibt269Yc//KGrq4skyZKSEmdn5/j4+F27dlEUdeHChY8++ig5OfnFixcbNmygOO5wwfL88tdkZWXpeblUQEAAmjlTtPUC7ZjPBEF8++23MJtYLKbPGR0cHCi96wX0BbB//OMfMHHTpk0oce3atTDxyy+/hCn09QJUjk7g6pdarUaPdTXYvHkzutHHH3+s/b3Gjx8Pj/F6Qe/ExMQ8fvx49erVaLoH8fX1/fTTT/Pz89HMmU5iYuK//vUvNGR2cXE5fvw4WiB1dnbevn07nJYDABQKBbuv+wEAEATx/ffff/zxx/RAq+7u7nv27EEKBgD8/e9/T01NRX8wd3f3kydPxsXFDbS5fYGj8VjVavWzZ89evXrF4/E8PDy8vLy08+zcuRP2fSkpKampqVKptLS01NLScsyYMUg9CLFYXFZWZmtrGxAQwJ23VigUivLy8tbWVjc3N19fX22zAQAymaykpMTCwkLn9+IaHLWPJEk/Pz8/Pz/DL7G1tdV+nooYPHgwfZLFEQQCwejRo/Xnsba2njhx4sDY03+41d9hzB2sJwyTcLS/M4T58+fDxyAay+UYFuHoeBxjpuD+DsMkWE8YJsF6wjCJ5nh80aJFaMcSBPq/2tvbi0SiFStWBAYG9ukG58+fh77hsbGxKSkp/TS3V2pqauDKuLu7+6lTp0xxiw8++KCkpER/nsDAwL7uw+k/V69e3b59u54M69evX7p0qXYVod9o9uzZf/nLX/pjg6ae8vPzq6ure8qdlpZ26NAh+uaTXmloaIAuTf7+/saZ2CdkMhm8nem2LpWUlPTkpIXQ72pnIpqamvQbNm/ePKCritBvRHcbNI4e1wvc3Nyg6yBFUd3d3fX19RRFqVSqdevWTZkyRWM/yRuFi4sL2k2gVqtRc+7m5oYePLP7WmI+n48eUdMZgDfb9qinAwcOQDlDnj9/HhUVVVNTI5fLv//++wHouYwDbtQEffeAM5wzZ86gY7FYjLx48/PztZ3jWEEkEkE/457Omq6KDF3P9PX1nTt37t69ewEAUqmUfqquru7o0aOPHz8mCCIgIGDZsmW+vr46C1Gr1d99993169e7urrGjRuXlJSEfHMhpaWlp0+ffvbsWWdnp1AoDAgIeO+99+DD4Ly8POhk5+/vP23aNPpVhw4dgi4Dy5cvJwhCY6MmorKy8rvvvvvpp5/kcvmIESPi4uLGjRuHztbU1Fy4cAEAEBIS4uHhsXv3bolEEhUVtXLlSj1bJHpCpVIdOHAAAODm5jZnzpy0tLTy8vIxY8asXbsWfmVDKs3wiu0T2ntZe8IYAzT8V1CfevbsWXq6SqVCTyWzs7NR+okTJzR8qy0sLJBjEEVRsFoBAAsXLtR4Iuvu7l5VVYVy7t27V/sfY2Njc/HiRYqi7ty5A1M0Nnzm5+fD9GHDhqlUKp2BLuRy+UcffaRdeEJCQmdnJ8xz+fJlmJicnIzcGYYOHapzcyni1atXqLTa2lqUjrbrTJgwge7qVFZWZkilGZhHg6NHj8Kc0MuqJ7SrCP1GCQkJ/TGA0t5/h/S0ZMmSrVu3bt26dcuWLRs3bkTOuDNnzlSr1TBzTk4O+u9OmjQpJiYGecufP39ew1YAAI/Hmz59+ty5c1E25LxWUlICf28ejzdz5sxFixahH9XLywvmQc9Vrl27hgz+8MMPYeKOHTt0VhZFUevWrUM2DB06lD5Unz9/PsyD9ERvjehudDrpVU/00kJCQgysNEPyaIP05OHhkaFFeXk5zGaInowzgNKjJ51MmjRJKpWizGifGvRMpSjq7t27cD/u6NGjNWwlCOLq1asw8eTJkzDR09MTppw6dSoiIkIoFO7fvx+mtLa2ov9HS0sLRVHIhTw+Ph7m6e7uhn77fD6/rq5OZ2Xdv38f/bRoB2Z2djbyAz537hxF0xOs1qampgcPHtDdQXXSq54AAOPGjfvpp5+qqqpyc3MNrDRD8miD9KSTAwcOwGyG6Mk4A6i+6gkAEBQUVF1dTVHU69evYYtiYWEBN7lCoqKiYE7YlyFbJ0yYgPI0NTXBRGtra/rd1Wo1bPzkcvndu3fRULempoaiqObmZugKZ2NjA2WNfPXffffdnioLeXOvWrWKfq8///nPMH3evHkUTU98Ph/GPjAEQ/R04cIFlG5IpRlYsdowpSejDaD0xH86ePAg3AOuVqs7OjqePn36t7/9rbS09PHjx/Pnz8/Pz6+oqKAoCgBAkuTChQvRhZWVlfDgyZMn9OEbfYkB+bDS45BQFHX79u1Lly7l5uYWFRXRfxJ4I0dHx8WLF2dmZnZ0dJw+fXrlypWHDx+GGZBotEFh6aKjo+npb7/99q5duwAAxcXF9PThw4dreBv3E/p2U0MqzdnZuU8Vq423t/e+ffs0Eun7QvXT11+WTo96cnFxGTZsGPo4evTo0NBQmFJYWFhUVAQj1AAAurq6UKgdOnBfIoI+uENDY+oX74bXr1/PmTMH9U0ODg7Tpk27d+9ec3MzoI1C1q5dC/e1HTt2bPbs2bBR8fb2njVrVk9fBOlSYy6JPtKFC7Q2H/cfeoGGVBpyRzawYrURCoUxMTFGmmuYkT1d2wf/J09PTx6PB3ex1dbWovGyu7u7zh3QGrFm9LNx40YoptjY2G3btgUHB5MkOWrUKKgnFCMlIiIiKCjo8ePHt27dSk9Ph8vQSUlJ9CAqGgwdOhQ+HtHYfo4+Dh06lJ7OrHc5QRD0Hb2o5dNTaagZYKRijcAQI3u6tg/PgzMyMtCWSF9f38DAQDikbWxstLS0RPsSjxw5cuPGjcbGxj79MFevXoUHe/bsGT9+PEmS3d3dOsObwu1KSqUSPqvi8XgoGIZOfvvb38KDgwcPIvspitq/fz88nj59Oj2/HmkagUZphlQasxVrBP0yQGM8hcbjkydPXvILCxYs+M1vfoMuGTt2LMy8atUqmBIaGvro0SOpVIr2xHl7e8PYqWisl5SUpD1c5fF4MAXFOtq5cydFURKJBBUOAKDPs+jzPvBLnCeE9mCzvr7ezs4OJk6ZMuXs2bMXL15Ea0JCoRBODNF4PDo6uqfBpjaGrBdoXGJIpRmSRxsG15+MM4AyYn7n4OAA4ypRFNXY2EgfYyH4fD6a1BioJ/oDHCcnJ4FAAGjD9hs3btCNpD+QzsrK0l9ZFEWdOXNGZxgJS0tLtJoyYHoypNIMyaMNg3oyzgDKkP2cJElaWFjY2dn5+fmtWbOmsLAQbVF1dXXNyclZvHgx/PkhwcHB2dnZsbGxvZZMZ/v27b///e/huLu5uVkoFH7xxRdffPEFPKsxKkQ7dD09PbUjZ2gTFxeXl5c3c+ZMNK4nCCIyMvLu3btwT/pAYkilMVixpjNSJ8z4j7e1tT19+lQul3t7e/fnmahEIqmoqODxeGPGjKF/E6ZoaWmprKxUKBQjRoxg1wUAGFZpTFWs0fTVALwfAcMk2N8XwyRYTxgmwXrCMAnWE4ZJsJ4wTIL1hGGS/wLMXkiYO5YNZAAAAABJRU5ErkJggg==;" parent="1" vertex="1">
          <mxGeometry x="223" y="458" width="93.38" height="82" as="geometry" />
        </mxCell>
        <mxCell id="ygFGr8_wO-zUAzRDIiU--21" value="Monte Carlo Tree Search &amp; Prior Probability Update" style="text;whiteSpace=wrap;fontStyle=1;fontColor=light-dark(#009900,#EDEDED);" parent="1" vertex="1">
          <mxGeometry x="194.44" y="215" width="315.56" height="19.59" as="geometry" />
        </mxCell>
        <mxCell id="ygFGr8_wO-zUAzRDIiU--22" style="edgeStyle=orthogonalEdgeStyle;rounded=0;orthogonalLoop=1;jettySize=auto;html=1;exitX=1;exitY=0.5;exitDx=0;exitDy=0;exitPerimeter=0;entryX=0;entryY=0.5;entryDx=0;entryDy=0;" parent="1" edge="1">
          <mxGeometry relative="1" as="geometry">
            <mxPoint x="234.82" y="409" as="sourcePoint" />
            <mxPoint x="234.81999999999994" y="409.0000000000001" as="targetPoint" />
          </mxGeometry>
        </mxCell>
        <mxCell id="ygFGr8_wO-zUAzRDIiU--23" style="edgeStyle=orthogonalEdgeStyle;rounded=0;orthogonalLoop=1;jettySize=auto;html=1;strokeColor=light-dark(#009900,#EDEDED);" parent="1" source="ygFGr8_wO-zUAzRDIiU--24" target="ygFGr8_wO-zUAzRDIiU--14" edge="1">
          <mxGeometry relative="1" as="geometry" />
        </mxCell>
        <mxCell id="ygFGr8_wO-zUAzRDIiU--24" value="&lt;font style=&quot;font-size: 8px;&quot;&gt;Reward&lt;/font&gt;" style="rounded=0;whiteSpace=wrap;html=1;align=center;verticalAlign=middle;fontStyle=1" parent="1" vertex="1">
          <mxGeometry x="510" y="320" width="40" height="20" as="geometry" />
        </mxCell>
        <mxCell id="ygFGr8_wO-zUAzRDIiU--25" style="edgeStyle=orthogonalEdgeStyle;rounded=0;orthogonalLoop=1;jettySize=auto;html=1;exitX=0;exitY=0.5;exitDx=0;exitDy=0;entryX=0.5;entryY=1;entryDx=0;entryDy=0;strokeColor=light-dark(#009900,#EDEDED);" parent="1" source="ygFGr8_wO-zUAzRDIiU--26" target="ygFGr8_wO-zUAzRDIiU--19" edge="1">
          <mxGeometry relative="1" as="geometry" />
        </mxCell>
        <mxCell id="ygFGr8_wO-zUAzRDIiU--26" value="&lt;font style=&quot;font-size: 8px;&quot;&gt;Update&lt;/font&gt;" style="rounded=0;whiteSpace=wrap;html=1;align=center;verticalAlign=middle;fontStyle=1" parent="1" vertex="1">
          <mxGeometry x="470" y="434" width="40" height="20" as="geometry" />
        </mxCell>
        <mxCell id="ygFGr8_wO-zUAzRDIiU--27" style="edgeStyle=orthogonalEdgeStyle;rounded=0;orthogonalLoop=1;jettySize=auto;html=1;entryX=0;entryY=0.5;entryDx=0;entryDy=0;strokeColor=light-dark(#009900,#EDEDED);" parent="1" source="ygFGr8_wO-zUAzRDIiU--28" target="ygFGr8_wO-zUAzRDIiU--17" edge="1">
          <mxGeometry relative="1" as="geometry" />
        </mxCell>
        <mxCell id="ygFGr8_wO-zUAzRDIiU--28" value="" style="shape=image;verticalLabelPosition=bottom;labelBackgroundColor=default;verticalAlign=top;aspect=fixed;imageAspect=0;image=data:image/png,iVBORw0KGgoAAAANSUhEUgAAAPgAAADJCAIAAACBlWhUAAAACXBIWXMAAA7EAAAOxAGVKw4bAAAgAElEQVR4nO2dd3wUxfvHZ68ml8ult0u9hPQeegAh9CiIgQAa4AsCgoiAigqCKD9AQIogShNUOhoCEaVJDyEkIb33Xi/9SnJ3ubK/PxbW5RqX5JLA3b5f+WNud3Z29vK52ZlnZp4HgmEY4ODoOoTBrgAOzkCACx1HL8CFjqMXkAa7AjiDA4/Hu3379uXLl6urq93d3WfNmjV16lQajTbY9eovIHwwqm/U19ffvHnzxo0bFRUVYrEYOUgmk0eNGrVmzRpvb+/BrV4/gQtdX5DJZE1NTbdu3fr7778rKytRiaMQCAQWi7V27dqxY8dSKJRBqWT/gQtd95FKpU1NTffu3bt69WppaalEIlGVE4IgBoOxfPnyiIgIExOTgaxkf4MLfXCQSCQSiaSpqam0tJTD4XC5XJlMZmRkZGxsTCJpeeBUW1v7zz//lJeXS6VSTfJTKJRJkyatX7/exsZGuzUZRHChDzSdnZ1xcXH379/Pzc2tq6sb7OqoxN3d/ZtvvgkKChrsimgHXOgDB5vNvnjx4vXr11taWtT0H14dzMzMDh06pBtax82LAwGbzb5x40ZsbGxlZeVr1LK0t7dHR0fjQsd5OTweLyMj4+TJk7m5uYqGjlef5OTkwa6CdsCF3l/IZLKsrKyzZ88mJCR0dXUNdnWUQyQSYRiWyWSqMuiMnREXer/A4/HOnDlz7tw5Pp8/2HVRibu7+9y5cysrKy9duqTqbWNtbT3AteoncKFrGYFA8Mcff5w/f57NZg92XZRDoVDCwsLmz58fFBREJpMBACNGjNi/f39NTY1cTkNDw+XLlw9GHbUPLnStIZFI7t27d+7cudzc3FfZqDJkyJCNGzdaWlqiRyZOnGhvb3/06NH4+Hi0aSeRSO+8887IkSMHqZpaBhe6FpBKpaWlpb///ntcXFyP+ipUKtXR0dHOzo5CoXR2drLZ7Nra2peOWWk0GovFIhKJavJ0dHRUV1erOis3JwVBkJeX1/bt25OTk69du9bW1mZhYREWFhYWFob30XEAAACGYTabfeXKlcuXLzc1NWl+IYVC8fX1Xbx4cWBgoIWFBQRByFqUtLS0M2fOFBUVqZnFNDU13b59u6Ojo5ry79y5s2nTph48CQAMBmPKlClTpkwRi8VEIpFA0Kkl3LjQew+Hw7l9+/bFixdLSko0v4pAIHh7e8+bNy88PNzQ0BB73NbW9q233ho1atTBgwevXbumqv/DZrOrqqrc3d3V3AXpfCvlpSJWc+3rCy703iCRSJ4+fXr06NGsrKweTQDZ2tq+8847CxYsMDU1VZXHwsLiq6++IhAIV65cUZpBKpWmpKRMnjy5x/UGAAAAw/BrNGmlLXCh9wyJRFJYWHjhwoVbt271aAKIwWCEhYV9+OGHTCbzpb0CGo22Zs2a9PT0yspKpRmSk5M7OjrU/Fpw5MCF3gMaGxujo6NjY2NbW1s1bxTJZHJwcPCKFSuCg4M1H9tZWFgsXLhwx44dSs/W1tZu3ryZwWCoury+vl7VKVU1l8lkVVVV+fn5HR0d9vb2np6ednZ2Gtb21Qdf1KURPB7vwYMHp06dKisrUzOPKAcEQSwWKyoqavr06b1Y3s3lcsPCwrq7u3t6oXp8fHyOHz8u9zZobW29cOHCtWvXkF8ImUxmsVirVq2aOHGiboxKcaG/hK6urtTU1Ojo6Pj4+B5J3MrKatasWZGRkUwms9d3j4yMLCoq6vXlSmEwGIsXL54yZYqDgwOZTJZKpbm5uUeOHElKSpJ7QAsLiyNHjvj4+Gi3AoMCLnR11NfXHzx48OHDhwKBQPOriERiWFjYRx99pN4woglr1qx5+PBhHwtRirW1dWho6JIlSwoKCn788cfGxkbFPBAEzZkz59tvv+2PCgwweB9dOY2NjbGxsWfOnOnRBBDSHV+8ePG4ceMgCOp7NTo7O/teiFKampr++uuvq1evAtW9dhiGe2Q5fZXBhS5PW1tbfHz8iRMnamtrNdx7BgCAIMjV1TUqKio8PNzY2FgrNREIBKqsLtripe9znbGp40L/D4FAkJWV9euvv2ZkZIhEIg2vQrrjkyZNWrp0qa2trRbrk5ub29zcrMUCewoEQcHBwYNYAS2CCx0AAGQyWWFh4blz5+Li4rhcruYXGhoaTpo06d133/Xx8dFu48fn83/77TctFtgLnJycwsPDB7cO2gIXOuByuZcvXz579myPmk8CgeDq6rpy5cqJEydqfeWTWCyOiYlJTEzUbrE9wtzcfM2aNX0fT78i6LXQxWLx3bt3f/nll9LS0h5daG5uvmjRooULFxoYGGi9VgKB4MSJE6dPn1Y1QnByctJ8sCuTyZKTk8vKynpUB09Pzy1btgQGBvboqlcZPRW6WCyOj48/ffp0Tk5Oj2byLS0tZ82aNW/ePDs7O63YVbDAMPzkyZPjx49nZWWpstnTaLQvvvhi/PjxmhfL4/EeP34cExOTmZn50oelUqmzZ89esWIFdsG6DqCPdvTy8vKTJ0/ev3+/R8Y7Mpk8efLkqKgoHx+f/lilzeVyf//990uXLnE4HDXZ3njjje+//55Op/eocBiGOzo6EhMTY2Ji0tPTVb0rTExM1q5dO2PGDN3zNqpfQheLxampqQcOHCgoKOjptUwmc8+ePf7+/lqfEpdIJLm5uUePHk1OTlZv0KTT6cePHw8ICOj1vdrb2x88eBAdHV1cXIxt3SEIcnFxWbduXVhYmG7M+cuhR0Lv6uo6derUhQsX1DeZarC1tV2+fPnMmTO12OBxudzo6OizZ8+2tbWpz0kmkz/++OMlS5b0XYgdHR337t3766+/KioqYBim0+kTJ06cN28ei8XqY8mvLPoi9Obm5v3799+6dUvzOSClEAiEuXPnrlu3TiuzQqmpqT///HN6eromEzcREREbN27UohEThuGGhgaRSMRkMqlUqraKfTXRC6Fzudx169alpqZqpTQIgmbNmvX111/3RRx8Pv/MmTMnTpzQZBs1kUicNWvWpk2bdF6O/YfuC53H423fvv3WrVtafFISiTRmzJhPP/3Uzc2tp9fKZLLU1NRDhw7l5uZq8noxNjZeunRpVFSU7g0QBxIdNy+KxeLz58/fvn1bu79niUQSFxfH4/H27NnTI9/KyNaNy5cvv7RHDgAgEokeHh6rVq0aN26c1n1J6xs63qKnpqZ++umnHR0d6rMZGhqampoaGxtTqdTOzk4+n9/e3v5SkzMEQRERERs2bNCkrZVIJBkZGXv37i0uLtakITcyMgoPD//oo4+srKxemhnnpehyO9Hd3X369Gn1Kjc0NBw/fvzMmTP9/f3NzMwAADKZrLGxMTMz8/z58/n5+Wr60DAM//PPP66urv/73//UTx5xudzz58+fOnVKEyeMiKXv448/njx5sk5a+gYFXW7R79+/v3HjRjV7Jtzd3Tdu3Dh8+HClMhWLxbGxsT/99JP6n4qxsfHOnTsnTJigKkNiYqLmlnsymTxv3rwVK1aYm5trkh9HQ3RW6GKx+JNPPnn06JGqDKGhodu2bVPfw4ZhOCUlZcuWLWr2GgMAHBwcDh06pLj+qa6u7uzZs7GxsRo25L6+vuvWrRs2bBjeI9c6Oiv0oqKiZcuWqZobcnZ2Pnz4sLOz80vLkUql//7779atW9W8GSAIGj58+P79+9Edx4gfRmS5mCY7TU1MTN5777358+fr2AqTVwedbTkyMzNVLWWhUqlLly7VROUAACKROGHChEmTJl27dk1VHhiGU1NTDx8+/Nlnn1Gp1JqamosXL169elWTbXhkMnno0KGLFi0KDQ3FG/L+Q2e/2YKCAlXjSDs7u2nTpmleFI1GW7JkyY0bN9S0zTKZ7K+//mKxWHZ2docPHy4uLtbkVUmj0RYsWBAVFYU35P2NzgpdzW7L0NBQIyOjHpXGYrG8vb3z8vLU5BEKhQcOHEDiKmpY5jfffBMSEoKbVgYAnRW6qsiGRCJx2LBhPS2NRCJ5eXmpFzoAQCgUalKalZXVnDlzli5dinUyitOv6KzQVfWPqVRqL9ZjQRCklVVcEASNHj161apV/v7+6h2c42gXnRU6lUpVqnX1sanU0PeYctbW1osWLZoxYwbeIx94dFboVlZWra2tisdFIlGPPPYjyGSyHnkHkINKpXp7e2/YsMHX11frG/BwNEFnh0GqZhZlMllGRkZPSxOJRDk5Ob2riZWV1erVq48cOeLn54erfLDQWaF7enqqOvXkyROljb0aioqKeuc0i8Fg7Nix4/3339eW+y6c3qGzQh89erQqm0ZLS0t0dLTmRXE4nEOHDvWuGjwe79q1azwer3eX42gLnRW6n5+fKpfkEonk1KlTycnJmszpSCSS2NjYzMxMVRlcXV3t7e1VnYVh+ObNm4cPH9bcxx1Of0DcunXrYNehX6BSqSUlJaqci4vF4pSUFBaLZW9vr2a+RiAQ3Lhx4/Dhw6oWupDJ5E2bNo0fPz4pKUmVEV0mkxUXF1OpVNykOIjorNABAKampo8ePVKlUT6fn5iYSCQSXVxcFB1uwTDc3Nx87NixkydPqlmyEhAQ8MEHHwwZMsTa2vrx48eqdlRIpdK8vDxLS0tPT098PDoo6LLQbWxsiouLi4uLVWUQCASJiYkJCQmdnZ3IDiMCgSAQCIqKimJiYnbv3v3kyRP15vNPPvkkICCAQCC4u7tTKJSnT5+q6g51d3enpKT4+fmpjw+K00/o7DJdhKKiotWrV7PZbE0yQxBkYGCgeXCL8ePH79u3D/s2+OGHH86dO6fmt2FhYfHDDz+EhIRoeAscbaHLLToAwMLCgsFgJCUlabjQSsNsAAAHB4edO3fKzXH6+flxOJyioiJVk68CgSAvL8/X19fa2lrDG+FoBR0XOgRBjo6OfD6/19M9SmEwGF9//bWik3wqlerl5dXc3KzGPW97e3tFRUVAQACyRRVnYNBxoQMAKBRKQEBAVVVVZWWlVvppFhYWK1eunDFjhlJzDZ1O9/LyKi4uVrV8EgDQ2NjY2NgYEhLSU1+hOL1G94UOAKBSqcOHD8/JyVG/9VMTjI2N165dGxkZqWY3EIPB8Pf3T09PVzP/WlNTw2azw8LCcIPjwKAXQgcA0Gi0kSNHpqamtrS09LoQR0fHPXv2TJ48+aXqNDMzGzFixJ07d1Rti4ZhuLS0VCgUDh8+HNf6AKAvQgcAGBsbe3t75+Tk9HShCwDA3Nx84cKFmzZt8vDw0NAQbmZm5unpmZKSosYMn5+fTyaT8YmkAUCPhA4AsLS0dHJyyszM1HDNLQRBTCZzzpw569atCw8PZzAYPbodk8m0trZOT09XZbKUyWQFBQXGxsY+Pj74hrp+Rb+EDkGQvb29nZ1dQkJCd3e3+syTJk364IMP3n///WnTptna2vZCiEhAL0NDw/T0dFXGdZFIlJ+f7+Tk5OLigk+a9h/6JXQAAARBzs7ODAYjMTFR/VajgICABQsW9E7iKAQCwcPDA4bhzMxMNcb1/Px8T09PNYvDcPqI3gkdAEAgEHx9fZG9FGq0XlJSIhaLg4OD++h7n0Qi+fv783g8NbZ8LpebmZk5duxYVSsucfqIPgodAABBUFBQkPpZTBiGEYeJAQEBfXQtRCKRQkJC2Gx2SUmJqjwcDic1NXXs2LE9HQngaIKeCh0AQCKRfHx82Gx2eXm5qokkqVRaXFxsaGjo4+PTR8MImUwODAwsKyurra1Vdbu2trbq6uqQkBB8O5LW0V+hAwBoNJqnp2dlZWV1dbWqPCKRqKioyMrKSnPDoprb+fj4FBUVNTY2qspTV1fH5XIDAgLw+BbaRa+FDgAwMTHx8fHJyclREx9dIBBkZ2d7enr2fYWtmZmZm5tbbm6uKlu+TCYrLy+XSqVBQUFajMuFo+9CBwCYmZn5+PgkJSWpMa53dXWlpKQMHTq076sObWxsWCxWcnKyqokkqVRaUFBAoVCCg4Nxg6O2wIUOAACWlpZubm6JiYlqHJnz+fzs7OygoKC+ux9iMpkuLi6JiYmqdt9JpdLs7GwTExM/P78+3gsHARc6AABAEOTg4GBpaZmRkaFm40Vra2t5eXnfV9ii81aJiYmqJpIkEklmZqazszM+kaQVcKE/A4IgFotFoVAyMjLUbBFCVtgGBQX10TBCIBBYLBaJRMrJyVEzaZqXl+fu7s5kMnGt9xFc6P9BJBK9vLwkEklOTo6qbc4wDNfW1ra1tY0YMaKP4W0JBIK3t3dnZ2dBQYGq23G53JKSEj8/P3xHUh/Bhf4CiHtoLpdbWFioytqNGEb4fP6oUaP6aFwnkUgBAQHIRJKq27W0tJSXlw8bNgyfNO0LuNDloVKpvr6+NTU15eXlqvLIZLL8/HytuGqhUChBQUHV1dVqbtfQ0FBVVRUaGor7U+81uNCVQKPRhg8fnp2drWZmB4bhrKwsOp3u7e3dR60bGhoGBQWVl5fX1NSoylNXV1dTUxMaGtrH/pLeggtdOTQaLTAwUP12OIlEUlBQYGlpOWTIkD6uJqfT6T4+Prm5uapcWsMwXFNT09XVFRISgk8k9QJc6CoxMzNzd3fPzMxUE1BXIBAUFhY6Ojr23QhoZmbm4eGRlpamKmQk4trOwMDA19cXj1/XU3Chq8PW1tbW1jYzM1PNdjgej1dQUODj42NnZ9fH29nY2Dg4OKSmpqoKHCmVSnNycqytrd3d3fEdST0CF7o6ELcwpqam6enpatzhcjiczMzMkSNHGhoaSvqGvb29qalpWlqaqg1QYrE4OzvbycnJ1dUVN65rjo67pOspLS0ttbW19fX1XC5XJBJ1dXUhMY8ePHigxocjAoPB0MryWhiGW1pa1O/0s7CwePvttxV9o2KBIMjIyAgJTsZkMpGp375X7zUFFzpoa2vLz89PTExMSkqqqamRSCQymQx+zmDXrk9AzyEQCCQSydHRcfTo0WPGjPH09FQV+kZX0Wuh19XV3bt378qVK/X19Zr7Fn3dodFotra2ERER06ZN6/u44nVBH4UOw3BbW9vNmzcvX75cWVmpuWNRXYJEIrm5uc2dO3fatGkmJiY6393XO6FLpdLc3Nzvv/8+Ly+vdwFHdQkSieTn5/fFF1/4+fnpthlHv4QuFov/+eefgwcPtre3D3ZdXiGsrKw+//zzKVOm6PBUlB4JncvlHj9+/NKlS/rTHdccGo0WFRW1bNkyXXXwqy9CFwgEBw4ciImJ6Xukc12FTCbPmTPns88+08mlY7rcLUMRi8UXLlyIjY3FVa4GsVh89erV6OhonRyd6/6SCRiGk5KSTp48qWqDJhYCgWBkZESn0+l0uqmpqfoZmVcfoVDI4XD4z3np4FsgEBw/ftzJyWnChAk6ZofR/a5LVVXVypUr1cSfQCCRSK6urjNmzAgMDHR1dTU1NR2Y6g0AHA6nvLw8MzPz+vXrZWVlL22wbW1tjx075ubmNjDVGxh0XOhCoXDXrl1XrlxRkwcJnrhs2bIpU6bo9qpAqVR6586dEydOqNnQhBAREbF582ZdWvuu4330zMzMe/fuqclgYGDwzjvvnDhxIjw8XLdVDgAgEonTp0//7bffIiIi1PfK7t+/ryYq/OuILgtdIBBER0ercUtEo9GWLVu2YcMGvQoQZ2JismHDhpUrV6qxrnA4nIsXL2oyqnld0GWh5+bmJiUlqXpHQxA0e/bsJUuW6KGXQ8RqPn/+fDWzocnJyRkZGQNZq35Fl4V++/ZtHo+n6mxISMjKlStfd7tKr6HRaMuXLw8ICFCVgc/nP3r0aCCr1K/orNB5PN7jx49VnSUQCBs3btQl00ovMDEx2bx5s5qRSUJCgs7MIuus0NVHnwsPD/fy8hrI+ryaeHl5hYWFqTrLZrORUAg6gM7aGXJzc1WNpSgUire3d3Z29gBX6dXE19f34cOHSueMRSJRdnZ2SEjIwNdK6+is0NWYisVi8fHjx/HQnghSqVTVFJJUKi0sLBzg+vQTOit0Nc6AYBhWM0jFwVJbWzvYVdAOOttHVxPBAkdz2Gz2YFdBO+is0NV4YsHRnJeGHX5d0Fmh662BXLvozMJmnRU6k8kc7CroAu7u7oNdBe2gs0IfM2YMblfpIwQCYcSIEYNdC+2gs0JfsGCBt7e3zi9I7D+QmAhRUVGDXRHtoMvr0dls9qVLl+7evVtVVaWT28P6CRKJ5OzsPH369MjISJ3xYqfLQsfBQdHZrgsODhZc6Dh6AS50HL0AFzqOXoALHUcvwIWOoxfgQsfRC3Ch4+gFuNBx9AJc6Dh6AS50HL0AFzqOXoALHUcvwIWOoxfgQsfRC3Ch4+gFuNBx9AJc6Dh6gY7sHb7VlNEoVBIMmgBBZIjEINMcDCy8jR0ohL4+b62g9W5zFpIeZe7pRbdH0tcaU1u6uQAAAyLlXfuxfbzLwNApFV6uT0xsK2oScSgEkgedGckM9Wc4D3a9+gUd2TM6IeHruJY89XmMiAYrXKZu9ZrPIPU+xMW1xtSZyd8h6Z8CPviY9SaSHhb3eVpHGQDAgmLcEn6m1+X3jnph21f553b5LGQamGt4SWJbUWTKnnphm9zxda4zDvgvhYBOxV4EetV16ZQKD5T9/WbidqFMR7xPAQBEMvHO4hjPe6vP1DyQadxmsUUdbyXtQFVuSKSQoGc+cH4sv7a7RF0Qv9cUHRS6JYVhQzVF/qyoDFOyEfZsQlvhobJrg1U3rbM25+TmgvN8Sc+iap2pedgufuabcq/v4s4Zf3DfurDA4Q3kyL7Sv6TwS0LvvnboSB8dS/y4nWjXGaFG0LIs4+c7z/vWJ6rufOkeMRhV0z4iaW/eTpVdTWh6qdNkCECGRMoG99nnax8BANq6+Y2idnsDC63V8hVAB1t0RRwNLU+HrEM/lnc1dsuU+DPqkopSO0pjG5KuNabm8aq1WwcZDOfxqm+w0640JCW1F4tlUsU8MICFMjHyJ4HlM6CnkGtlMCyUibFNrwhzVj2uNBs0fbzqXyRxk52OJIgQwZLC6OHzveroYIuuFDsDMyqBLJKJAQAyGBZIu7EWmCYR59vCixdq47mSLvSgg6HFl0MiPmKFE6E+NQdimXRf2V/HKv6tFvznsp1OMljuPGWLxzxzCh09WNXVzLqzEkmvdJl2LPBD9FSHuNPsxkIkvcDhjXNDP73SkDg3ZS/2RkPurkLPqq/SPPsxmwrOIb/2bwouDjVxS+eUby44h5ydywylEsi9ft5XE30R+uPWAtHzMagN1dSE/J/hJam9ePbT3Q0K1slaQevanJPX2WmXR3xpROylE2q2qGNW8q7k9mK543yJ8GDZP383Pr056hsP+kA7/nU0tPzU7e3vS64AACSwNDxpGzqQdTWy+cFv6QDXZwDQwa5LIa82k1OB/KV0lN5rzv6x/NqclO/RDFHPR10AgCYRJyJ5F6pyMzI93CZkrIU3aoX4tyljSfpPvasJDOCFaQdRlVMIpAmWftOsg41Jz0I2l3ey30rawRF3qS5DJVQC2YJijG16zch0C4oxWrh6tnm9x3regUFVPsUqMHHc93YGOhhHWwdb9Iinu9Wc9aTbf+s5H/24ueB8o6gDSb9jN/JMyDpEKLnc6vCkbbWCVgBATP2TW00Z062De1qTC7Xx6OySB515Y9QWNyNbAEBbN39uyp77LTkAgNLOhl0ll3f7LOpp4TNth7eEn1mSfuh0zQPkSHbYQQdDjUaQZZ2NSzN+ruh6IWyLB515c/Q3feynvbLo5lMphQgRohzeeDxuJ9pv4UuEf9TFI2kzMv234I/R5tCP4XQA8wY/VnGrF3c8UXUbTf8S+BGicgCAOYV+OmSdwfPG+JfK25qbwPtOYlvRsLjPH7XKz68V8+t3FF9C0mkdZUrH668vOih0SwrDlGxEgF6Y2/vEbWbttF/PD/0Ua09I7ShFLdBzmKPNyHTsJZHMUPRInIIsXooUliW0PotdOMTIbrylL/asg6HFdJtn8TvbxfwcblVPy+8dDcL2mcnfdYg7kY/v2o/d57sEPbut6M97zdlVXc3D4j5nXI8aE/+V4u/hNUUHhR4/bmf7m+c4b17Y7bMIlftP5dcv1spHtseaQdDmFgt6sEPc2SUV9agadcJW1ESotPAhRnbYzOpL09YMzvbi6NbuZ6EnV7hMvThs/fohs9CFDDIYjkr7AWnXRTLxk7ZCnbEz6qDQEegkgw3us/f4LEY+SmHZZ7m//1R+HZvHgEBB0zBQ0nmgYkyQPe289rFw2YvKFiuY1XvHlfokJEEnGez1ffblHPBfOsHSD0k3iTgnq+4gaX+Gs4+xo1buO+jorNAR1g+ZhR1Ers/7PZ1Tjn7ELoEq62xUvLykswFJWFEZPTUtW1EZZAJRTeHF/Ho07WhoCQDALqWSW5DDed7Z6AvdMgn7+cjb3YiJLm4jQcRLw79wplnJ5V/nOqPvN31F0HGhAwB+Df4Y7WqLZdIl6YfQucMgExaNSEXSMfVP0Hc6wk12epOIg6QnWgb09L4QgEabeSHpss7Ge83Z2LPNIu6N5zORtlRTb2MHAABaGQCAXGXyeMoDYRMwrwKl7w0sFALJkPjsPVPRxcYONy0pjMvDN2AHNoZEynSbHhuaXll0X+hMA/Mf/ZehH3O4VfvLriJpOslgtt0oJM0Rdy1O/xEdpWVwypdnHkavWuv6Vi9u/T/HCWh6ZdbRQn4dkm4WcSNT9nRKn42D17i+hbTl5hQ6+hKIb81HVxe2dvO+Lbyo9BZofgAAMhug3loSZumPJDrEnWtyTqCTaHm86vV5v2ONPwJp98i4DTozGNVBO7oiixwnxNQn/t34FPm4rejPecwxrkY2AICdPgtvNqUjzed1dprj7eUjTN35UmFqRyn6X1/pMi3U3KsX913sFPZb9b0nbYUAgLLORr/7a0eYuVMJ5KftJejQNsiE9anb20iaCBFCzb2QhfU8iWDow/WRzFCRTHylIam1mwcBSLHNtqaYoOlu/AUAABOkSURBVOnpidvsDc2HGNnFjtioqkqbPSJvNaUjj/ZL5e0r9Uk+xo5tYl4uV8nanjpha1jClq2e727xnNeLx3+l0P0WHeF40Cp0VYlA2r0q+xiSdjS0jB2x0ZZqinzkS4T3W3KetpegKn/PYdxP/h/07qZI33e46RDkoxSWJbYVPWzJRVUeaOJybdRmtDsBAPjaYy7aU28UdfxcceNE1Z3Wbt58+7HBJizFW6CDSABAu5ify62u6mpWzIYSau51JGAl2kVp6eY+as3DqtyGarrDewG65IEEEadYB/X0wV9B9EXotlRTrF5vN2Wef25tHGfhkzPxx7Wub1lRXzCleRs7nAlZd2HoZ9juQU9hGpg/eWP3Pt8lciuHrakm33rOTxi3S2417GSrwMsjvkTGpmjOvb6LLwz9DIKU7PqZZBXwpXsE1mgjhl8y0bPSZdrDMTsmWPrJTTUwSLSPWW9mhR3Y7BGZ+MZuZE/dQb9lo8w8NH7cVxcd2UqnFSSwtITfUCtsJUIEV5qNC81au+VXdTVXCZoE0m6mgbmvsRNBmXARZDCcza1sFHVYURiBJi7owhtVtHRzMzkVMAAOBhZexvYaboRrF/OzOVVtYh6FQLYzMAtgOGNvJIVlt5oy3rIZquHTveLgQsfRC/Sl64Kj5+BCx9ELcKHj6AW40HH0AlzoOHoBLnQcvQAXOo5egAsdRy/AhY6jF+BCx9ELXrJMVygTX29MzeCUNwjb28R8IyLV3tBiqIlbuE2Ihv5DBpjztY/EMgkAwIZqGv589/FAUi1ovslOz+FWtXTzJLDUjEz3MXaYbBWo6HdcAkvP1cQhaReaNXYd4qCQ2lGKLmN8x26knHPWPqLKr/yAoVLoPIng/4r+/KXyNk8iUDxLI1I/cZu5xXOewSvmu2xl5lFkQ8MYc68BFnq7mP957qnfq+8r3ekz0dL/RNBqZBE8glAqfj/jmWukOczRgy70P+oe7y99tiVlmOmQvgj9z7rHxfx67Cr2TE4F+rA/BXww8EJX3nUp6WwY+nD9/tKrSlUOAOiSinYWx0x9srWne+N1lS6pKDxx+2/V91TtZ7vfkhMav1Hp5lFdIp1TPu7xpndT91cJ1C2LH3iUCL1R1DE54Vt0XzAAwIxMn2odFMkMHWnmgV2cHd+avzr7l4Go5ivP/tKrqOs5CECTrAJWsaZ/6DJtDGZrElvUsSLzyCBVcCCoE7YOj/v8cWvBYFdECUq6Lh9lHUcdntBJBgf8lr7vNAld2l/V1bwq+xjqYvh09YP1brP8GE4DU91Xlt+q7yEJBokWN3ZHEGY3UEz9k3kp+5CW/n5LTjG/HvEqSicZtL/5zIFt34MrvQqIZVJVLsem2wSjD4vdAz5gyH+/KR2lsQ3PXH+QCcTbo7eONvfEZnCmWf014qux8V+ldJQCAGAAX6yL/46xQK6c0s6GYn49VyIgQQQriok/wxnrHxkA0C2TyNTuWicASO7fL4VlaR1lNYIWAyJliJGtp2b9vCJ+XT6vhkIgB5m4qHdu3yUV5fNqagQtZIjEMrL2Ndb01yuSidENbENN3YJe3PMWyQydYh14uykT+ZjSUYq6zzV4vomOiHm1ot8MCSIgOyGqupqzuZUQgAJNXLCbj3gSQVJ7MU8icKFZh5i4KtYK+X4Vv0n0FhAAGrrxkMKyHG5VlaC5SyIyIJLtDSwCTFywI7RumUSEcdEhhWWIxw4qgQQBiAAI/z2sCg85Ld3cIn59g7DNmGToY+yIfVIUCSyVwDJszUUy8dP2EmSTyihzT1WDRnmho85rAAAfuYTLqRyBQiDt8ll0uSExiMEKNnWVsydca0z9Iu8UuuMdgQBBEXajDvkvR12pTEzYktBWqLROCL7GTrkTf0TSMIB/Lr+xvTi6WcRFM3jQmTu9F85hjlZVQjG/fnnm4fjWfOQjBKA3bUKOBK50MpR3YNJH/+gUAolMICLb75+0Fd5pzppiFYjNcMBvaVVXsxGJakQ0QH3Y8iVC4+vvIek5zNExw79E0iMefZHFqQQALHOevNXz3VXZx643piEvBAIELXAYfzRwJZVA/q44Zk9JLDpG8qLbnxv66VBTN/SmnvdWIz8/T7p94aSfsfVBb2FvYFE77aT6p4MBvLfkr72lfyFh91CMiAZrXN/c6vUuIriQh+ux0RNOVd8/VX0fAFAy+cgQI7sb7DSlQc4Q0jrKthVF32CnYcMfDDV12+G9QM636+e5p34svwYAcKZZlU8+fqDs7++KY9AwNQwS7WvPuV8MeUfxKeSFfoudgabfd5qk6uEnWQVMslLi6uRKQ1Lk0z2KAzIZDF+uT8zlVqdN2NdTX+MwgP+X9uO52ji548X8+siUPf/n9d43yvaoVwtaQuM3Yr2jwAC+zk4b9WhDwrhdLEzIh777R4cANNHS/1ZTBgBAJBNPfbJ1tLnnHLvRk60CA0ycIQD5GDv2wuVVZVfT6PgNiEdfBBkMn615KJKJZTAcU/8Em7mQXzcx4ZuCST9pHphOQz7J+fXQix7OEDqlwt0lV2oFrWeHftKX8n+pvL0m54Sil460jrLwxG2bPSJ3eMv3FwAAMAyWZx7+/XmPEYEr6foy7zQJIqCOFVBeaKs44i60d04jUnsaclIg7f4o6ziicgqBtMhxwtcec5c5T0a91xbx6/5uSFF1uVzDaUExRhIHy/5BVW5JYXzoMm01K9ya+szNw7eFF9FeAZYaQUtrN8+P4bTRffZHrHC049QgbMf6O9eWf/T/83oPu+Eysa3o87xTQQ8/tbq5eH7qvou18QJp90sLkeNec3atoHWY6ZCv3OdgY5dG1yXE1D8xJFKWOk1a5zoDdY/IlXT9UPZ3T++innRO+U/lN5C0FZWxxvWtTR6Rc5ij0X/Wudo4xP+MGcUI66UVcd9uQTFW/z582JK7KvsYqnIXmvVM2+FY4X1XHHO44qbihdWC5t+r7zFItA+cp2x0n431bvl9SaxiU/tCi476KwMAWFIYcrt30znl6R1lirekEsiLHCcAAAr5tUwDc464UygTHw9ctcRpIpJhvv3YqU+2Imn07XZ3zDYZLIMARIAgAiAQIGhl1tFfq+4iZ62pJqdC1gAABNLu74pjkIM2VNO0CfuQfvYWz3khD9cjX/G2oj+nKnPJEMkM/WPYeuSL3ug+e+SjLxFBP2rNe9peMsLMHWjPP/oIM/czIevez/hJ9KIrudZuXnRdQnRdggXFeIf3gg9dpqkpRJH59mMvDvsM2exMgojoD55MIMaP3Yl0VKIc3hj56Fm3J72jXFVRvSObU+lOtyvtbCBChMdjd6Gji80F53c+/7/k82qYBubxY3dWdjWhoWkWOo4/GbRafeEwgFdkHkHHr995L9joPgdR3aX6JwvSfkB8qm3MPzPffoyiu1N7A4snb+xCOqIb3Gd73/sY+VeyRR01gha5Dqr8GOW/EwT5H+LfDU//r+hPxeqakGmI0INNXNMn7JfCsmJ+PXak6IcZ1aHRHeQGDRvzz6IqNyRS/h65Celd3G/JQbsfn7m9jY4mbaimnw+Z9Vnu7wCAhLbCWkGrnA98IkQ45L8cbU4cDS03eUSuyT6BfPy3KWOEmftL/aOjQYKOVdx6aSCA9xzGBZu67iiKjqlPFCmEMm3t5q3KOpbDrTocsEJ9OVi2e0ehW/rHWfigQp9jNxrtjo8wczckUpA3Btpb1RZLnCYucZrYJRXVClqxIWiU/k97SlxLHmrFnmDpt8kjEj01lxka15KLtOV8ifBcTdwnbjPlLt/gHoGq2ZRs9JbtMFRCbd18dULHRvZp7+6lV0siRPA2duBKuhLbilI7yp60FWJjOisGWwMAHK249f3zIK4ECDo/9NORz32JpLSXoNkIEJSECQaE7SpkcMrlhO5Fd5ALURKGmXpEXBlq4h8dkY6G/tGREeHhgJX/NmXcac560JIjN0N0pOLmdOvgmbbDNSnNkEhxx7iWZmD+O8Ev2lhMSDRE6Eq/3r5DI1I96Mw6YWtiW1FKR2l8a/5TzP+l1zd92JKLppc7T5E7+4HzVLTTEteapyj0EMzIGwCAeqECACg2NC8I3d7AwoBARqxC7WJ+g7AdqxVTshHW4apSj1AyGP6t+u6vVXefdpQoNakSFHps19lpa3JOoB/3+S6JeO4PEQDQ1M1B01/knVYsEKFa0CJ3RM4bEQDAlvrfsyDy1cQ/empHKXjuH11DA7AJmTbPfsw8+zEAgIoudnRdwp7S2LbuZ23tkYqbGgpdbhKehPnq5Gy1xOe/eQ19l/TI2zpH3PVD2dULtfGlmDlELIr/Uw3B/tcUv3/skTqBEv/x5i82TFg7qeLX8ILQCRA00twDbYBvNqUvxRhePnGbif6qJLCU/HckeBEJLH07eSc6lwQAcKFZh5p7jTLzWJvzzIZFeNG3Tgan/N3Ufej3vpoVLjde1vBforgSQXEUj3XrQ4aIQHv+0eNb87O5VQ3CtgZh+w7vBdjWgUWz2eA+e7p1SNDDZyERs7iVL3uaZxBUry19qUsjLDKF71CTWKQI9cK20PiNaKNGgCB/hnOouZchgYIOfAma+UtSxICIkabCbxQrXKVfvpwHNaWezFDkzYtz7EajQv+h9O+FDuM1n7Q7VX0fVflcZuhun/8ha5jaxfz/hI6pTY2g5a2kHWjnYabt8B/9l8uViR2C/DNys6qVT4qzHoqrSrBRJZBiteUf/WzNwxPP5x+GmQ5ZxZoul8Gf4YxGOe3QhqdzTUB/2EKF97jm3ta/zDuNqnyH94JVLtORl0lsQ9J/QlerMDXIff9ykzYlnfL+4/uC/A9lkeME9I2Zx6v+IPOI0jb1j9rHigdRh98kiHg6ZB26Uq/lRVffCFxJ15tJ21G73lgL7z+Hfa74w8VO+OXyqukkA/Qvh1t1tzmrUdROI1IV3SOyRR1PXpyQwr5qkO6dtvyjj7PwQdO7S66gvRSU6+xUtNeINeH3K+ijyT1XSzeXLeIou0IJ6P801Nxrs0ck2mVS+j/FKl4TD3DYhUBoAGsUNNoeAGCiskmbHiEvLFOy0U7vhejHMzUPRsR9EV2X0CBs75KKyjobT1TdGR73xaL0g4ploUsdJbAU9e0NAEAXf4LnPQqxTDrn6R509bMN1XSTe2Rie9Hd5izsX7uYP90mmE56NlmztzQWjRgokHYvy/w54ulu97sfmd1YiJ0xRVmW8TNajVxu9W7MeHem7TCgPf/oEXaj0IFstaB5fMLma42pHeJOGMANwvYfy69hv67ZmBFIv2LzfHDWJRX90/hs+kIKyz7J+fWlIQNQ0P9pg7Ad7fB0SUVHMWH60F4iGfrv5d8gagcAyGBYTedzgqUfaht53FrwbeFFNPP52kc/lD57Y1hQjBdgQsP2DiXdklWs6WmcMtRSk84pn5+6T00RU62e2bCDTVjo4vo3k7Z/OSSCAEHYWJsAgDYxHwDwoCUHe5At6ngzabtiyQ/GbJ9g6bfBffaWggsAgLZuftCDz6IcxtlQTWMbkgt4tUi2KIdxikNPAEAhv87r3sdTrYOksOwWOx19gy90mIA2q1rxj04nGezyWfhh1jNX1LncamS6mwQR5SwSNlTTtQMVL+UNC58HLTlIel7K3nn2Y83IRv82ZRTy65S6WldKsAkLWdRU0cWemfzdYsew5m7u4Yob2Lg06BvMnEInQgRErDfZ6X731zWK2u+Ebg1WWIeDAAHoSODKmUnfIZXZVhR9suquH8OpsqsJW/5P/h/0fZeP8v73iaCPnA2tthdHqx+1MA3Mt3tHoQPWdW4zfq2+izw2ss4EOW5KNrKiMJD+bjanEgCgfjmXHF+5z8nkVFyuTwQAcCVdxypfeMeNt/TdiwkgiLLMefLtpswaQQtyIUqQCesQZiSA+Eefl7IXmWtA/KNj82voH32ly7SqruZdJZexB+VUbk6hXx/1tdLfZH+wijX954obyG9YKBOfed4T8KLbjzb3kps8V8VWr3dnPBfiv00Z/zY9WyHix3Aq72QjNoDs58NrKoE82twTXaaLTA7WCFpUCR0A8JbN0EMBy9fn/o68FuqFbdi+AAGCfvBb+p7DuB49uFKUj+shAG3xnJc38adVrOnoZDsKg0Sbwxx9fuinFVOOY80y9gYWD8Zsx/aqCRD0tu2I1PH7Vrs+W8RTyK/L4PRs9o4IEaKHfXE4YIVc75ZBoq0fMuvGqC1o3waLg4HF0/F7sZPVZAJxufOUh2N2YKcLgPb8o+/0WXhvzLap1kGKIw1bqulqVnjRpMNDXzT99is2VNNHY79DJoARDImUFS5Tk97YI2edVMObNkP/GLYea0dCNpcljvsenY2+3PDfBNnRgA+x80okiPjStQ8fs958+sbeucxQ7BwiAYImWvo/HrtLWwHDXu42GgZwRWdTeVcjXyI0I9NtDUzdjGzVm7eK+fVlnY1UItnf2Fm7DVhpZ0ONoEUg7bahmvoznDWxCLFFHbncaiJECDRxkZsSkkNb/tE7pcIcbnWziCOGpeZkup2BmYYrivuJss7Gss5GI5KBP8MJjUTXIySwNItT2SjqMCMbBZu4YkN0KCKD4SxuRYOw3ZRs5GPsqPmWvE6psITf0CBsp5MMfIwd0cVOWgH3j46jF+DuLnD0AlzoOHoBLnQcvQAXOo5egAsdRy/AhY6jF+BCx9ELcKHj6AW40HH0AlzoOHoBLnQcvQAXOo5egAsdRy/AhY6jF/w/AWJHjlzmoyEAAAAASUVORK5CYII=;" parent="1" vertex="1">
          <mxGeometry x="529" y="350.93" width="59.32" height="48.07" as="geometry" />
        </mxCell>
        <mxCell id="ygFGr8_wO-zUAzRDIiU--29" value="" style="shape=singleArrow;direction=south;whiteSpace=wrap;html=1;arrowWidth=0.3428571428571331;arrowSize=0.40476190476190366;" parent="1" vertex="1">
          <mxGeometry x="254.13" y="420" width="30" height="38" as="geometry" />
        </mxCell>
        <mxCell id="ygFGr8_wO-zUAzRDIiU--30" value="" style="shape=singleArrow;whiteSpace=wrap;html=1;" parent="1" vertex="1">
          <mxGeometry x="398.34" y="470" width="100" height="60" as="geometry" />
        </mxCell>
        <mxCell id="ygFGr8_wO-zUAzRDIiU--31" value="" style="shape=image;verticalLabelPosition=bottom;labelBackgroundColor=default;verticalAlign=top;aspect=fixed;imageAspect=0;image=data:image/png,iVBORw0KGgoAAAANSUhEUgAAAKUAAADGCAIAAAA8Kdd5AAAACXBIWXMAAA7EAAAOxAGVKw4bAAAgAElEQVR4nO2deVwT59bHz4QkLGFfAgRBJSIomwrVKl63ooK4Xq1116KioBXb2mrf3t56vbe3i61a8bqhVVxbsWAVREUtuAtoFEhYlX2VLCRsWef9YzCmLCFByCQk349/jM88mXmSH/Ms5znnDIKiKBjQGwh4N8CARjHorV8Y9NYvDHrrFwa99QuD3vqFQW/9wqC3fmHQW78w6K1fEPFugAGVEIvFYrEYAEgkEolE6vV1DHprO01NTeXl5enp6dnZ2SiK+vj4vPfee4MHDzYzM+vF1RDDfok2k5+ff/v27Zs3b5aUlEgkEgBAEGTEiBHTp0+fNm2am5sbkajeE2vQW0tpbGx88ODB2bNni4uLm5ubFU8hCGJhYeHj4xMaGhoaGmpsbKz6ZQ16ax18Pj87O/v333/PyMjg8/ndVUMQhEgkzpgxY+7cuX5+fhQKBUGQHi9u0FuLaG1tLS8vT0xM/PPPP6urq1X5CIIgzs7OU6dOnTVrlqenZ4/Pup7qjaJoY2NjS0uLQCBoa2uzs7NzcnJSdyzsWwQCQXJycnJyMpPJxKbiqmNiYkKn00NDQ2fPnm1nZ6ekpn7pjaJoS0vL06dPr169WlBQIJFIJBKJVColk8m2trZ0Ot3d3f1tVjudMTY2dnd3V/7koShaVFQUExPDYDD4fH53ihAIBACQyWTdXcfc3NzX1/fDDz8cO3askZFRl3X0RW8URevr6xMTExMSEmpqajR5awRBpkyZsmvXLmtr685n29rarl69umfPnsbGxu6uYGpqSqfTly1bxuFwrl69WlhYiM3Vu4REIn311Vfz58/vcjg32rlzZ6++hS4hkUiys7NjYmISExOV/Kz9R0VFhbW19ahRozqfYjAYe/fura+v7/KDBAJhyJAhCxcujI6ODgwM9Pf3HzNmDIlEYrPZ3U3lZDJZaWnptGnTzM3NO5/VC3vLtWvXTpw48eLFC6lUiksDpFJpZmbmmjVrOpSLxeKcnJyqqqouP0UkEufNmzdv3jwvLy9TU1MAQBCETqdv2rRp4sSJV65cSU1NbW1t7fxBLpdbWFjo5OTUxTXf9qtoN21tbZcuXfr555+bmprwbUmXwohEorq6us5/hWZmZu+8887cuXODgoIoFEqHs6ampuPGjfP19Q0ODo6Pj8/MzGxra1OsYGxsbGtr22UzBrLeLS0tSUlJhw4dwl3s7iAQCJ2nh2ZmZmvXrl24cKGSmTaCIBQKZerUqWPHjr1y5UpycjKLxRKJRNjHZ86cOWLEiC4/OGD1FolESUlJsbGxHA4H77YAALS0tLBYrA6FQqGQzWZ3KDQ3N1+0aFF3D2gHKBTK4sWLx44de/v27WfPnpFIpFGjRi1YsEC/5ucSieTChQuxsbENDQ14t6UdU1NTZ2fnDoUoinI4nA5TSCqVGh8fr6LecsRiMZvNNjIysra2VrKkHIDPd1NT0++//37w4MGWlha82/KG1tbWly9f9t/1SSRSlxO0Dgw0vRsbGxMSEk6ePKlVYmsPA8q/RSgUJiQknDp1SkvGbC1k4DzfIpEoMTHx2LFjSvaUDAwQvZubm+Pj448cOaK1Sy8EQUxMTDpvyUgkEqFQqMQqrjqtra0ikcjMzGyAz9daW1uTk5PPnDmjtWIDAIVCCQkJ6bwsLisrS05O7rwqUwuhUPjkyZOHDx/yeDwajRYUFOTn59dlzYGg99WrV48ePVpXV4d3Q5RhbGz87rvvzpw5s0N5ZmZmenq6ot5SqVQgEKi4HkNRtKys7OLFi7dv366oqAAAIyOj+/fvb9++3dfXt3N93dZbe8ylvQbbk1Us4fF4X3311bx586ZMmaLExCaTyRoaGuLj42/dulVaWirfMpdKpfn5+Q8ePBhoemPm0sOHD+uE2AiCYBvYHTA1Ne2wNS6VShkMRk5Ozt27d1evXi3fLFGksbHxyZMnFy5cuH//fudrikSiysrKLpuhq3rLzaVvOfJpDGNjY0tLy87l9vb2Dg4OnU0xEonk1q1bRUVFoaGhYWFhgwcPlv+5PHv2LDEx8c6dO91ZD01NTT08PLo8pat6X7t27eDBg7oiNoIgI0eO9Pb27nzK0dFx4cKFRUVFXdoMysvL4+Li7t27t3Tp0jlz5jQ2Nv7xxx+JiYllZWVK9na9vb07TxTaW6Jz9vO2trbk5OQff/xRY904gUBwdXXtsjdWBSKRGBAQsHnzZisrqy4ryGSy4uLiffv2ZWdnd+fPRCKRPD09RSKRkl18IyMjOzu7KVOmREVFdTfw65jefD4/KSnp+PHj3TmE9DkIgvj7++/evdvExKR3VzA2Nu48AHdGIBCkpKTcuHGDxWIJBAJ17+Lk5DRmzJh58+YFBgaSyeTuqumS3lKp9MKFC0ePHtXkrpejo+POnTsnTpyogXuJxeKqqqo7d+78+uuv2OJKFYhE4siRI1etWhUYGKjcORV0SG/MXBoTE6NJBzQXF5cNGzaEhob2+uHuBUKhsKCg4PLly6mpqco3AhAE8fT0DAsLmzx5squrqyr+1LqhN+abHRMTo0nbuLOz8/Lly5cuXaqke+w/UBR99uzZgQMHiouLeTxeB4MriUSiUqkBAQGbNm2i0WiqX1YH9BYIBBcvXjx16pQmu3EnJ6eNGzeGhIR0dh/TJDU1NXfu3ElNTWUwGJi7EgBQqdTx48eHhIQEBASoMjNQRAf0vnDhgoaXXhQKZdOmTQsWLOjSpVfDCIXC6urq1NTUS5cucbncYcOGLVu2DBuqe7Fk0F69xWJxc3Pz1atXY2JiNGlBo9Fo4eHhoaGhXZpH8EIkEjU3N8tkMiKRaG5u3p17Wo9onb1FKpXW1NS8fPmyoKDg+fPnWVlZHaJh+xUrK6uVK1cuWLAAlzFbCWQyuU+apEV6y2Sy3NxcBoNx//793NzcXqxB3xIajbZo0aLFixdrm9h9iLbozePxbt68GRcXV19fj4vrmbOz88qVK+fMmTOAxQZt0Bt7rE+fPp2ent5lEIYGcHZ23rRpU3BwML6zcQ2Av95ZWVlHjhzJzMzEa+bo5OS0bNmykJAQtRJj6Cg4652dnb1nzx4Wi4WX2DQabeXKlQsXLtQHsQFff+SampoDBw7gKLalpeWSJUvmz5+vrtVCd8Ht+a6rqzt8+DCDwcBLbFdX1w0bNkyfPr13icx0FHyeb4lEgvnpdQhk1RgUCiUiIiI4OFivxAa8nu+Wlpb4+HhVTKSmpqY+Pj5YJgwul5ufn//2tjYKhRIeHj5jxgx9Exvw0vvevXvPnj1TUoFEIrm7uy9YsGDKlClWVlbyVDV8Pv/+/fu///57YWGhukmMMGxsbMLDwxcvXqyHYgMu9vO2traIiAgGg9FdBRMTk1mzZkVGRnYX8Mhms2NjY5OSktTdC7e0tIyMjBzYFjTl4PB85+bmvnjxoruz1tbWISEhUVFRNjY23dWxs7OLiooik8mJiYk8Hk/F+9JotIULF+qz2IDLfC0nJ0coFHZ3NiAgYM2aNUrExrCwsFixYsWECRNUSSIJABQKZcmSJXg5L2gPmtabzWZnZGR0p7erq+uKFStcXFx6vA6CIFQqdfHixYMGDeqxsrOz8xdffPHBBx9YWFio3eKBhab1FgqFSrZD3NzcRo4cqfrV/Pz8vLy8lNcxMzNbvXp1SEiIfk7QOqBpvdva2uR+OR0wMjIaPXq0WqqQSKSxY8cq79KJROLEiRP1xFzaI5rWm8fjdee/QCAQPD091b2gs7Ozcr0FAsH+/fvz8vK01pNHk2habwRBlMjTi6ewx5kdiqKpqal79+5lMpl45VfUHjStN4VCUSJqLzwdVFmCoyj69OnTvXv3FhcXq3v9AQYOenfnu4+iaHdRrEooKytTpaMWCoVZWVmHDh0qKipS9xYDCU3rbWFh0d2MDIt7VstkxuPxHj16pOLALJPJ7ty58/PPP+fk5Ohtx47D8z1o0KAuI19QFGUymVlZWSqKIZFIMjIyOiepVIJYLH748OHhw4ezs7P7JEWOzqFpvbFFV3dDOJvNTklJUTEffU1NTUpKiur2VAyRSPT48ePY2Nj8/Hy1PjgwwMGeGhQUZG9v3+UpsVh89+7d8+fP97gvLhQKr127dv/+/V7skgmFwkePHu3Zs0fDLzrQBnB4v4GJiQmbzX7y5EmXZ8Vi8fPnz2tqalxcXMzNzTunEmttbS0qKtq7d++5c+d6tyUKADKZrK6urri42MXFhUql9jqWX+fA530WZDI5LS1NyUP88uVLJpPJ4XAkEgmRSERRVCgUcrlcFouFpVp7/PjxWw7AMpmsvr6+srKSTqdTqdS3uZQOgU/8WEtLS0xMTEJCgvIFN5lMdnR0dHFxwZZwra2ttbW1tbW1SrbX1IVAIEyaNCk6OnrYsGF9dU1tBrd4weLi4u+///7x48e4mzmJROKkSZM2bNjg5eU14Dt23N5PZGNj4+TklJ2dre4Eu8+RyWSVlZXl5eVubm5UKlXFDXUdBTe9sQ1smUxWUlKCe8I8mUxWXV3N5XIxyfFtTL+C5/vHjIyM6HQ6mUwuLS3VfDRoB1AUra6urqur8/Dw6DHrje6C8/vmyGSyh4eHg4NDWVkZl8vFsSUAIJVKq6urKysr3dzcHBwcBmTHjv/7BUkkEp1ONzY2ZjKZmgzt7xJsLOfxeMOHD7exsRl4kuOvNwAQCAQajdbS0qINW9QoitbV1QmFQj8/v4EXV6YVegOAiYmJh4dHVVWVNmxRi8Xi0tJSCoUyevRovNvSx2iL3gBgZmYWEBDQ3NxcUlKi5P23mkEsFhcVFXl7e6viLKtDaJHeAGBmZubh4dHU1PTy5UvcJZdIJMbGxv7+/ppMrtjfaJ05iUajYWG6vU451VeIxeKMjIx+fUmc5tE6vQHA0dFx69ats2bNUvKeHc1QXl6elpaGV1aZ/kAb9QYAKpUaHR09f/58fIMEJBJJfn4+7ragPkRL9QYAR0fHtWvXhoWF4fuUV1RUaDIjc3+jvXoDgIuLS2RkZHBwMI5tqK2tVRLNqnPgn49LOQ4ODtu2bTMxMbl+/TouefjEYrGhP9coVCo1MjIyLCwMr7Ec95VhH6IDegOAs7Pz+vXrQ0JCcFmk4W7i7UN0Q28AcHZ23rx5c3BwsOb3MHDfxelDdEZvAHBwcNixY8eiRYs03LEPpF0TXdIbAOzt7detWxcWFmaI5+4dOqY3ANBotIiIiBkzZuBucNVFtH091iVOTk7R0dFYYHcf+ibrA7r3fGM4OjpGR0fPnTvXkJVFLXRVbwBwcnLCxnJV3rNmAEOH9QYAGo0WFRU1kPan+xvd1hsA7O3tB55XYf+h83obUAuD3vqFQW/9wqC3fmHQW78w6K1fGPTWLwx66xcGvfULg976hUFv/cKgt34xEHYSjY2N+9VFvL6+vrS0VP5fMplsbW1tamqqi/s0uOVfUxEURaVSqUQiqaioKCgoePXqVV1dHYfDEQgE8pZnZWX1q5eLpaWllZWV/L8IgpBIJDMzMzs7OxqN5uPjM3bsWDs7OwKBoP3p27RX75aWlvr6+uLi4jt37mRlZVVVVWltBmsSieTv7z9x4sRx48a5uroq/nFoG9qot1AoLCoqunv37t27dwsLC3XFQ41IJLq5uY0fPz4kJIROp2vnu860Tu+WlpZLly5dunSpvLxcFx39yWSyq6vrtGnTVq5c2eO7dDSPFuktFouZTOaZM2cePHig6yF6ZDJ5/Pjx4eHhvr6+uGctUERb9JZIJElJSXFxcdqQn6mvGD58+PLly0NDQ7UnQkWN9RiHw6msrFQl1ymBQHB0dHRyclLxe4rF4vT09KNHj1ZUVKjeHu2nsLDw6NGjBAIhNDRUlYAYqVT64sWLgoICVTKIkEgkZ2fnwMBAtdxzVa2anp5+5MgRPp+vyisFEAQxNTX19vaOiIhwc3NTXhlF0YyMjP379/fiZVTaT1VVVUxMjI2NzeTJk5XXFIvF165dO3XqVF1dnSoRyAQCgUKhhIaGRkREqO6Er1J//ujRo6+//rq6ulrFi7ZfGkEmT568e/du5f7Cjx8/3rlz54AUW46VldX+/fv9/f2VxEDl5ubu2LGjrKxMrStbWlpu2bJl8eLFKhp/erYPyGSyBw8e1NfXq9UOAEBR9PHjxw0NDUrqcLncn3/+eWCLDQB8Pv/YsWMlJSXdVZDJZPn5+eqKDQDNzc3FxcXdvYK3Mz3rLRaLuVxu73IctLa28vn87s42NjbGx8er9QIxHQVF0aysrMuXLytJ/dPjK5m6RCqVNjc3q56RoGe9pVLp2yQ46M5agqLo8+fPL126NJCyJyihtbX1ypUrDAajuwFUM9bDfrf3djd4V1VVnT17doBNyJXT0NCQkJCAr2kBH/u+VCrNzc0tLCzE5e448vz5c3y/NT56C4XCtLQ0NpuNy91xhMPhpKWl4diAfte7y2lIbW3tnTt3tMS0p2GuX79eW1uL193xGb/v3bun6xbyXtPU1ITjkgSf/rygoACX+2oDYrEYxxzbOOjN5XKZTKbm76sliEQiFouFV/f2xn4uk8l4PF51dXVJSYmikVwkEpWXl/f6BikpKXl5eYolbDYbxwEMd1AUffr06TfffEOhUBTLez1vz8nJ+eGHHxQttUZGRm5uboGBgXQ6vcNu7Bv7OZPJPHXq1J9//jmQ0rvrM8OGDdu2bVtQUJBi4Zv+/Lfffrtx44ZB7AFDcXFxXFxch8I3ejMYjIGUCNgAADAYjA4lb/TWTv86A2/D4MGDO5S80RvHBOMG+gMSiTRlypQOhW/m57Nnz8ZcLGpra/XT8jVgQBDE1tZ2xowZixYt6nhKUVqxWNzW1iaTyQx66zQIgmAuZZ1dY7XFP9WAZtD2eCcDfYtBb/3CoLd+YdBbvzDorV8Y9NYvDHrrFwa99QuD3vpFH+dnEolEra1/cUhFEIRAIJiYGPffW2WkUmlTUzMAkEgkM7OuI5BbW9uwICsTExNjY7K8vE0oFLa1R8BYWFoQFKLu+AIBKkM7l/cOPl+AoihCQCyV7kM2NbUHB1lZWb7lHbukj+2p8Ql/HDh0rMtTtrY2YwPHhK9e7kh16MM7AgArryByyzYAmPy3Cbv++UWXdWJ/OX3m/AUAWDA3bOtHG+Xl/9z1bfrdB9jxvt3fjB7lhx0Lmprm/H0ZiqLGxuSrl357+z/W4Fl/F4vFlpYWV34/p6TayvCN5RVVAHDtcrypad+/h0dz/TmHw71249amrZ9zuTyN3VSOv+9I7ICV98Y1VoaijGc58v8ynr85ZrEKsCfBe4TXQHrfVX99Ey9Pj0kTJwAAiqIymay6uubGrTSpVPrqVcP5CwlRG8L76b7d4e09gkAgyGSy4pclQqEI69KLior5Cn6iz57nyo+ZefnYgb+fj4ab2q/0l9509yHLl/xl89XNbdCRY3EA8PTZ8871G9gckVBoZ2enOLgq0iYUstkcBMDS0tLcnNJlHSVQzMzo7kOKil9KpdKCwiI/X28AyHra3hIikSiRSFj5BSKRiEwmg6Levt4dLiUWi181sMlksp2tjfIo+7r6V6amJsoHbBRF6+tfEQgEBwd7db9UL9BcT0UfOhQ76OAll3or7Ze4s9U1tQBAIhInjB8btWGtkyNVXqG8ompfzCHGs2zZ66nG0CGDw1cvw/oP1fHz9S4qfgkAzLwCTO8nT58BAJFIDJk+LSnlhlgsZrLyR4/yQ1E0L78Ia8/IEV7yK7DyCk6cPp+V9RRria2tzbzZocuXLJJvM9+9//CHPTEAsHXzxpu30x48ygSA1SuWhK9e3mWTklJu/HLyLJvDAQA310GfbIlU6xv1Ag2N3zIUTb2dhh27Dx0iLz9/IeE/3/2EiQ0AYokk/e6DjR99WlfXnk6C19j48Wf/94TxXKYwrywpLft613c5zL+4tfeIn0/7k8pk5QOASCTCrjByhOfEoHexU9gQXlZeiaV+8/T0kPc3qbfSNn+8PSPzibwlHA73xKlzH3/2pVDYnl5BJBLz+QI+X3Ds5BlMbABwH9rRiQzj1/jE3XtiMLEBoLyi8rMvvq5/1b8xlP31fGdmMXb8YxcAoCjaJhRWVde8etUAAEZGRiuWvo/VqaisOno8DgCsray++HzrMLp76q20w7EnuFxezKHY/+z8EgAuJ11rYHMAYOkHCz9YOF8skfwSdzbl+k0Zij54mOHrPUL1Jsl7ZmzKlpPLwlZogWNGjfLzxbp0TG9Wp868prbux70HsJXSgrlhUyYFvWpgHztxurauPoeZdzj2RPTmDYr3qq6u8fUeETR+HDOvYPy4sZ0bw+U1HjtxGjsOX708dGZwXf2rH37aX17Rv6lN+kvv+lcN9a86Zm6hOTtt3xYtf76v3biFJTVYs2rpu2MDAWDp4r8/ZTzPyHp6/2EGny+wtLRYsWzxlEkTS0rLJk4Yh4VQhIVMT7l+EwC4XK5aTbKxsR7kQqusqmZzOHV19U8Y7YN3wGh/U1OTEV7Dc3JZeXkFQqGI+XoO7+/bPln7IymlTSgEgLmzQ+TLOe+RXqvCI8USyeXka+s+XKEYL2Jhbv7jd7uUJCq6//AxFsQTNH7c6hVLAIDqYL/zH9vDN3yk1pdSl/7Sm+pgP2TI4Pr6+tKyCgBAECRqw9rFC+cp1skvLMIO6urqk1JutJciCADIZLKi4hcBY0YREMTN1cXO1vpx5lMmKz8vv0DejUu7T4Dx2RdfF714E5NHdXA4+r89AODn611ZVQ0AzLwCbLJGMTMb4TUcAALHjMrJZYklEmZePtbhEwgEH5/2/uP566l76Mxg+WVpzk5+fj5Pnj6TSCSs/MJ3AkbLT/n7eSvPSlVa2h6iFRgwSl5Idx9iY23F5XWb4+Xt6S+93wkc/fknWwAgOSX1hz37URQ9eOS4MZk0b84seR2BoD096vkLCZ2vgH1tkUh04PDxlOs35SmI7O3tGhrYAKAk+XRjI19xlY9NuQHAz9f76rVUAHiUkVVUVAwA/n4+WLcRMGbUiVPnAODBw4yysnIAGEYfSnntoM17nWfHwc5O8UYO9nbyOyqW95g5taW1BTvoMHs3NzfXSb3lhIVOf1lSejHxMoqi+2IOD3ZzHeXvi50yeZ1yMHz1cmonoxv22B2KPfnHlasAMGaU35ywkFF+Pg1szvqoraBUbyMjI8Wz8lg6f592q8vN2+nYtCtwTPvjNdJruJmZaUtLa1LKdeyUvDMHAGsrK2xSyeFyFRdObHb7bMvS8i+ymfSUTVH+l9T41/xVnH42RmliPbZh3erMJ4yy8goZin67e1/csf9hfR3dfcjznFwAoFIdQme8h1W+c+8BmUweOtgN+wu4/ecdADA2Jv/w7b9IRCIAYGsq5RyK+bHLchrN2d7OtoHNkSeFCnitt5GR0Sg/nwePMuX2f3+/NytvL08PVn4BANy8ne453AMrbGhgZ+cyAYBIJI708lS8UY+J7+WTmKwnjIXz52DHTFZ+f6eE1sR6jEwmf/HZVuwnqK2rPx53Fit/b+ok7OD4yTOFRS8AIDuHueu/P27/8l/rorZivzuRRAQAoVBUVPQCAHiNjXFnf8U+pXqSOUV8Xz/iAGBvZztksKv8v3LtAQBBEPn6DQBmhUzHtkwuJl45efp8SWlZ5hPGti++xlZis0KC1TUBBY0fh630HjzKPPfbRT5fwGTlf7t7Xy++kVpoyN4ywmv4kvf/fu63iwBwMeHyzOCpw+juPt4jZs+amXT1+qtXDeujtmLdKbye3GE7XX+b8G7i5WQA+OiTHS4055raOqlUSkAQGYrW1qmd8hEA/Hy9/0y/hx2PGe2veCpg9Bu9B7sNUtyh8hjmvn7tqiPH4mQy2YlT57CRHmO4Bz0qYq26zbC0tIhYuzrmYCwAHDkWh1kejYyMsBWEuldTHc3tl4SvXjbYzRUAZDLZj/v+h42Rn0ZHrV2zAhv8MLFpNOevv/xc3r1vWLcG6wYkEklZeYWzk+NP3+3CrGMsVr7cWKE6fgr20UCFBxoAhg5xs7ezxY4VB2+MZR8s+vbfXw33oMtLTExMFi2YG7Pnu95tZC1aMPfjjyLlqziqg/1/d/0Dm7X0H1oRXyKTycorqpqbm+3sbKlUh86bzXy+oKq6xtyc4jrIBZcWKsLhcGvr68lk8mA3V9Jbb52JxeKXJaVEImno0MFvv8veI1qhtwGNYfBn0i8MeusXBr31C4Pe+oVBb/3CoLd+YdBbv9CQPVUeEtAdCIJ02GLSclQJctBCNKR38YuXEZs+UVKBQCD8ef0PzTSmd/AaG2/cTJO7bBQUFvcY5KCFGPrznpGh6MXEy8vXbLh+4xbebXlbNB05YW1ltXjR/M7lGjAd9xoel4dtZMEbJ2mwsbGeOzsEAIYPo3fzOW1E03pbWpp3iEN4S3oMVAAAXmNjc3OLna2Ncp8ytXB2cvw0elN3Z1WPSQCAhga2RCrtcqOoz9GuyCixWLzl0y+wDeDgqZMxJ9/GRn7klm2CpiYA2Lp5o9xLosdABQBIuXHrzLkL8h1l96FDPly1VB6o8PRZ9tf//g4AZgZP2xy5Ditk5Rds//JfADBp4oTPPt6cnJJ6OPYEdupladmchcu8hnvs/vZfBUXF23b8EwCCxo/bsS1afsceYxJymHn/989/A8D6D1dZW1seOnoC+wp2trYb1q2eOX1aH/+mf0XTeotE4uIXXTgkUR0cLC0tSCRS9KYNm7Z+LpFIEi8nT54UNMrPZ8/+Q1XVNQDwt6DxcrHPX0iQywCvAxWyc1lHYn5yfC350eNxZ3+9qHiXlyWl/9z13ZfbP5n+3hQAkIjFfL4AFLwHAUAqkbYXtrQAgFAklMeYyWQyPl+ATcs7VMNIvZX27e59im/Qw2ISsp4wfvr+P1gPJJVIsA+mXL+J+UhhsDmc//6wl04fOsx9qJo/qhpoWu/auvq1G6M7l38SHTVvdigAeHl6fLhqaewvp1EU3YaeNY4AAAPhSURBVL0nZsXS99Pu3AMAe3u7zz9t981WJVAhL78QE9vcnLIlKmLkCE/Gs5y9MYdkMtn/jhyfMilIxdewB44Z9VHUemz8pjrYh69ZYd1NZLa6MQms/IL3pk5au2YFAvDVru+wx+DqtdQtUREq/pi9QLv6c4xlS97PzGI8y86trKr+/qf9AIAgyJfbP5G77qoSqJDyei4dsba9k3Qd5FJTW/eqoYHuPrSlpdXKSiW93VwHmVMomN6WFhZyx5vOqBuTYG9v93+ff4wFG6/7cAUWjlPXKyct1dG03na2thsj1nQuV/TvJCDIlzs+DY/4SNDUhLljLFn89zGvI/FBtUAFzL8RFMLGAGDDutV9+m3+groxCcOHucsjy+1fu7WLxP37ygFN602hmM54b2qP1agO9pP+Nj45JRX776SJ4xXPqhKo0PTasVdd45eSsBXlqBuTYGr6pmFE4uu3zfSzu5E29ucAwGTlp1x/Y9z4bvfPsQf3yVdcqgQqyH9NPl8gzyDS1NRMJBE7BwNIJG9mWL17LzOoH5PQo496f6CN9rXW1rb/fL8HG6HtbG0BoKy8QnE2Tncfgh1ggQrYP4qZqY211Rh/X5qzEwB40NtnufK4QAA4ePR4yJz3l65an53DBADya+EV3wZWXt4xQlO+gEZB2cPn5dkeh3Dzdrq8UElMAi5o+vnm8fgHj/zS5am5s0MGudAAIObQ0erqGgCYNHHCh6uWro/6GFuejR8XOPadAAB4b+qkhD+SAOD4yTP0oUOGe9CxQAUsIc5vp4+bmZnOmD4VG9pPnDpnTjHz8/XJyWVdu3EbRVEuj4e5Fcuf+6eMbFZ+wQjP4YznOWd+je/QMPlMvr6+IZeZJ5FI5CFRiswKmX7pcrIMRS8mXqFQKJP/NqGBzfnf4eO9jknoDzStN18g+O1iYpenxr0zZpAL7d6Dx9iwbWlh8cmWSBsb6xVL3z95+jyKot/9uP9k7AFLSwtVAhX8fX3mhIVcSb7W1ta2e+8BxRt9FBmBGdqcnRw9PYYVFBW3CYWRH20zMjKSSqV09yEdBlpzc4qNjTWXyxM0NW3a+jnVwT7+3AnoRJ/HJPQH2tWfc7m83XtisOOPNq23sbEGgJXLFmPRVmwOR65cj4EKWJ0N61YrBmA6Ozn+Y8enYaHT5SU7v9oud/FHUfS9qZN++GZn54ZtXLdGHmTa2trWnRN3n8ck9Dm67X/eY6ACVqesvLK1tZXqYG9nZ9ulNbu6uobXyHehOSvJctfc0lJaWm5iYuLmNqjHMIO+jUnoQ3RbbwPqol39uYH+xqC3fmHQW78w6K1fGPTWL/4fLmmVC32kk5wAAAAASUVORK5CYII=;" parent="1" vertex="1">
          <mxGeometry x="581.33" y="454" width="75" height="90" as="geometry" />
        </mxCell>
        <mxCell id="ygFGr8_wO-zUAzRDIiU--32" value="" style="shape=image;verticalLabelPosition=bottom;labelBackgroundColor=default;verticalAlign=top;aspect=fixed;imageAspect=0;image=data:image/png,iVBORw0KGgoAAAANSUhEUgAAAMEAAACcCAIAAABJMFjiAAAACXBIWXMAAA7EAAAOxAGVKw4bAAAgAElEQVR4nO2deVwT19rHT0ICJCEJYZF9FVSWKlAFsVb0at1aqlK1Wiu2aF2uSkurrfbT1Vqpta33VtD6cbkKvVWhpSq2gnUDLQhKBS0IaGQJgmyRJBAgy5z3j/N23rwzEEISSELn+xecnJl5ZvLL2eZ5nkODEAIKCgOgm9oACouHYWoD9AdC2NDQ0NbW1t7e3tXVZc4NKovFEggEzs7OXl5eDIYFP/M+sbz7USqVNTU1BQUFubm5IpFIqVSq1Wq1Wk2j0UxtWr/QaDQGg2FlZeXk5DRlypSZM2eGhISw2WxT22UcaOb88yUAIezq6kpPT8/Ozm5sbFSr1aa2SE8EAsGMGTNWr17t6elJp1v8cMKSNFRfX//FF19cu3bN1IYYh3Hjxr333nsTJ040tSGGYjEaqqmp+fjjj0tLSy3FYF3g8Xipqanjx4+36NbIMkxXKBR79uy5c+fOSBIQAEAqlSYnJz98+NDUhhiEBWhIpVKdPn26oKDAcgdAWqioqEhLS+vt7TW1IfpjAfOytra248eP9ykgNpvt5+fn4+MjEAjMuTuQyWSNjY1CobC9vZ386aVLl2bOnBkTEzP8hhkFC9DQ9evX6+vryeUTJkxYuXJlRESEQCAw80UXDMNkMplQKExPT8/Ly1MqlZqfSqXSnJycadOmmfPyhBbM+tEDANRqdZ8TMScnp927d3t4eAy/SXpAp9P5fH5ERERAQMDHH3988eJFQoXr16+rVComk2kS8wzEfNt/RFtbm0gkIhTa2tomJSVZioA04fF4SUlJLi4uhPKOjo7KykqTmGQ45q6h9vZ2qVRKKHRycgoPDzeJPYbj5OQUHBxMLu9zqGQRmLuG5HJ5d3c3odDe3t7V1dUk9hgOi8UKCAgglzc2Ng6/MUbB3DXU54IQj8ez0KED+OvdGbncnOeV2rFUuynMB0pDFIZCaYjCUCgNURgKpSEKQ6E0RGEolIYoDIXSEIWhmPs7Vz2AEIrF4mHzyOHxeHZ2dsNzLfNkRGlIpVLl5OScOnVKJBJhGDY8F2UymUFBQYmJiYGBgRbqvGEgI0dDGIbl5uYmJyeT39EONS0tLWKx+IsvvvD29h7mS5sDI2c8pFKpfv755+EXEOLu3bu///67SS5tckaOhiCECoXChAZ0dHSY8OomZORoiMFghIaGmurtt42NTZ9eQX8HRo6GrKysVqxYMX78eJNc/eWXX540aZJJLm1yRs6YGgDg4eGRmppaXFxcU1OjUqmG56JsNjs4ODgsLMxyXZoMZERpCADA4/FmzZplaiv+XoycvozCVFAaojAUSkMUhkJpiMJQKA1RGAqlIQpDoTREYSiUhkyAjY3NSPISGWlrjA0NDYWFhVVVVcZap+bz+ZGRkRERESwWyygnBACMHj2awWAQMsj4+voa6/zDzIjSkFAo/Oijj+7evWvclHunTp1KSEh44403jNV4TJw4cezYsX/++SdeEhwcHBISYpSTDz8jpy9TqVRHjx4dipyNXV1daWlpFRUVxjqhnZ3djh07YmJi2Gw2h8OZOnXqJ598wuVyjXX+YWbktEMqlWrokmN2d3cLhUIjNhWBgYHJyckSiYRGo/F4PMsVEBhJGrKysnJxcdHsIIwIk8m0t7c37jm5XK5FSwdn5PRlTCZz6dKlRv+mEREREZabNWuoGTntEAAgKirqyy+/zMzMbG5uNtaoyMrKKjQ09NVXXx0ZbcZQMKI0ZGVlFR0dHRkZ2dnZaUQN2dnZGWVG1tvbK5fLUZLh+vr6jo4O5ABubW1tb2/v6+vr5+fn6enJ4XDMPM0tAUuyVUesrKz4fL6prfg/1Gq1UCgsKysrLCwsKytrbW3tT990Ot3Dw2Pq1KkTJ04MCgry8vIaZlP1YwRqyHxQKBQPHjw4efLk5cuX5XI5YVGRDIZhIpHoxIkTWVlZHA5n3rx5cXFxfn5+Zu5lS2loSIAQ1tTUZGVl5ebmPn78eLCH9/b29vb2njhx4vr167Nnz164cKE571JFacj4dHd3X7lyJSUlhZxZe1BgGFZXV3fo0KGcnJy33norJibGxsbGWEYaETOVtuXS3t6+d+/ezz77zEABaSISiXbs2LF//35TRfFqh2qHjIlYLN65cyd5Rw5N6HQ6h8OxsbGxtrZms9k0Gg0NlXp7ezs7O/vbG0kikZw4caKtrS0pKcnJyWnI7kAfKA0ZjYaGhuTk5Pz8/P4q8Hi8CRMmTJgwITw83MXFRSAQcLlcGo3W1dX15MmTlpaWkpKS27dvl5aWymQy8uHd3d1nz57t6ur66KOPHBwchvJWBgelIeMglUr37dvX3z6hHh4e06ZNi4+Pd3FxYTAYhNUmDofD4XA8PT3Dw8NVKtXjx4+PHTuWn5/f52D88uXLfD7/3Xff5XA4Q3Ing4fSkBFQKBT//e9/L168SF74YbPZUVFR69evDwgIsLa21n4eGo3GZDK9vLy2bt26ePHilJSU4uLinp4ezToQwpycHD8/vxUrVpjJnH+kaUgqlebn59+7d2+wPmgCgWDSpElPP/20HhfNy8v7z3/+Q846YmNj89prr8XHxw+2zbC1tQ0KCkpOTj5+/PixY8cIZ5bL5UeOHPHz8zOTbfNGlIZqa2u3b99eXl6u34sOJpO5du3a1atXD+r33dTUlJKSQt6YxtHR8cMPP4yJidH7xQWPx1u7du2YMWM+++wziUSi+VFHR8fhw4fHjRtH3sZq+Bk5c3u1Wn3q1KmKigq935Qplcr09HShUDioi547d66uro5QzuPxtm7dOn369P4E1NXVVVlZefv2bbFYrOX8NjY2M2fOXL9+PY/HI3xUXl7+22+/6W7q0DFyNKRSqSoqKgxMwyiVSmtqanSvX1dXl52dTZiQ29raLl26dPbs2VZWVv2Z+vnnn8fHx7/22mvbtm1raGjQcgkGg/HSSy/Nnz+f0DoqlcrTp083Nzfrbu0QMXI0RKfTDXceotFog1p9OXPmTG1tLaFw4sSJ2jvE8+fPnz9/vru7G8OwwsLC9PR07VdhsVibN2+OjIwklN+/fz8rK8vk+7WPHA0xmcy4uDhHR0e9z0Cj0WbMmDF27Fgd67e3t//666+Er9DBwSE+Pl5LtmEMwwhDfl1ceHk83uLFiwnvOjAM+/33302+r/mIGlM/++yzH3zwQUZGRk1NzWA7NTs7u8mTJyckJJBHHv3xxx9/tLS0EAqnT58+YcIELUdhGEaYruto6pQpUyZOnEjIHFpVVVVfXz9mzBjdTB4SRpSG6HT6rFmzhieHlVKpvH79OuHrZzKZixYtYrPZWg6EEBLehNja2upyRTabvWzZspKSEk0J9vT0FBQUmFZDI6cvG2akUmlVVRWh0M/PLzQ0dOguGhISQn7LcePGDdO+i6U0pCfIq5VQOH78+CF1Y3V2diaHBiC32qG76IBQGtITqVT65MkTzRJra+uoqKihvu60adMIJY8fP9a+yDTUUBrSk/r6ekIJi8UaBq8MgUBAGD8plUo9XCWNCKUhPWlvbyeUsFgs3ed0esNiscjejKbdIIDSkJ6QV2UYDIaOMyxDQI4ihELTjqlH1Nx+OCFHnNFoNF3C0JCDh2ZJWVnZmjVrNEtsbW19fX1jY2MDAwMJrvgKhYLsJDmgV8mQQmlIT8gr0ciZVY9TSSSSoqIiQmFeXt7Vq1f37t0bGBioWd7d3U32ETBibiQ9oPoyPSEPn7u7u3WZY0MIdVyYrquru3z5MqFQKpUSlrkZDIZp47gpDemJp6cnoUuSy+Xa38DrAbmBEYlEBPc6DoczatQo4153UFAa0hMul+vs7KxZolarCwoKBjyQyWSOHj1aFzc3Pz+/KVOmEC5B3mnP0dFxGOaDWqDGQ3rC5XJHjx5NWKq+fft2W1vbgKtEL730kkKhaGxs7M9tg0ajCQSC2NhYHx8fzfKampry8nJC5TFjxhjirWA4lIb0xM7ObubMmdevX9fUwZMnT65cubJ48WLtEzQ2m52QkKB9VESn0wkngRCWlJTI5XJCzaCgIGpMbalEREQQJtUYhp05c6a1tXXAY2k0mpVWyCpsbm7OysoiDIa4XO7UqVMNvxdDoDSkP76+vuS39OXl5dnZ2UNxuV9++YWcVzQ0NNTPz28oLqc7lIb0h0ajLVmyhNCPqFSqH3/8sbS01LjXunnz5k8//UQoZLFYixYtMnmUmUVqyOQexDiTJ0+OiIggFDY2Nn777bePHj0y1lWEQuG3335LXjiYMmWKOYSYWaSGurq6hm27Vu04OjouX76c7OZcUlKSmpra1dVl+CV6enr27dtHTtzO4XAG9JkcHsxdQ2w2m/wiUywWNzU1mcQeMpMmTSJ732IYlp2dvW3btkFFGpF5+PDhli1bLl26RM4HMnfuXHKkh0kwdw05ODiQF9Da29tLSkpMYg8ZNpu9Zs2aPqNB8vPzP/300+LiYj1aTbVaXVhY+PHHH/eZB+Kpp56Kj4837ZQex+qTTz4xtQ3asLW1zc/PJ+SDUqlU9+/ff/HFF80kL5iDg4OLi0tRURHhbSiEsKmpqaCgQKFQuLq66r6aXFdXl5GRsW/fPqFQSB78ubu7v/vuu+PHjzeO9QZj7hqysrJSqVRXrlwhlEul0sLCQnt7ew8PD3PIxOvr6+vo6Hjz5k2yX5FcLr9582Zubm5vby+dTmexWP25GYnF4nv37p09ezY5OfnKlSt9DqdQ4ph//OMfxr8HfaGZzxynPxobG9esWdNnajoul+vm5hYQEDDMQ0svL6/w8PCgoCBNNfT29mZkZGgZStPpdB6P5+HhMXnyZE9Pz1GjRgkEApVKJZFIxGLxgwcPiouLm5ubZTJZf9nQuFzuhg0bli9fbg4/GxwL0JBKpTp58uRXX33V35M1Cfb29kuXLt24caOmjxiGYVlZWQcPHtTRwdna2lqlUunoCuLt7b1u3br58+eblYCARWgIAKBSqTZt2kR+ZW1a6HR6WloaOaq1qKho3759ZWVlRrxWdHR0YmLikAav6Y25j4cQdDo9ODi4urrafKb0AAAI4ejRo8kacnd3R/s9tLe3k30OBwWdTndxcZk3b96WLVv8/PzMcwdPy9AQAEAgEAQHB9fV1TU1NZlP2xkVFUUOGqTRaHw+f8qUKU899VRvb69IJNKvF+bxePPmzXvzzTfj4uL4fL55CghYSl+G09PT89133509e1aXd+NDDYvFOnXqlPZXnsgx7fz58/fu3autrdVloYhGo3l5eYWGhi5ZsiQ8PLy/JEbmg4VpCACgUqkaGhouXLhw7dq1R48edXZ2Gthf6AHKvPn6668vWLBAl+ZBoVDIZLKqqqqLFy9WV1eLxWKpVNrb26tQKFCYh42NDZ/P5/P5yHfx6aefFggEZrL6NSCWpyEcmUxWX18vk8nkcvkw34W1tbWXl5ePj89g+xcIoUwmE4vFT5486e7uxjXEYrHs7e0FAoE591n9YcEaojATzP19GYX5Q2mIwlAoDVEYCqUhCkOhNERhKJSGKAyF0hCFoVAaojAUSkMUhkJpiMJQKA1RGAqlIQpDoTREYSiUhigMhRgh0Nrailzfvb29CdkICgsL0a59M2fOREkk8/Lynjx5wmAwXnjhheEymEh5efn9+/cBANOnTzd8DzxEc3NzYWEhACA0NDQgIIBcAUJ45swZzRIajYZya44ZM8bV1XVQl1Mqlb/88gsAwM3NbUh3axjwvvQE/n/wLUJXrVpF+GjOnDnoI5Q/AEKIdmHmcDhwMNy/fz82NratrW1QR/XHO++8g6y6efOmUU4IIcQTCO3Zs6fPCuQM0ZosWLBALBbrfjl8348FCxYY6Q76ZsD70o/h7stSUlJCQkKys7PhyPV9O3PmzPLly01txfBhULTbsWPHOjs7B+U0fvXqVeNuLpGYmLh48WIAQFBQkBFPqyNeXl537twBf+1s98cff6xYsUIsFufm5t6/f5+QntzkTJ06FfVlhFShBmKQhmpra9va2phM5qRJk/DCS5cu5efnt7S0WFtbjx49euHChd7e3uijH374Ad/G++TJkwKBYMWKFfiB5eXl586dE4lEXC43Ojr6+eef11Tn1atXa2trORzOggULUlJS6uvrn3nmmcWLF7e0tFRWVgIAAgMD8Y0sMAzLycm5du2aTCbz8PCYNWuWpoUAAJlMlpGR8eDBA6lUam9vHxkZSd64WRcIGxHPnTt3yZIlBw8eBAC0tbVpakgkEmVkZDx8+JDH48XExMyZM6dPv2m1Wp2ZmXnjxg0bG5v58+cTUlRpMfvcuXNtbW0AgFdeeQXPEgkh/P7779VqtYODw4svvtjZ2YmeFYoxx0/b3d19+vTpsrKyrq4uf3//RYsW+fr64p92dHScPn0aAPDMM89IJJLvv//eyckpPj4e/1qNOR5SKBTkwbW1tXVmZiaqwOfzNT/CD+zs7Hz11VcJB4aEhFRWVuJXf+mllwAAHh4eqNUBAIwdOxb2NR5qbGwkKAYAsHLlSrVajSoUFxeTR98RERESiQRV0H085OPjo1muUChQTiAul4ufDUKYlpZGyNMQExPT3t6OPsXHQ9OmTYuOjtas9u677+In0W729u3bUclPP/2EH4Lnuti6dWt/93XhwgVCinQmk/nJJ5/gFe7evYvK169fj4ea/PDDD3iFfjXk5eW14P+DX6k/De3fvx+/2OHDh3ft2oUyNXM4HPS8pk6dissoNDQ0OjoaHYi3Rs7OzgsXLsQjgj09PVtbWzU1hH67AoGAw+Hs2LGDrCEMwyZPnoxKIiMj169fjzcGu3fvhhCq1Wo0JeFwOBs2bNi6dSueOuhf//rXYDXE4XBW/cXy5cv9/f2RkQcPHsQrFxYWogbV0dExMTFx0aJF6NgXX3yRoCEAgJOTU2JiYkJCArpTBoPR0NCgi9kPHz5Eh2gOzFetWoXqVFVV9Xlfd+7cwcUdHR39wgsv4PuQJCcnEzSEctm6urpyudyurq6BNaSF/jSUkJAAALC2tr537x4qycvL27Vr17lz56RSqaYUAAC4OG7evIlKgoODUSGGYZs2bUKF77zzDuHA2NhYpVLZ1dX15MkTsoZyc3PRvwsWLMAwDELY0dHh7OzM4XDi4uLQv59//vnSpUvxXxKeNXzDhg2D1VCfzJs3r6WlBa+M2mYGg1FeXo5KcJtRCa4hBoOBN72JiYmo8Mcff9TRbNRRMJlM9Bg7OzuRIGJiYvq7r+effx6V7N+/H5VUVVWh1o7FYqG7wDVEp9MLCgoghI8ePdJ8Gv2Oh9zc3IKDgzVLSktLyRu/aYJ+KAqFIigoKCwsbMaMGTNmzEhKStK+qxee7vSjjz5C7RaNRktOTj58+HBPT8/PP//81VdfadbfvHkzg8FgMBh95ou5dOkS+mPNmjXod8nn8+/evevs7IwSdPD5/Pfffx/VEQqFxcXFv/76K/qXsJeKLtjY2EycOBEAACHs6ekRiUStra3nz58PDw+/evVqQEAAhmGoQwkICBg1ahQasjz33HNff/01AODKlSuaDzksLAxvXfAwfplMpqPZ69aty83NVSqVJ06c2Lx5c2ZmJtrHaO3atX0aL5fLc3JyAADjxo3bsGEDKhwzZsymTZt27tzZ3d2dk5OzcuVKvP7kyZNRV+vu7q55nn41NHv27GPHjmmWzJ07F/+V98mmTZtOnz5dXFwMACgtLS0tLd27dy+fz9++fft7773X31G1tbXoD82kFnZ2dr6+vpWVlfgYHEd7bDKetMXDwwMvdHFxIVzxs88+y87OJgRcE3YK0wVXV9fr16/j/2IY9umnn+7YsePRo0fbtm378ccfJRIJSkdUWVlJ2N8DAEDI1qhpJz4uxsOrBzQ7NjbWzc2tqakpLS1t8+bNx48fBwA4ODjgTTgBPBEAIZ0I/i/h4ff35I2ZyYbL5RYUFPz888+ZmZm//fYbaqIlEsm2bdt8fX1ffvnlPo/CO2DC5l/o90dOOUjeOEwTfG7VX6PS2toaFRXV0tJia2u7YsWKmTNnhoSEoNVhPTREgE6nv/POOzt27AAAoDyK+NTS1dUV7zhwCG8CtCQW0sVsBoOxevXqnTt33rp169q1a3l5eQCA+Pj4/mKutT95QHr4/T15Y2qou7u7urrawcHh1KlTEMI///zzyJEj//73vwEAFy5cQBoiT2jxxvzChQv4Sn95eTnaToWc/Vl7BqcxY8agP27duoXPcZYtW1ZTUxMSEnLgwIGMjIyWlhYAwKFDh9Bk8OHDh6ia4RoCAKDJM/irIeHxeKNGjUIrHYcOHUK339TU1NHRERgYqHs2Kh3NXrNmza5duzAMe+ONNyCEqKS/c7q6ujo4OIjF4uLiYolEgk938DGxjhI35jr1M888ExYWNmfOnKKiIhqN9tRTT8XFxaGP8Ekp/pu4c+cOGhW+/PLLqHD37t3p6elSqbSkpOSVV15Bj+Cf//znoGyIi4tDz3Tnzp0XL16Uy+UZGRmZmZnFxcVCodDGxgZvn9B+3hiG7d27F5Xosfgpk8m++4vU1NQPPvggNjYWfYS3OmgiVl9fv2fPHgCASqVat25dcHAwm82+deuWjhfS0WwfH5+5c+cCAKqqqgAAU6ZMCQkJ6e+cVlZWaEYsFouXLVt2//59sVi8e/fuzMxMAEBwcLCuCdT7m5fpsT6Um5uLuhI6nR4eHh4WFoZacjs7u+rqalTngw8+0Lw6miIePHiwzwW3+Ph4/OrkCR1hjoOvD+ErJZrY2tqiOUVZWRmyik6nP/vss6iPRyWzZ8/ub/5CQPu8DADg7u6O8iShWQz+FtbNzQ1fIlm4cCGq0Of7svT0dFR46NAhHc1GaL4MPnbsmOZH5PuSSCTjxo0j28/j8W7fvo3q4POyjRs39vk0jNkOzZ49OycnJzo6GsOw27dvl5aWqtXqqKioy5cv44s0b7zxBv7GGM1CAQBr1649f/48muAgnJ2d9+zZQxjU68iuXbv27t2rOYANDw//9ddfUdc2fvz4w4cP29vbYxh27dq1np6etLQ01F7m5eXpsplmfzAYDA6H4+/vv2bNmhs3buC6cXd3z8/PnzNnDp1Ob2pqamlpYbPZiYmJJ0+e1P3kupv9/PPPe3p6AgD4fP6SJUu0n5bH4xUVFW3atAnvyGg02nPPPVdUVBQWFqajbUOS90MsFotEIqVS6ePjQ56MQAiFQqFMJgsICCBsRNrc3CwSiTgcztixYw0cnWAYVlVVJZfLvb29yTb09vY+ePAAQhgUFDRsSaLEYnFtba2NjY2/v79+6cmHzmyFQvHw4cPOzk4/P7/B7qhH5Y6hMBTKj5HCUCgNURgKpSEKQ6E0RGEolIYoDIXSEIWhUBqiMBRKQxSGYi67GKnV6gG3hY+MjCR4Pw0bGIbduHGjoKCgtbWVw+GMHz9+9uzZ5rAfr1nQ51u04Qf3WdEC7ts/zBQVFZE3B3J2dtb0S/87Yy7tkNmSl5c3b948tCUInU5HARsAgNbWVhSF05+X4N8IU4v4f8EwTKQB7ph2584dvBDtyzGcSKVS/PX7W2+9haJTmpqa8DBWZ2fn3t7eYbbK3DCXdohGoyGPBQTu0urm5oYc9XFOnjzZ09MzevTogICA1NRUpVIZFxeHHCAhhL/88kteXl5PT09gYODixYvJ46eSkpKzZ8+2tbW5ubnFxsaSOylNjh49ihy0X331Vdzny9XVNT09vaqq6o8//nB0dLx37x5+krq6uqysLOSzMGrUqFmzZhHixfA4TAihu7v7nDlzND1eEANGM2qJAjUNphZx3+DfCsHjDEKIPBNiY2NRMBcAYO3atRDC9vb2Z599VvPW2Gx2WloafqBmyBGCRqMlJibisYtk8O2bb9y4QfjowYMHmgFAEMLvvvuO7I+BfFIRn3/+OdnV7u2339Y8ifZoxgGjQE2CpWoIfRmurq4MBiM/Px9COH/+fHTIc889l5SU5OXlBQCwsrIqLi5GB3755ZeoQkhIyNtvv43Hwn7zzTf9meHg4ICuNWCHVVNTgwTk4+OzdevWjRs3CgQCdP7S0lIIYXl5ObJ51qxZBw4cSE1NxTeoz8nJQScZMJpxwChQk2CpGgIAfPHFFxDCxsZGDMNKSkpQIXLEhhA+evQIObgtXboUQqhQKJAg/P39u7u7IYQqlQrFNbu5ualUKrINarUa+cHZ2dkNaHBFRcX27dvnz5+PBxmmpqYik1CEQlpaGvr36NGjqEJjY+P7779/6tQpFMkKdYhm1CUKdPixVA0xGAzNcN3du3fj31DrX6CeyMnJCUJYVFSEKqxevRqv8OGHH6LCP//8k2wDhmFIQzY2NrpbrlQqb9++vX///qlTp6KTHz9+HEJYUFCA9z7e3t6vv/768ePHNXtDtVqNck6MGzcOtxDFEAIAUlJSIIS7du3CTxIWFpaUlHT27Fn0kzAhlqohDw8PzUI8srhPZDJZVlaWlgooHxIZPGiQbEZzczPhy7t69eoLL7yA5x7BSU9PRxXwWFIcBoOxatUqmUwGIUQBG/2BYsalUilqOzXh8/moSTYV5jIvGyyEeDl8MDt//nzNrCjkCuHh4eSYtT4PAQBERUWdPXsWAJCXl0dYB9qyZUtWVtbcuXM//fTTkJCQK1euzJo1C8MwFxeXhISE6dOnt7S0INHgjuH79+9fuXJlenr6+fPnUXSvSqU6fvw4i8U6cOCALtGM+kWBDjkm1K8WBmyHQkJCNAvxweaRI0fwwlu3buGHV1RUoAorV67EK1RWVtbW1qLUDn2Ch15MmDBBs+ssKytDsycajYac5FFGGxqNVldXh+ocOXIEHXvixAkIoVKprK6uzs7OVigUEMK6urqDBw+iqD9/f390CAob8vb2xk1qbGysqKhQKpXoX7lcXlpaeunSJQghhmF37tx588030VUSEhJ0fbjGZoRoSCQSoe8jMDAQrb4UFhaiBmDRokWoDgqksra2RvO41jLvxO0AAAG1SURBVNZWNHfz8PDob/VSpVLhobehoaFHjx797bff9uzZgy9ZLVu2DNXEp9xlZWUQQolEgh+IxkNJSUno36+//hodIhaL0b1ERESgknXr1qE6KM2NUqlEEY9MJhNFz4WHhwMAGAwGvtaAAqIBaY1gOBkhGoIQ4gNka2vrwMBA1DXY2toWFhaiCrm5uUhnNBrN398f7w337t2rxRKRSNRnFB8AYNy4cXhm0pSUFFTI5XJnzJjh4OCA9027du2CEDY0NOBpJAIDA6OionAD8PduA0Yz6hIFOvyMHA1BCL/55hvNlF4ogYtmhZycHM3YYTc3twMHDgxoTEdHx5YtW/D1HvSdbdy4UTP5q1qtTkxM1Bx13bhxAw3JIyMjUR2hULhkyRLNdUgfHx98xI2orq5G0YyoAopm7OnpwStcunSJsPYdFRWFr4GZhJEWX4Zh2IMHDyQSibu7u2b6GE1EItHjx48dHBx8fHx0z5qgVqurq6vFYjGfzx87dmyfyRslEolQKBQIBFoS3Mjl8vr6eolE4uLiopn2UJMBoxm1R4EOMyNNQxTDD+XHSGEolIYoDIXSEIWh/A8TvplZA7Z6IAAAAABJRU5ErkJggg==;" parent="1" vertex="1">
          <mxGeometry x="197.63999999999996" y="243.58999999999997" width="61.85" height="50" as="geometry" />
        </mxCell>
        <mxCell id="ygFGr8_wO-zUAzRDIiU--33" style="edgeStyle=orthogonalEdgeStyle;rounded=0;orthogonalLoop=1;jettySize=auto;html=1;entryX=0;entryY=0.25;entryDx=0;entryDy=0;" parent="1" source="ygFGr8_wO-zUAzRDIiU--34" target="ygFGr8_wO-zUAzRDIiU--9" edge="1">
          <mxGeometry relative="1" as="geometry" />
        </mxCell>
        <mxCell id="ygFGr8_wO-zUAzRDIiU--34" value="&lt;font style=&quot;font-size: 8px;&quot;&gt;Few Shot&lt;/font&gt;" style="rounded=0;whiteSpace=wrap;html=1;fontStyle=1" parent="1" vertex="1">
          <mxGeometry x="303.38" y="248.58999999999997" width="49" height="14.66" as="geometry" />
        </mxCell>
        <mxCell id="ygFGr8_wO-zUAzRDIiU--35" style="edgeStyle=orthogonalEdgeStyle;rounded=0;orthogonalLoop=1;jettySize=auto;html=1;exitX=0;exitY=0.5;exitDx=0;exitDy=0;entryX=1;entryY=0.5;entryDx=0;entryDy=0;" parent="1" source="ygFGr8_wO-zUAzRDIiU--36" target="ygFGr8_wO-zUAzRDIiU--9" edge="1">
          <mxGeometry relative="1" as="geometry" />
        </mxCell>
        <mxCell id="ygFGr8_wO-zUAzRDIiU--36" value="&lt;font style=&quot;font-size: 8px;&quot;&gt;Query&lt;/font&gt;" style="rounded=0;whiteSpace=wrap;html=1;fontStyle=1" parent="1" vertex="1">
          <mxGeometry x="537" y="264.26" width="49" height="14.66" as="geometry" />
        </mxCell>
        <mxCell id="ygFGr8_wO-zUAzRDIiU--37" value="" style="edgeStyle=orthogonalEdgeStyle;rounded=0;orthogonalLoop=1;jettySize=auto;html=1;entryX=0;entryY=0.75;entryDx=0;entryDy=0;" parent="1" source="ygFGr8_wO-zUAzRDIiU--38" target="ygFGr8_wO-zUAzRDIiU--9" edge="1">
          <mxGeometry relative="1" as="geometry" />
        </mxCell>
        <mxCell id="ygFGr8_wO-zUAzRDIiU--38" value="&lt;font style=&quot;font-size: 8px;&quot;&gt;Query&lt;/font&gt;" style="rounded=0;whiteSpace=wrap;html=1;fontStyle=1" parent="1" vertex="1">
          <mxGeometry x="303.38" y="280.93" width="49" height="14.66" as="geometry" />
        </mxCell>
        <mxCell id="ygFGr8_wO-zUAzRDIiU--39" value="" style="endArrow=classic;html=1;rounded=0;entryX=0;entryY=0.5;entryDx=0;entryDy=0;exitX=1;exitY=0.25;exitDx=0;exitDy=0;" parent="1" source="ygFGr8_wO-zUAzRDIiU--32" target="ygFGr8_wO-zUAzRDIiU--34" edge="1">
          <mxGeometry width="50" height="50" relative="1" as="geometry">
            <mxPoint x="320" y="310" as="sourcePoint" />
            <mxPoint x="370" y="260" as="targetPoint" />
          </mxGeometry>
        </mxCell>
      </root>
    </mxGraphModel>
  </diagram>
</mxfile>
